<svg width="40" height="40" viewBox="0 0 40 40" fill="none" xmlns="http://www.w3.org/2000/svg">
<g clip-path="url(#clip0_244_1251)">
<path d="M38.125 33.125V11.25C38.125 9.52688 36.7231 8.125 35 8.125H26.875V2.5C26.875 1.46625 26.0338 0.625 25 0.625H8.75C7.71625 0.625 6.875 1.46625 6.875 2.5V8.125H5C3.27688 8.125 1.875 9.52688 1.875 11.25V33.125H0.625V36.25C0.625 37.9731 2.02688 39.375 3.75 39.375H36.25C37.9731 39.375 39.375 37.9731 39.375 36.25V33.125H38.125ZM35 9.375C36.0338 9.375 36.875 10.2162 36.875 11.25V33.125H35.625V11.875C35.625 11.1856 35.0644 10.625 34.375 10.625H26.875V9.375H35ZM14.375 34.375H25.625V35C25.625 35.345 25.3444 35.625 25 35.625H15C14.6556 35.625 14.375 35.345 14.375 35V34.375ZM5.625 33.125V11.875H6.875V12.5C6.875 13.5338 7.71625 14.375 8.75 14.375H13.2387C13.1681 14.5737 13.125 14.7825 13.125 15V25C13.125 26.0338 13.9662 26.875 15 26.875H20.625V30.5031L26.4294 26.875H31.25C32.2838 26.875 33.125 26.0338 33.125 25V15C33.125 13.9662 32.2838 13.125 31.25 13.125H26.76C26.83 12.9287 26.875 12.72 26.875 12.5V11.875H34.375V33.125H5.625ZM31.25 14.375C31.5944 14.375 31.875 14.655 31.875 15V25C31.875 25.345 31.5944 25.625 31.25 25.625H26.0706L21.875 28.2469V25.625H15C14.6556 25.625 14.375 25.345 14.375 25V15C14.375 14.9619 14.39 14.9275 14.3963 14.8913L19.375 18.0031V14.375H24.415H25H31.25ZM8.125 2.5C8.125 2.155 8.40563 1.875 8.75 1.875H25C25.3444 1.875 25.625 2.155 25.625 2.5V12.5C25.625 12.845 25.3444 13.125 25 13.125H24.415H18.125V15.7469L13.9294 13.125H8.75C8.40563 13.125 8.125 12.845 8.125 12.5V2.5ZM3.125 11.25C3.125 10.2162 3.96625 9.375 5 9.375H6.875V10.625H5.625C4.93562 10.625 4.375 11.1856 4.375 11.875V33.125H3.125V11.25ZM38.125 36.25C38.125 37.2838 37.2838 38.125 36.25 38.125H3.75C2.71625 38.125 1.875 37.2838 1.875 36.25V34.375H13.125V35C13.125 36.0338 13.9662 36.875 15 36.875H25C26.0338 36.875 26.875 36.0338 26.875 35V34.375H38.125V36.25Z" fill="#F38126"/>
<path d="M5.625 35.625H4.375V36.875H5.625V35.625Z" fill="#F38126"/>
<path d="M8.125 35.625H6.875V36.875H8.125V35.625Z" fill="#F38126"/>
<path d="M10.625 35.625H9.375V36.875H10.625V35.625Z" fill="#F38126"/>
<path d="M24.375 3.125H9.375V4.375H24.375V3.125Z" fill="#F38126"/>
<path d="M24.375 5.625H9.375V6.875H24.375V5.625Z" fill="#F38126"/>
<path d="M24.375 8.125H23.125V9.375H24.375V8.125Z" fill="#F38126"/>
<path d="M21.875 8.125H9.375V9.375H21.875V8.125Z" fill="#F38126"/>
<path d="M17.5 10.625H16.25V11.875H17.5V10.625Z" fill="#F38126"/>
<path d="M21.25 10.625H20V11.875H21.25V10.625Z" fill="#F38126"/>
<path d="M13.75 10.625H12.5V11.875H13.75V10.625Z" fill="#F38126"/>
<path d="M30.625 15.625H20.625V16.875H30.625V15.625Z" fill="#F38126"/>
<path d="M30.625 18.125H20.625V19.375H30.625V18.125Z" fill="#F38126"/>
<path d="M30.625 20.625H29.375V21.875H30.625V20.625Z" fill="#F38126"/>
<path d="M28.125 20.625H15.625V21.875H28.125V20.625Z" fill="#F38126"/>
<path d="M23.75 23.125H22.5V24.375H23.75V23.125Z" fill="#F38126"/>
<path d="M27.5 23.125H26.25V24.375H27.5V23.125Z" fill="#F38126"/>
<path d="M20 23.125H18.75V24.375H20V23.125Z" fill="#F38126"/>
</g>
<defs>
<clipPath id="clip0_244_1251">
<rect width="40" height="40" fill="white"/>
</clipPath>
</defs>
</svg>
