<svg width="40" height="40" viewBox="0 0 40 40" fill="none" xmlns="http://www.w3.org/2000/svg">
<g clip-path="url(#clip0_243_1244)">
<path d="M12.9034 7.09621C12.9034 4.60588 10.8775 2.58008 8.38722 2.58008C5.8969 2.58008 3.87109 4.60588 3.87109 7.09621C3.87109 9.58653 5.8969 11.6123 8.38722 11.6123C10.8775 11.6123 12.9034 9.58653 12.9034 7.09621ZM5.16142 7.09621C5.16142 5.3175 6.60851 3.8704 8.38722 3.8704C10.1659 3.8704 11.613 5.3175 11.613 7.09621C11.613 8.87492 10.1659 10.322 8.38722 10.322C6.60851 10.322 5.16142 8.87492 5.16142 7.09621Z" fill="#F38126"/>
<path d="M36.1289 25.8071C36.1289 23.3168 34.1031 21.291 31.6128 21.291C29.1225 21.291 27.0967 23.3168 27.0967 25.8071C27.0967 28.2975 29.1225 30.3233 31.6128 30.3233C34.1031 30.3233 36.1289 28.2975 36.1289 25.8071ZM28.387 25.8071C28.387 24.0284 29.8341 22.5813 31.6128 22.5813C33.3915 22.5813 34.8386 24.0284 34.8386 25.8071C34.8386 27.5859 33.3915 29.033 31.6128 29.033C29.8341 29.033 28.387 27.5859 28.387 25.8071Z" fill="#F38126"/>
<path d="M34.9413 33.7935L37.5826 29.6845C38.32 28.5374 38.7097 27.2103 38.7097 25.8065C38.7097 22.7852 36.8084 20.2058 34.1419 19.1839C33.7174 11.649 27.5974 5.80645 20 5.80645C18.4394 5.80645 16.9181 6.07226 15.4568 6.56839C15.1852 2.90194 12.1219 0 8.3871 0C4.47419 0 1.29032 3.18387 1.29032 7.13742C1.29032 8.50064 1.68 9.82774 2.41742 10.9748L5.05871 15.0839C2.45613 15.4865 0 16.4342 0 18.0645C0 19.7535 2.68516 20.7981 5.88645 21.1523C6.47742 28.5077 12.5619 34.1935 20 34.1935C22.5658 34.1935 25.0568 33.4961 27.2516 32.1865L28.2852 33.7935C25.6819 34.1961 23.2258 35.1439 23.2258 36.7742C23.2258 38.8923 27.4452 40 31.6129 40C35.7806 40 40 38.8923 40 36.7742C40 35.1439 37.5439 34.1961 34.9413 33.7935ZM15.4245 7.94968C16.2787 7.62387 17.1587 7.39484 18.0581 7.25806C16.9155 8.34774 15.3723 10.0877 14.1594 12.4226C13.969 12.3374 13.7806 12.2503 13.5981 12.1555L14.3568 10.9748C14.9426 10.0639 15.2987 9.03613 15.4245 7.94968ZM13.6039 13.5871C13.3671 14.1381 13.1581 14.7213 12.9729 15.3271C12.5639 15.231 12.1419 15.1503 11.7155 15.0839L12.8987 13.2432C13.1284 13.3652 13.3639 13.4794 13.6039 13.5871ZM3.50323 10.2774C2.89935 9.33871 2.58065 8.2529 2.58065 7.09677C2.58065 3.89548 5.18581 1.29032 8.3871 1.29032C11.5884 1.29032 14.1935 3.89548 14.1935 7.13742C14.1935 8.2529 13.8748 9.33871 13.271 10.2774L8.83806 17.1729C8.63935 17.4819 8.13419 17.4819 7.93613 17.1729L3.50323 10.2774ZM1.29032 18.0645C1.29032 17.6174 2.63161 16.6645 5.82903 16.2813L6.85097 17.8703C7.18839 18.3961 7.76258 18.7097 8.3871 18.7097C9.01161 18.7097 9.58581 18.3961 9.92387 17.8703L10.9458 16.2813C14.1426 16.6645 15.4839 17.6174 15.4839 18.0645C15.4839 18.7213 12.9787 20 8.3871 20C3.79548 20 1.29032 18.7213 1.29032 18.0645ZM10.3826 28.5961C8.61548 26.6142 7.46129 24.0755 7.18968 21.2568C7.5871 21.2768 7.98645 21.2903 8.3871 21.2903C9.73097 21.2903 11.0781 21.1735 12.2897 20.9465C12.409 22.9871 12.9071 24.8103 13.5897 26.4039C11.9923 27.1181 10.9626 27.989 10.3826 28.5961ZM11.289 29.5129C11.7645 29.0052 12.6652 28.2181 14.1387 27.5658C15.349 29.9019 16.9026 31.649 18.051 32.7426C15.4632 32.3516 13.1303 31.2026 11.289 29.5129ZM19.3548 32.1761C18.3077 31.2265 16.6561 29.4987 15.3806 27.1077C16.4671 26.7677 17.7826 26.5265 19.3548 26.4723V32.1761ZM19.3548 25.1826C17.5555 25.2406 16.0535 25.5297 14.8155 25.9374C14.1419 24.3942 13.6594 22.6232 13.571 20.649C13.5755 20.6484 13.5794 20.6465 13.5845 20.6452H19.3548V25.1826ZM19.3548 19.3548H16.1548C16.5452 18.9774 16.7742 18.5484 16.7742 18.0645C16.7742 16.9852 15.6948 16.2065 14.2123 15.6858C14.3865 15.1213 14.5839 14.5768 14.8084 14.0619C16.1806 14.5174 17.7019 14.769 19.3548 14.8213V19.3548ZM19.3548 13.5316C17.9097 13.4826 16.5787 13.2716 15.3787 12.8916C16.6561 10.5006 18.3065 8.77226 19.3548 7.82452V13.5316ZM29.6277 11.3935C31.4097 13.3935 32.5671 15.9613 32.8226 18.82C32.4284 18.7523 32.0258 18.7097 31.6129 18.7097C30.5445 18.7097 29.5348 18.9535 28.6252 19.3794V19.3548H27.7258C27.64 17.1923 27.131 15.2658 26.4148 13.5942C28.0181 12.8768 29.0497 12.0006 29.6277 11.3935ZM28.7206 10.4761C28.2484 10.9832 27.3465 11.7755 25.8645 12.4323C24.6542 10.0961 23.0987 8.34903 21.949 7.25613C24.5484 7.64387 26.8813 8.78968 28.7206 10.4761ZM20.6452 7.82387C21.6923 8.7729 23.3458 10.5 24.6226 12.8916C23.5355 13.2316 22.2187 13.4735 20.6452 13.5277V7.82387ZM20.6452 14.8174C22.4458 14.7587 23.949 14.4697 25.1884 14.0613C25.8626 15.6058 26.3471 17.3787 26.4355 19.3548H20.6452V14.8174ZM20.6452 20.6452H26.4335C26.4277 20.7594 26.4194 20.8806 26.411 21.0013C25.2594 22.251 24.5458 23.9123 24.5213 25.7503C23.32 25.4181 22.0219 25.2303 20.6452 25.1852V20.6452ZM20.6452 32.1781V26.4755C22.0761 26.5258 23.4084 26.7432 24.6187 27.1258C23.3477 29.5052 21.6942 31.2303 20.6452 32.1781ZM21.9245 32.7581C22.86 31.8652 24.0716 30.5284 25.1529 28.7845C25.2942 29.0948 25.4574 29.3955 25.6432 29.6852L26.5542 31.1019C25.1232 31.949 23.5568 32.5123 21.9245 32.7581ZM26.729 28.9871C26.1252 28.0484 25.8065 26.9626 25.8065 25.8065C25.8065 22.6052 28.4116 20 31.6129 20C34.8142 20 37.4194 22.6052 37.4194 25.8471C37.4194 26.9626 37.1006 28.0484 36.4968 28.9871L32.0639 35.8826C31.8652 36.1916 31.36 36.1916 31.1619 35.8826L26.729 28.9871ZM31.6129 38.7097C27.0213 38.7097 24.5161 37.431 24.5161 36.7742C24.5161 36.3271 25.8574 35.3742 29.0548 34.991L30.0768 36.58C30.4142 37.1058 30.9884 37.4194 31.6129 37.4194C32.2374 37.4194 32.8116 37.1058 33.1497 36.58L34.1716 34.991C37.3684 35.3742 38.7097 36.3271 38.7097 36.7742C38.7097 37.431 36.2045 38.7097 31.6129 38.7097Z" fill="#F38126"/>
</g>
<defs>
<clipPath id="clip0_243_1244">
<rect width="40" height="40" fill="white"/>
</clipPath>
</defs>
</svg>
