<svg width="40" height="40" viewBox="0 0 40 40" fill="none" xmlns="http://www.w3.org/2000/svg">
<path d="M32.6955 4.4286C34.746 3.59921 36.4983 4.39507 37.4107 6.68207C39.8706 12.8337 34.1178 36.1078 29.602 36.1078C28.1409 36.1078 26.678 34.8937 24.9716 32.709C24.1134 31.5903 23.3141 30.4276 22.5769 29.2256C21.9169 28.1668 21.2675 27.0515 20.6446 25.9257L20.0005 24.7381L19.9688 24.7945C19.1694 26.2991 18.3207 27.7769 17.4241 29.2256C16.6 30.5491 15.7971 31.7244 15.0277 32.709C13.323 34.8937 11.8601 36.1078 10.399 36.1078C5.88323 36.1078 0.130438 12.8319 2.58861 6.68207C3.5027 4.39507 5.25501 3.59744 7.30555 4.42683C8.79139 5.02682 10.4325 6.46678 12.2642 8.61967C13.4752 10.0641 14.6131 11.5683 15.6736 13.1266C16.997 15.06 18.2547 17.0376 19.4446 19.0559L20.0023 20.0053L20.5599 19.0559C21.5163 17.4363 22.5142 15.8417 23.5528 14.2736L24.3292 13.1266C25.3892 11.569 26.5265 10.0654 27.7368 8.62143C29.5703 6.46854 31.2096 5.03035 32.6955 4.4286ZM6.45498 6.49678C5.5903 6.14561 5.14384 6.34855 4.6815 7.50263C3.87505 9.52317 4.21386 14.6107 5.4103 20.3211L5.68912 21.5987L5.99617 22.8922C7.50672 28.998 9.67902 33.8755 10.399 33.8755C10.8931 33.8755 11.9678 32.9826 13.2489 31.3414C13.9636 30.4273 14.7224 29.3156 15.5077 28.0539C16.1465 27.0286 16.7782 25.9469 17.3835 24.8492L18.1159 23.4957L18.73 22.3117L18.0876 21.1858L17.5018 20.187C16.3377 18.2128 15.1076 16.2782 13.8136 14.3866C12.7963 12.8923 11.7056 11.4494 10.5455 10.0632C8.92903 8.16262 7.51731 6.92559 6.45498 6.49678ZM35.3178 7.50263C34.8572 6.34855 34.4107 6.14561 33.5443 6.49678C32.482 6.92559 31.0702 8.16262 29.4556 10.0614C28.2954 11.4476 27.2047 12.8906 26.1874 14.3848C25.1525 15.8951 24.1598 17.4339 23.2104 18.9994L22.1975 20.697L21.2675 22.3117L21.5869 22.9293L22.0193 23.7499C22.7963 25.2105 23.6208 26.6454 24.4916 28.0521C25.1876 29.1865 25.9415 30.2844 26.7503 31.3414C28.0332 32.9826 29.1079 33.8755 29.602 33.8755C30.322 33.8755 32.4943 28.9997 34.0031 22.8922L34.3101 21.5987C35.7307 15.3818 36.186 9.6714 35.3178 7.50263Z" fill="#F38126"/>
</svg>
