<svg width="40" height="40" viewBox="0 0 40 40" fill="none" xmlns="http://www.w3.org/2000/svg">
<g clip-path="url(#clip0_257_78)">
<path d="M33.4498 12.2988L25.9865 6.87961C25.7105 6.67922 25.3243 6.74047 25.1238 7.01648C24.9233 7.2925 24.9847 7.67875 25.2607 7.87922L32.7241 13.2984C32.8337 13.3779 32.9606 13.4163 33.0864 13.4163C33.2774 13.4163 33.4658 13.3279 33.5867 13.1615C33.7872 12.8855 33.7259 12.4992 33.4498 12.2988Z" fill="#F38126"/>
<path d="M15.0674 9.33351C15.014 8.99664 14.6975 8.76648 14.3606 8.82031L5.25139 10.2659C4.91451 10.3193 4.68475 10.6358 4.73819 10.9727C4.78647 11.2768 5.04897 11.4936 5.34741 11.4936C5.37959 11.4936 5.41225 11.4911 5.44498 11.4859L14.5543 10.0403C14.8913 9.98688 15.121 9.67047 15.0674 9.33351Z" fill="#F38126"/>
<path d="M39.7451 10.3559L25.8846 0.291691C25.7521 0.195519 25.5869 0.155675 25.4249 0.181534C25.2632 0.207238 25.1182 0.296066 25.0218 0.428566L18.9772 8.75343L18.1449 3.50896C18.1193 3.34717 18.0304 3.20224 17.8978 3.10592C17.7653 3.00959 17.5998 2.97013 17.4381 2.99576L0.520921 5.68037C0.184046 5.73381 -0.0457205 6.0503 0.00771713 6.38709L3.31171 27.2085C3.33741 27.3703 3.42624 27.5152 3.55874 27.6115C3.66491 27.6886 3.79202 27.7293 3.92163 27.7293C3.95382 27.7293 3.98616 27.7267 4.01843 27.7217L7.9057 27.1048V33.7318C7.9057 34.0729 8.18226 34.3495 8.52336 34.3495H25.6524C25.9935 34.3495 26.27 34.0729 26.27 33.7318V31.9902C26.6938 31.7468 27.094 31.4659 27.4657 31.1481L29.0046 32.6871L28.5097 33.1821C28.2686 33.4232 28.2686 33.8143 28.5097 34.0556L34.0999 39.6458C34.2205 39.7664 34.3786 39.8267 34.5367 39.8267C34.6947 39.8267 34.8529 39.7664 34.9735 39.6458L36.8369 37.7823C36.9527 37.6665 37.0178 37.5094 37.0178 37.3456C37.0178 37.1818 36.9527 37.0247 36.8369 36.9089L31.2467 31.3187C31.1308 31.2028 30.9737 31.1378 30.8099 31.1378C30.6461 31.1378 30.489 31.2028 30.3731 31.3187L29.8782 31.8136L28.3392 30.2746C29.558 28.8518 30.2229 27.0608 30.2229 25.1673C30.2229 24.9647 30.2144 24.7596 30.1986 24.5548L39.8821 11.2185C40.0826 10.9425 40.0212 10.5562 39.7451 10.3559ZM30.8098 32.629L35.5265 37.3458L34.5366 38.3357L29.82 33.6189L30.8098 32.629ZM7.90578 12.6499V15.1813L6.07695 15.4715C5.74007 15.5249 5.51031 15.8414 5.56374 16.1783C5.61202 16.4824 5.87453 16.6992 6.17296 16.6992C6.20515 16.6992 6.23781 16.6967 6.27054 16.6915L7.90578 16.432V20.5177L6.90289 20.6768C6.56601 20.7302 6.33624 21.0467 6.38968 21.3836C6.43796 21.6878 6.70046 21.9045 6.9989 21.9045C7.03109 21.9045 7.06375 21.902 7.09648 21.8968L7.90578 21.7685V25.8542L4.43483 26.4049L1.32452 6.80358L17.0219 4.31264L17.9509 10.1669L16.5964 12.0323H8.52336C8.18226 12.0323 7.90578 12.3088 7.90578 12.6499ZM25.0348 33.1143H9.14102V26.3815V21.0451V15.7088V13.2677H16.9102C16.9103 13.2677 16.9105 13.2678 16.9106 13.2678C16.9109 13.2678 16.9111 13.2677 16.9113 13.2677H18.97H23.9119C23.9121 13.2677 23.9122 13.2678 23.9124 13.2678C23.9126 13.2678 23.9128 13.2677 23.9132 13.2677H25.0346V13.913V17.7708C24.181 17.4603 23.2845 17.303 22.3582 17.303C22.1857 17.303 22.0139 17.3093 21.843 17.3204C21.7969 17.3095 21.7489 17.303 21.6995 17.303H12.4762C12.1351 17.303 11.8585 17.5795 11.8585 17.9206C11.8585 18.2617 12.1351 18.5383 12.4762 18.5383H18.126C17.4587 18.9649 16.8519 19.4948 16.3299 20.1174C15.7139 20.8518 15.2458 21.6764 14.9334 22.5735H12.4763C12.1352 22.5735 11.8586 22.85 11.8586 23.1911C11.8586 23.5322 12.1352 23.8088 12.4763 23.8088H14.6119C14.5335 24.2567 14.4939 24.7113 14.4939 25.1676C14.4939 26.0946 14.651 26.991 14.9609 27.844H12.4763C12.1352 27.844 11.8587 28.1206 11.8587 28.4617C11.8587 28.8028 12.1352 29.0793 12.4763 29.0793H15.5354C16.9377 31.5268 19.5175 33.0321 22.3585 33.0321C23.2853 33.0321 24.1818 32.875 25.0349 32.5651V33.1143H25.0348ZM27.046 29.855L27.0457 29.8552C26.5529 30.348 25.9895 30.758 25.3713 31.074C24.4334 31.5535 23.4197 31.7966 22.3584 31.7966C19.8553 31.7966 17.592 30.4109 16.4517 28.1803C16.4516 28.1801 16.4515 28.18 16.4514 28.1798C15.9721 27.2421 15.7292 26.2285 15.7292 25.1674C15.7292 24.5553 15.8135 23.9468 15.9799 23.3592C16.2356 22.4558 16.6719 21.632 17.2766 20.911C18.541 19.403 20.3933 18.5381 22.3585 18.5381C23.4185 18.5381 24.4323 18.7816 25.3713 19.2618C27.3708 20.2844 28.7082 22.2224 28.9485 24.446C28.9486 24.4464 28.9486 24.4469 28.9486 24.4474C28.9745 24.6875 28.9877 24.9297 28.9877 25.1674C28.9876 26.9382 28.2981 28.6028 27.046 29.855ZM29.8861 22.8828C29.3109 20.9773 28.0281 19.3533 26.27 18.3454V15.1248L29.6275 17.5626C29.7371 17.6421 29.864 17.6805 29.9899 17.6805C30.1808 17.6805 30.3693 17.5921 30.4902 17.4257C30.6907 17.1497 30.6293 16.7634 30.3532 16.563L26.27 13.5982V12.6501C26.27 12.309 25.9935 12.0324 25.6524 12.0324H24.1136L22.8899 11.1438C22.6139 10.9434 22.2275 11.0046 22.0271 11.2807C21.8591 11.5121 21.8756 11.8205 22.0477 12.0324H18.9699H18.1228L19.1005 10.686C19.1005 10.686 19.1006 10.6859 19.1007 10.6857L25.6585 1.65419L38.5196 10.9926L29.8861 22.8828Z" fill="#F38126"/>
<path d="M22.3582 19.9375C19.4748 19.9375 17.1289 22.2834 17.1289 25.1668C17.1289 28.0503 19.4748 30.3961 22.3582 30.3961C25.2417 30.3961 27.5875 28.0503 27.5875 25.1668C27.5875 22.2833 25.2417 19.9375 22.3582 19.9375ZM22.3582 29.1608C20.1559 29.1608 18.3642 27.3691 18.3642 25.1668C18.3642 22.9645 20.1559 21.1728 22.3582 21.1728C24.5606 21.1728 26.3522 22.9645 26.3522 25.1668C26.3522 27.3691 24.5605 29.1608 22.3582 29.1608Z" fill="#F38126"/>
<path d="M24.1126 25.0598C23.8714 24.8186 23.4804 24.8186 23.239 25.0598L21.592 26.7068C21.3508 26.948 21.3508 27.3391 21.592 27.5803C21.7126 27.7008 21.8708 27.7612 22.0288 27.7612C22.1869 27.7612 22.345 27.7009 22.4656 27.5803L24.1126 25.9332C24.3539 25.692 24.3539 25.3009 24.1126 25.0598Z" fill="#F38126"/>
<path d="M23.454 22.425C23.2128 22.1838 22.8217 22.1838 22.5805 22.425L20.7688 24.2367C20.5276 24.4779 20.5276 24.869 20.7688 25.1102C20.8894 25.2307 21.0475 25.2911 21.2056 25.2911C21.3636 25.2911 21.5217 25.2308 21.6424 25.1102L23.454 23.2985C23.6953 23.0572 23.6953 22.6661 23.454 22.425Z" fill="#F38126"/>
</g>
<defs>
<clipPath id="clip0_257_78">
<rect width="40" height="40" fill="white"/>
</clipPath>
</defs>
</svg>
