<svg width="40" height="40" viewBox="0 0 40 40" fill="none" xmlns="http://www.w3.org/2000/svg">
<g clip-path="url(#clip0_258_143)">
<path d="M9.67777 18.0645C13.421 18.0645 16.6391 15.7748 18.0068 12.5232C18.6552 12.3503 19.3236 12.2581 20.0003 12.2581C21.6378 12.2581 23.1907 12.769 24.5165 13.7284V20.6452H25.8068V7.74194H24.2391L30.3229 2.16516L36.4068 7.74194H34.8391V21.9355H36.1294V9.03226H39.7229L30.3229 0.415484L20.9229 9.03226H24.5165V12.1903C23.1468 11.3916 21.6094 10.9677 20.0003 10.9677C19.4823 10.9677 18.9681 11.0168 18.461 11.1039C18.6184 10.4374 18.71 9.74645 18.71 9.03226C18.71 4.05161 14.6584 0 9.67777 0C4.69712 0 0.645508 4.05161 0.645508 9.03226C0.645508 14.0129 4.69712 18.0645 9.67777 18.0645ZM9.67777 1.29032C13.9468 1.29032 17.4197 4.76323 17.4197 9.03226C17.4197 13.3013 13.9468 16.7742 9.67777 16.7742C5.40873 16.7742 1.93583 13.3013 1.93583 9.03226C1.93583 4.76323 5.40873 1.29032 9.67777 1.29032Z" fill="#F38126"/>
<path d="M9.03182 14.1601V15.4833H10.3221V14.1601C11.7699 13.9975 12.9028 12.7801 12.9028 11.2898C12.9028 9.68911 11.6002 8.38653 9.99956 8.38653H9.3544C8.46472 8.38653 7.74149 7.66266 7.74149 6.77363C7.74149 5.88459 8.46472 5.16072 9.3544 5.16072H9.99956C10.8892 5.16072 11.6125 5.88459 11.6125 6.77363V7.09621H12.9028V6.77363C12.9028 5.2833 11.7699 4.06588 10.3221 3.9033V2.58008H9.03182V3.9033C7.58408 4.06588 6.45117 5.2833 6.45117 6.77363C6.45117 8.37427 7.75375 9.67685 9.3544 9.67685H9.99956C10.8892 9.67685 11.6125 10.4007 11.6125 11.2898C11.6125 12.1788 10.8892 12.9027 9.99956 12.9027H9.3544C8.46472 12.9027 7.74149 12.1788 7.74149 11.2898V10.9672H6.45117V11.2898C6.45117 12.7801 7.58408 13.9975 9.03182 14.1601Z" fill="#F38126"/>
<path d="M15.4837 8.38672H14.1934V9.67704H15.4837V8.38672Z" fill="#F38126"/>
<path d="M5.16142 8.38672H3.87109V9.67704H5.16142V8.38672Z" fill="#F38126"/>
<path d="M30.3225 21.9354C26.5793 21.9354 23.3612 24.2251 21.9935 27.4767C21.3451 27.6496 20.6767 27.7419 19.9999 27.7419C18.3625 27.7419 16.8096 27.2309 15.4838 26.2716V19.3548H14.1935V32.258H15.7612L9.67734 37.8348L3.59347 32.258H5.16121V18.0645H3.87089V30.9677H0.277344L9.67734 39.5845L19.0773 30.9677H15.4838V27.8096C16.8535 28.6083 18.3909 29.0322 19.9999 29.0322C20.518 29.0322 21.0322 28.9832 21.5393 28.8961C21.3819 29.5625 21.2902 30.2535 21.2902 30.9677C21.2902 35.9483 25.3419 39.9999 30.3225 39.9999C35.3031 39.9999 39.3548 35.9483 39.3548 30.9677C39.3548 25.987 35.3031 21.9354 30.3225 21.9354ZM30.3225 38.7096C26.0535 38.7096 22.5806 35.2367 22.5806 30.9677C22.5806 26.6986 26.0535 23.2257 30.3225 23.2257C34.5915 23.2257 38.0644 26.6986 38.0644 30.9677C38.0644 35.2367 34.5915 38.7096 30.3225 38.7096Z" fill="#F38126"/>
<path d="M36.1292 30.3223H34.8389V31.6126H36.1292V30.3223Z" fill="#F38126"/>
<path d="M25.8069 30.3223H24.5166V31.6126H25.8069V30.3223Z" fill="#F38126"/>
<path d="M28.387 29.1531V30.3228H27.0967V31.6131H28.387V33.5486C28.387 34.2602 27.8083 34.8389 27.0967 34.8389V36.1292H33.5483V34.8389H29.3309C29.5515 34.4589 29.6773 34.0183 29.6773 33.5486V31.6131H33.5483V30.3228H29.6773V29.1531C29.6773 28.0195 30.5999 27.097 31.7335 27.097H33.5483V25.8066H31.7335C29.8876 25.8066 28.387 27.3079 28.387 29.1531Z" fill="#F38126"/>
<path d="M7.74149 30.9668H6.45117V32.2571H7.74149V30.9668Z" fill="#F38126"/>
<path d="M7.74149 19.3555H6.45117V29.678H7.74149V19.3555Z" fill="#F38126"/>
<path d="M28.387 7.74219H27.0967V16.7744H28.387V7.74219Z" fill="#F38126"/>
<path d="M28.387 18.0645H27.0967V19.3548H28.387V18.0645Z" fill="#F38126"/>
</g>
<defs>
<clipPath id="clip0_258_143">
<rect width="40" height="40" fill="white"/>
</clipPath>
</defs>
</svg>
