<svg width="40" height="40" viewBox="0 0 40 40" fill="none" xmlns="http://www.w3.org/2000/svg">
<path d="M28.3337 19.9993C28.3337 21.6475 27.8449 23.2587 26.9292 24.6291C26.0136 25.9995 24.7121 27.0676 23.1894 27.6983C21.6666 28.3291 19.9911 28.4941 18.3746 28.1726C16.7581 27.851 15.2732 27.0573 14.1078 25.8919C12.9423 24.7265 12.1487 23.2416 11.8271 21.6251C11.5056 20.0086 11.6706 18.333 12.3013 16.8103C12.9321 15.2876 14.0002 13.9861 15.3706 13.0704C16.741 12.1548 18.3522 11.666 20.0003 11.666" stroke="#F38126" stroke-width="1.75" stroke-linecap="round" stroke-linejoin="round"/>
<path d="M23.333 3.66732C22.2552 3.44732 21.1441 3.33621 19.9997 3.33398C10.7947 3.33398 3.33301 10.7957 3.33301 20.0007C3.33301 29.2057 10.7947 36.6673 19.9997 36.6673C29.2047 36.6673 36.6663 29.2057 36.6663 20.0007C36.6641 18.8562 36.553 17.7451 36.333 16.6673" stroke="#F38126" stroke-width="1.75" stroke-linecap="round" stroke-linejoin="round"/>
<path d="M20.0508 19.9377L27.6391 12.3493M32.9008 7.24266L31.9791 3.92933C31.9423 3.8031 31.8749 3.68791 31.7829 3.59393C31.6909 3.49996 31.5772 3.43011 31.4518 3.39056C31.3264 3.35101 31.1932 3.34298 31.0639 3.36719C30.9347 3.39139 30.8134 3.44708 30.7108 3.52933C28.3174 5.48433 25.7108 8.11933 27.8391 12.2743C32.1291 14.2743 34.5791 11.5777 36.4558 9.30933C36.5407 9.20485 36.5982 9.08086 36.6231 8.94857C36.6481 8.81629 36.6396 8.67987 36.5986 8.55165C36.5576 8.42344 36.4852 8.30747 36.3881 8.21424C36.291 8.121 36.1722 8.05344 36.0424 8.01766L32.9008 7.24266Z" stroke="#F38126" stroke-width="1.75" stroke-linecap="round" stroke-linejoin="round"/>
</svg>
