<svg width="40" height="41" viewBox="0 0 40 41" fill="none" xmlns="http://www.w3.org/2000/svg">
<path d="M19.9258 3.75C22.0911 3.75007 23.8467 5.50555 23.8467 7.6709C23.8466 9.83619 22.0911 11.5917 19.9258 11.5918C17.7604 11.5918 16.0049 9.83623 16.0049 7.6709C16.0049 5.50551 17.7604 3.75 19.9258 3.75Z" stroke="#F38126" stroke-width="1.5"/>
<path d="M17.7773 14.7969H22.2285C23.6695 14.797 24.8738 15.909 25.0176 17.3203L25.0312 17.6064V20.7422L25.5518 20.9102C26.3751 21.1747 27.146 21.492 27.8594 21.8584L28.4658 22.1699L28.833 21.5957C29.4095 20.6957 30.4642 20.1728 31.5518 20.3115L31.7695 20.3477H31.7705L36.123 21.2559C37.5365 21.5512 38.4884 22.8874 38.3428 24.3018L38.2988 24.585L37.2041 29.8076V29.8086C36.892 31.3149 35.392 32.2965 33.8838 31.9824H33.8848L32.4844 31.6885L31.9951 31.5859L31.7119 31.998C29.7259 34.889 25.2944 37.0215 20 37.0215C16.7677 37.0215 13.741 36.2388 11.3945 34.8428L10.9336 34.5557L10.5156 34.2686C9.57003 33.5867 8.82761 32.8209 8.27734 32.0078L7.99512 31.5908L7.50293 31.6934L6.12402 31.9824C4.70914 32.2778 3.30233 31.4332 2.875 30.085L2.80371 29.8086L2.80273 29.8076L1.70898 24.585H1.70996C1.41396 23.1647 2.25861 21.7578 3.60645 21.3281L3.88184 21.2559L8.23828 20.3477H8.23926C9.40176 20.1045 10.5618 20.6393 11.1777 21.6045L11.5449 22.1807L12.1523 21.8691C12.8732 21.4997 13.635 21.1823 14.4463 20.9238L14.9688 20.7578V17.6074C14.9688 16.0621 16.2305 14.7969 17.7773 14.7969ZM25.0303 22.9453C25.0303 24.4855 23.7649 25.7519 22.2266 25.752H17.7754C16.231 25.7519 14.9668 24.4863 14.9668 22.9453V21.0215L13.9629 21.3838C13.2894 21.6264 12.6546 21.9108 12.0508 22.2354L11.5576 22.5L11.6719 23.0488L12.6523 27.7451C12.948 29.1614 12.1034 30.5675 10.7529 30.9961L10.4766 31.0684L10.4756 31.0693L9.41992 31.29L8.18164 31.5498L9.00293 32.5117C9.56589 33.1708 10.2615 33.7767 11.0869 34.3164V34.3174C13.4862 35.8981 16.658 36.7382 19.998 36.7383C24.6618 36.7383 28.8384 35.0849 31.0117 32.5117L31.8223 31.5518L30.5918 31.2939L29.5264 31.0703H29.5254C28.0168 30.7567 27.0356 29.2582 27.3486 27.7461L27.3477 27.7451L28.3418 22.998L28.457 22.4473L27.9609 22.1826C27.3584 21.8613 26.7127 21.5806 26.0312 21.3379L25.0303 20.9814V22.9453Z" stroke="#F38126" stroke-width="1.5"/>
<path d="M35.3291 9.89062C37.4944 9.89069 39.25 11.6462 39.25 13.8115C39.2499 15.9768 37.4944 17.7324 35.3291 17.7324C33.1638 17.7324 31.4083 15.9769 31.4082 13.8115C31.4082 11.6461 33.1637 9.89062 35.3291 9.89062Z" stroke="#F38126" stroke-width="1.5"/>
<path d="M3.86816 9.97266C5.98935 9.52911 8.06404 10.8873 8.5127 13.0049V13.0059C8.93753 15.0619 7.6783 17.0774 5.67188 17.6045L5.47559 17.6504C3.4203 18.0789 1.40696 16.8167 0.880859 14.8096L0.833984 14.6133V14.6123L0.797852 14.4141C0.486424 12.431 1.73185 10.5287 3.67188 10.0195L3.86816 9.97266Z" stroke="#F38126" stroke-width="1.5"/>
</svg>
