<svg width="40" height="40" viewBox="0 0 40 40" fill="none" xmlns="http://www.w3.org/2000/svg">
<g clip-path="url(#clip0_258_171)">
<path d="M36.875 24.375H28.125V21.8556C28.3331 21.8681 28.5419 21.875 28.75 21.875C34.6087 21.875 39.375 17.1087 39.375 11.25C39.375 5.39125 34.6087 0.625 28.75 0.625C23.9788 0.625 19.9331 3.78688 18.5956 8.125H0.625V34.375H5.625V39.375H28.125V31.875H33.75C34.7838 31.875 35.625 31.0338 35.625 30C35.625 29.7794 35.58 29.5706 35.5094 29.3738L36.875 29.375C38.2538 29.375 39.375 28.2538 39.375 26.875C39.375 25.4962 38.2538 24.375 36.875 24.375ZM20.625 28.125V25.625H31.875V28.125H20.625ZM19.375 27.9494L15.7581 27.045C15.68 27.0256 15.625 26.9556 15.625 26.875C15.625 26.7944 15.68 26.7244 15.7575 26.705L19.375 25.8006V27.9494ZM25.0444 6.3925L23.5862 4.05937C23.4969 3.91625 23.3931 3.78125 23.2869 3.64688C24.375 2.8625 25.6344 2.30438 27.0012 2.045C26.9194 2.37875 26.875 2.72188 26.875 3.06688C26.875 4.85625 28.0006 6.48 29.6762 7.10875L31.0744 7.6325C31.6256 7.83937 32.0238 8.30812 32.1394 8.885C32.4138 10.2556 33.6275 11.25 35.0244 11.25C36.0988 11.25 37.155 10.9688 38.0844 10.4444C38.1069 10.7106 38.125 10.9781 38.125 11.25C38.125 11.7469 38.075 12.2306 38 12.7062C37.5325 12.5737 37.0525 12.5 36.5625 12.5H35.1131C33.355 12.5 31.7731 11.5231 30.9862 9.94937C30.6156 9.20937 29.8719 8.75 29.045 8.75C27.8488 8.75 26.875 9.72375 26.875 10.92V13.125H22.805C23.0237 12.7094 23.345 12.3469 23.7719 12.0906C24.915 11.405 25.625 10.1506 25.625 8.8175V8.41563C25.625 7.7 25.4244 7 25.0444 6.3925ZM28.125 20.6031V17.0238C28.5725 17.3238 29.1094 17.5 29.6875 17.5C30.5494 17.5 31.25 18.2012 31.25 19.0625C31.25 19.4625 31.3056 19.8544 31.4044 20.2362C30.5619 20.4856 29.6725 20.625 28.75 20.625C28.5419 20.625 28.3331 20.6169 28.125 20.6031ZM32.5844 19.7962C32.5319 19.5562 32.5 19.3119 32.5 19.0625C32.5 17.5119 31.2381 16.25 29.6875 16.25C28.8256 16.25 28.125 15.5488 28.125 14.6875V13.125V10.92C28.125 10.4131 28.5375 10 29.0456 10C29.3962 10 29.7113 10.195 29.8681 10.5087C30.8681 12.5081 32.8775 13.75 35.1131 13.75H36.5625C36.9606 13.75 37.3512 13.8119 37.7306 13.9269C36.9475 16.5481 35.0475 18.6862 32.5844 19.7962ZM37.8675 9.10438C37.0363 9.68313 36.0413 10 35.0244 10C34.2206 10 33.5231 9.42813 33.3656 8.64C33.1644 7.63625 32.4719 6.8225 31.5138 6.4625L30.1156 5.93813C28.9244 5.49188 28.125 4.3375 28.125 3.06688C28.125 2.66438 28.2075 2.26563 28.3612 1.895C28.4912 1.88938 28.6188 1.875 28.75 1.875C33.1806 1.875 36.8938 4.9675 37.8675 9.10438ZM22.3231 4.4425C22.3944 4.53375 22.4656 4.625 22.5262 4.72125L23.9844 7.05437C24.24 7.46375 24.375 7.93438 24.375 8.41563V8.8175C24.375 9.71437 23.8975 10.5581 23.1031 11.0344C22.3094 11.5113 21.7256 12.2569 21.4425 13.125H19.5656C19.4406 12.5113 19.375 11.8825 19.375 11.25C19.375 8.56875 20.5125 6.15312 22.3231 4.4425ZM7.75875 18.125L10.625 15.2587V18.125H7.75875ZM9.375 19.375H11.875V16.875H24.375V21.875H9.375V19.375ZM10.9913 13.125L7.24125 16.875H4.375V11.875H18.1444C18.1688 12.295 18.2194 12.7125 18.2931 13.125H10.9913ZM1.875 33.125V9.375H18.3006C18.2275 9.78375 18.1812 10.2013 18.1562 10.625H3.125V18.125H5.99125L5.625 18.4913V19.375H3.125V20.625H5.625V21.875H3.125V23.125H5.625V24.375H3.125V25.625H5.625V26.875H3.125V28.125H5.625V29.375H3.125V30.625H5.625V33.125H1.875ZM34.375 30C34.375 30.3444 34.095 30.625 33.75 30.625H25.625V31.875H26.875V38.125H6.875V19.375H8.125V23.125H25.625V15.625H11.875V14.375H26.875V14.6875V24.375H20L15.4544 25.4919C14.8187 25.6512 14.375 26.22 14.375 26.875C14.375 27.53 14.8188 28.0988 15.455 28.2581L19.8487 29.3563L33.75 29.3719V29.375C34.095 29.375 34.375 29.6556 34.375 30ZM36.875 28.125H33.125V25.625H36.875C37.5644 25.625 38.125 26.1856 38.125 26.875C38.125 27.5644 37.5644 28.125 36.875 28.125Z" fill="#F38126"/>
<path d="M13.125 24.375H8.125V25.625H13.125V24.375Z" fill="#F38126"/>
<path d="M13.125 26.875H8.125V28.125H13.125V26.875Z" fill="#F38126"/>
<path d="M8.125 36.875H16.875V29.375H8.125V36.875ZM9.375 30.625H15.625V35.625H9.375V30.625Z" fill="#F38126"/>
<path d="M25.625 35.625H18.125V36.875H25.625V35.625Z" fill="#F38126"/>
<path d="M25.625 33.125H18.125V34.375H25.625V33.125Z" fill="#F38126"/>
<path d="M24.375 30.625H18.125V31.875H24.375V30.625Z" fill="#F38126"/>
</g>
<defs>
<clipPath id="clip0_258_171">
<rect width="40" height="40" fill="white"/>
</clipPath>
</defs>
</svg>
