<svg width="40" height="40" viewBox="0 0 40 40" fill="none" xmlns="http://www.w3.org/2000/svg">
<path d="M9.23395 24.8438C7.15621 24.8438 5.46582 26.5341 5.46582 28.6119C5.46582 30.6896 7.15621 32.38 9.23395 32.38C11.3117 32.38 13.0021 30.6896 13.0021 28.6119C13.0021 26.5341 11.3117 24.8438 9.23395 24.8438ZM9.23395 31.1378C7.84121 31.1378 6.70809 30.0046 6.70809 28.612C6.70809 27.2193 7.84129 26.0861 9.23395 26.0861C10.6266 26.0861 11.7598 27.2193 11.7598 28.612C11.7598 30.0046 10.6266 31.1378 9.23395 31.1378Z" fill="#F38126"/>
<path d="M9.06809 32.5352C6.50777 32.5352 4.4248 34.618 4.4248 37.1784V39.3787C4.4248 39.7218 4.70293 39.9998 5.0459 39.9998H13.0432C13.3811 39.9998 13.657 39.7297 13.6642 39.3919L13.7112 37.1916C13.7113 37.1873 13.7114 37.1829 13.7114 37.1784C13.7114 34.6181 11.6284 32.5352 9.06809 32.5352ZM12.4353 38.7576H5.66699V37.1784C5.66699 35.303 7.1927 33.7774 9.06809 33.7774C10.9413 33.7774 12.4656 35.2997 12.4692 37.172L12.4353 38.7576Z" fill="#F38126"/>
<path d="M30.7662 24.8438C28.6884 24.8438 26.998 26.5341 26.998 28.6119C26.998 30.6896 28.6884 32.38 30.7662 32.38C32.8439 32.38 34.5343 30.6896 34.5343 28.6119C34.5343 26.5341 32.844 24.8438 30.7662 24.8438ZM30.7662 31.1378C29.3734 31.1378 28.2403 30.0046 28.2403 28.612C28.2403 27.2193 29.3735 26.0861 30.7662 26.0861C32.1589 26.0861 33.292 27.2193 33.292 28.612C33.292 30.0046 32.1589 31.1378 30.7662 31.1378Z" fill="#F38126"/>
<path d="M30.9314 32.5352C28.3711 32.5352 26.2881 34.618 26.2881 37.1784C26.2881 37.1828 26.2882 37.1872 26.2882 37.1916L26.3353 39.3919C26.3425 39.7297 26.6183 39.9998 26.9562 39.9998H34.9536C35.2968 39.9998 35.5747 39.7217 35.5747 39.3787V37.1784C35.5747 34.6181 33.4918 32.5352 30.9314 32.5352ZM27.5641 38.7576L27.5302 37.1721C27.5335 35.2995 29.058 33.7774 30.9313 33.7774C32.8068 33.7774 34.3324 35.3031 34.3324 37.1784V38.7577H27.5641V38.7576Z" fill="#F38126"/>
<path d="M20.1187 24.8438C18.041 24.8438 16.3506 26.5341 16.3506 28.6119C16.3506 30.6896 18.0409 32.38 20.1187 32.38C22.1964 32.38 23.8868 30.6896 23.8868 28.6119C23.8868 26.5341 22.1964 24.8438 20.1187 24.8438ZM20.1187 31.1378C18.726 31.1378 17.5929 30.0046 17.5929 28.612C17.5929 27.2193 18.7261 26.0861 20.1187 26.0861C21.5114 26.0861 22.6446 27.2193 22.6446 28.612C22.6446 30.0046 21.5114 31.1378 20.1187 31.1378Z" fill="#F38126"/>
<path d="M19.9528 32.5352C17.3925 32.5352 15.3096 34.618 15.3096 37.1784V39.3787C15.3096 39.7218 15.5876 39.9998 15.9307 39.9998H23.9279C24.2658 39.9998 24.5417 39.7297 24.5489 39.3919L24.5959 37.1916C24.596 37.1873 24.5961 37.1829 24.5961 37.1784C24.5961 34.6181 22.5131 32.5352 19.9528 32.5352ZM23.32 38.7576H16.5518V37.1784C16.5518 35.303 18.0775 33.7774 19.9528 33.7774C21.826 33.7774 23.3503 35.2997 23.3539 37.172L23.32 38.7576Z" fill="#F38126"/>
<path d="M24.7008 6.48563C24.6591 6.22751 24.5955 5.97087 24.5116 5.72298C24.4015 5.3979 24.0487 5.22376 23.7241 5.33376C23.399 5.44384 23.2247 5.79634 23.3348 6.12126C23.3967 6.30415 23.4436 6.49337 23.4744 6.68368C23.5237 6.98884 23.7873 7.20595 24.0869 7.20595C24.1197 7.20595 24.153 7.20337 24.1866 7.1979C24.5252 7.14321 24.7555 6.82438 24.7008 6.48563Z" fill="#F38126"/>
<path d="M23.6562 4.19797C22.7467 3.10898 21.4141 2.48438 20 2.48438C19.6569 2.48438 19.3789 2.76242 19.3789 3.10547C19.3789 3.44859 19.657 3.72656 20 3.72656C21.0448 3.72656 22.0299 4.18859 22.7026 4.99422C22.8254 5.14133 23.0019 5.21719 23.1797 5.21719C23.3201 5.21719 23.4612 5.16992 23.5775 5.07281C23.8409 4.85305 23.876 4.46125 23.6562 4.19797Z" fill="#F38126"/>
<path d="M30.2691 20.8695H20.6211V19.1305H22.6501C22.9932 19.1305 23.2712 18.8524 23.2712 18.5094V16.1905V13.8717C23.2712 13.8196 23.2641 13.7693 23.252 13.7209C25.6189 12.5272 27.2463 10.0735 27.2463 7.24648C27.2464 3.2507 23.9957 0 20 0C16.0043 0 12.7536 3.2507 12.7536 7.24641C12.7536 10.0734 14.381 12.5271 16.748 13.7208C16.7359 13.7691 16.7287 13.8195 16.7287 13.8716V16.1905V18.5093C16.7287 18.8524 17.0068 19.1304 17.3498 19.1304H19.3788V20.8695H9.06836C8.72523 20.8695 8.44727 21.1476 8.44727 21.4906V23.147C8.44727 23.4901 8.72531 23.768 9.06836 23.768C9.41148 23.768 9.68945 23.49 9.68945 23.147V22.1118H19.3789V23.147C19.3789 23.4901 19.657 23.768 20 23.768C20.3431 23.768 20.6211 23.49 20.6211 23.147V22.1118H29.648V23.147C29.648 23.4901 29.926 23.768 30.2691 23.768C30.6122 23.768 30.8902 23.49 30.8902 23.147V21.4906C30.8902 21.1476 30.6123 20.8695 30.2691 20.8695ZM22.029 15.5694H17.971V14.4927H20H22.029V15.5694ZM18.9648 13.1594V8.53008H21.0352V13.1594C20.6987 13.2182 20.3531 13.2505 20 13.2505C19.6469 13.2505 19.3013 13.2181 18.9648 13.1594ZM17.7226 6.91508V7.28773H17.0187C16.6755 7.28773 16.3976 7.56578 16.3976 7.90883C16.3976 8.25195 16.6756 8.52992 17.0187 8.52992H17.7226V12.8005C15.5382 11.9015 13.9959 9.75102 13.9959 7.24625C13.9959 3.93555 16.6893 1.24211 20 1.24211C23.3107 1.24211 26.0041 3.93555 26.0041 7.24625C26.0041 9.75109 24.4618 11.9015 22.2774 12.8005V8.52992H22.9813C23.3245 8.52992 23.6024 8.25188 23.6024 7.90883C23.6024 7.5657 23.3244 7.28773 22.9813 7.28773H22.2774V6.91508C22.2774 6.57195 21.9994 6.29399 21.6563 6.29399C21.3132 6.29399 21.0352 6.57203 21.0352 6.91508V7.28773H18.9648V6.91508C18.9648 6.57195 18.6868 6.29399 18.3437 6.29399C18.0005 6.29399 17.7226 6.57203 17.7226 6.91508ZM20 17.8882H17.971V16.8116H22.029V17.8882H20Z" fill="#F38126"/>
<path d="M10.0023 4.64453H7.42578C7.08266 4.64453 6.80469 4.92258 6.80469 5.26563C6.80469 5.60875 7.08273 5.88672 7.42578 5.88672H10.0023C10.3455 5.88672 10.6234 5.60867 10.6234 5.26563C10.6234 4.9225 10.3455 4.64453 10.0023 4.64453Z" fill="#F38126"/>
<path d="M11.1611 6.93383C10.9184 6.69133 10.5252 6.69133 10.2826 6.93383L8.64287 8.57352C8.40029 8.81617 8.40029 9.20937 8.64287 9.45195C8.7642 9.5732 8.92318 9.63383 9.08209 9.63383C9.241 9.63383 9.40006 9.5732 9.52131 9.45195L11.161 7.81227C11.4037 7.56961 11.4037 7.17641 11.1611 6.93383Z" fill="#F38126"/>
<path d="M11.1444 2.71805L9.50471 1.07836C9.26205 0.835859 8.86885 0.835859 8.62627 1.07836C8.38369 1.32102 8.38369 1.71422 8.62627 1.9568L10.2659 3.59648C10.3872 3.71773 10.5462 3.77836 10.7051 3.77836C10.864 3.77836 11.0231 3.71773 11.1443 3.59648C11.387 3.35383 11.387 2.96063 11.1444 2.71805Z" fill="#F38126"/>
<path d="M33.2367 4.64453H30.6602C30.317 4.64453 30.0391 4.92266 30.0391 5.26563C30.0391 5.60875 30.3171 5.88672 30.6602 5.88672H33.2367C33.5798 5.88672 33.8578 5.60867 33.8578 5.26563C33.8579 4.9225 33.5798 4.64453 33.2367 4.64453Z" fill="#F38126"/>
<path d="M32.0194 8.57352L30.3797 6.93383C30.137 6.69133 29.7438 6.69133 29.5013 6.93383C29.2587 7.17648 29.2587 7.56969 29.5013 7.81227L31.1409 9.45195C31.2622 9.5732 31.4212 9.63383 31.5801 9.63383C31.739 9.63383 31.898 9.5732 32.0193 9.45195C32.262 9.2093 32.262 8.81609 32.0194 8.57352Z" fill="#F38126"/>
<path d="M32.036 1.07836C31.7933 0.835859 31.4001 0.835859 31.1576 1.07836L29.5179 2.71805C29.2753 2.9607 29.2753 3.35391 29.5179 3.59648C29.6392 3.71773 29.7981 3.77836 29.957 3.77836C30.1159 3.77836 30.275 3.71773 30.3962 3.59648L32.0359 1.9568C32.2786 1.71414 32.2786 1.32094 32.036 1.07836Z" fill="#F38126"/>
</svg>
