<svg width="40" height="40" viewBox="0 0 40 40" fill="none" xmlns="http://www.w3.org/2000/svg">
<path d="M9.15191 8.39996L12.0653 10.5125M9.15191 31.6071L12.0653 29.4931M30.8449 8.39996L27.9316 10.5125M30.8449 31.6071L27.9316 29.4931M2.9988 6.40383C2.9988 6.85032 3.08674 7.29243 3.25761 7.70493C3.42847 8.11742 3.67891 8.49223 3.99462 8.80794C4.31033 9.12365 4.68513 9.37409 5.09763 9.54495C5.51013 9.71581 5.95224 9.80376 6.39873 9.80376C6.84521 9.80376 7.28732 9.71581 7.69982 9.54495C8.11232 9.37409 8.48712 9.12365 8.80284 8.80794C9.11855 8.49223 9.36899 8.11742 9.53985 7.70493C9.71071 7.29243 9.79865 6.85032 9.79865 6.40383C9.79865 5.50211 9.44045 4.63733 8.80284 3.99972C8.16523 3.36211 7.30044 3.00391 6.39873 3.00391C5.49701 3.00391 4.63223 3.36211 3.99462 3.99972C3.35701 4.63733 2.9988 5.50211 2.9988 6.40383ZM2.9988 33.6032C2.98926 34.0556 3.07013 34.5054 3.23667 34.9262C3.40321 35.3469 3.65207 35.7302 3.96865 36.0535C4.28524 36.3769 4.66319 36.6337 5.08034 36.8091C5.49749 36.9845 5.94545 37.0748 6.39797 37.0748C6.85049 37.0748 7.29845 36.9845 7.7156 36.8091C8.13276 36.6337 8.5107 36.3769 8.82729 36.0535C9.14388 35.7302 9.39273 35.3469 9.55927 34.9262C9.72581 34.5054 9.80668 34.0556 9.79714 33.6032C9.77839 32.7141 9.41203 31.8678 8.77661 31.2456C8.14118 30.6234 7.28727 30.275 6.39797 30.275C5.50867 30.275 4.65476 30.6234 4.01934 31.2456C3.38391 31.8678 3.01755 32.7141 2.9988 33.6032ZM30.1982 6.40383C30.1982 7.30555 30.5564 8.17033 31.194 8.80794C31.8316 9.44555 32.6964 9.80376 33.5981 9.80376C34.4998 9.80376 35.3646 9.44555 36.0022 8.80794C36.6398 8.17033 36.998 7.30555 36.998 6.40383C36.998 5.50211 36.6398 4.63733 36.0022 3.99972C35.3646 3.36211 34.4998 3.00391 33.5981 3.00391C32.6964 3.00391 31.8316 3.36211 31.194 3.99972C30.5564 4.63733 30.1982 5.50211 30.1982 6.40383ZM30.1982 33.6032C30.1982 34.5049 30.5564 35.3697 31.194 36.0073C31.8316 36.6449 32.6964 37.0032 33.5981 37.0032C34.4998 37.0032 35.3646 36.6449 36.0022 36.0073C36.6398 35.3697 36.998 34.5049 36.998 33.6032C36.998 32.7015 36.6398 31.8367 36.0022 31.1991C35.3646 30.5615 34.4998 30.2033 33.5981 30.2033C32.6964 30.2033 31.8316 30.5615 31.194 31.1991C30.5564 31.8367 30.1982 32.7015 30.1982 33.6032ZM16.0318 13.7703C16.0318 14.8223 16.4498 15.8313 17.1936 16.5751C17.9375 17.319 18.9464 17.7369 19.9984 17.7369C21.0504 17.7369 22.0593 17.319 22.8032 16.5751C23.5471 15.8313 23.965 14.8223 23.965 13.7703C23.965 12.7183 23.5471 11.7094 22.8032 10.9655C22.0593 10.2217 21.0504 9.80376 19.9984 9.80376C18.9464 9.80376 17.9375 10.2217 17.1936 10.9655C16.4498 11.7094 16.0318 12.7183 16.0318 13.7703ZM13.1986 25.6701C13.1986 23.8666 13.915 22.1371 15.1902 20.8619C16.4654 19.5866 18.195 18.8702 19.9984 18.8702C21.8019 18.8702 23.5314 19.5866 24.8066 20.8619C26.0819 22.1371 26.7983 23.8666 26.7983 25.6701H13.1986Z" stroke="#F38126" stroke-width="1.85" stroke-linecap="round" stroke-linejoin="round"/>
</svg>
