<svg width="40" height="40" viewBox="0 0 40 40" fill="none" xmlns="http://www.w3.org/2000/svg">
<path fill-rule="evenodd" clip-rule="evenodd" d="M27.3495 13.118V13.2471H25.9061L28.0231 16.3473L30.1401 13.2471H28.7557V13.118C28.7557 9.94594 26.175 7.36523 23.0029 7.36523H22.2217V8.77148H23.0029C25.3996 8.77148 27.3495 10.7213 27.3495 13.118Z" fill="#F38126"/>
<path fill-rule="evenodd" clip-rule="evenodd" d="M11.15 26.4812V26.3522H12.5934L10.4764 23.252L8.35938 26.3522H9.74375V26.4812C9.74375 29.6534 12.3245 32.2341 15.4966 32.2341H16.2778V30.8278H15.4966C13.0999 30.8278 11.15 28.8779 11.15 26.4812Z" fill="#F38126"/>
<path fill-rule="evenodd" clip-rule="evenodd" d="M21.3742 12.8272C21.3742 7.89164 17.3731 3.89062 12.4375 3.89062C7.50199 3.89062 3.50098 7.89164 3.50098 12.8272C3.50098 17.7627 7.50199 21.7638 12.4375 21.7638C17.3731 21.7638 21.3742 17.7627 21.3742 12.8272ZM6.43637 12.8272C6.43637 9.51281 9.12324 6.82594 12.4375 6.82594C15.752 6.82594 18.4388 9.51281 18.4388 12.8272C18.4388 16.1416 15.7519 18.8284 12.4375 18.8284C9.12316 18.8284 6.43637 16.1416 6.43637 12.8272Z" fill="#F38126"/>
<path fill-rule="evenodd" clip-rule="evenodd" d="M12.5287 17.386C12.5435 17.3433 12.5509 17.3 12.5509 17.2562V16.6162C12.9011 16.5943 13.2205 16.5333 13.5093 16.4334C13.7974 16.3335 14.0446 16.1934 14.2501 16.0129C14.4563 15.8327 14.6151 15.6112 14.7267 15.3492C14.8389 15.087 14.8947 14.7829 14.8947 14.4367C14.8947 14.1711 14.8656 13.937 14.807 13.7346C14.7489 13.5322 14.6675 13.3542 14.5627 13.2008C14.4579 13.047 14.3332 12.9155 14.188 12.8056C14.0434 12.696 13.8839 12.6004 13.7097 12.5187C13.536 12.437 13.3509 12.3675 13.1551 12.3103C12.9591 12.253 12.7576 12.2001 12.5509 12.1512V10.1913C12.7234 10.1935 12.8709 10.2234 12.9922 10.2807C13.1141 10.3382 13.2188 10.4082 13.3065 10.4911C13.3941 10.574 13.4705 10.6636 13.5365 10.7598C13.602 10.8561 13.667 10.9458 13.7318 11.0286C13.7962 11.1115 13.8645 11.1803 13.9363 11.2353C14.008 11.29 14.0951 11.3177 14.197 11.3177C14.2773 11.3177 14.3537 11.3029 14.4254 11.2738C14.4971 11.2445 14.5604 11.2023 14.615 11.1473C14.6702 11.0927 14.713 11.0249 14.7448 10.9446C14.7767 10.8641 14.792 10.7738 14.792 10.6738C14.792 10.5056 14.7539 10.3516 14.677 10.2112C14.6006 10.0711 14.4994 9.945 14.3741 9.83281C14.2488 9.72063 14.1064 9.6218 13.947 9.53641C13.7876 9.45125 13.6253 9.37922 13.4596 9.32086C13.2939 9.26227 13.1316 9.21781 12.9722 9.18734C12.8127 9.15688 12.6721 9.13922 12.5508 9.13406V8.53445C12.5508 8.48805 12.5434 8.44359 12.5286 8.40094C12.5138 8.3582 12.4933 8.32063 12.4677 8.28758C12.442 8.25461 12.4119 8.22836 12.3777 8.20898C12.343 8.18938 12.3066 8.17969 12.2673 8.17969C12.228 8.17969 12.1905 8.18938 12.1551 8.20898C12.1192 8.22836 12.0884 8.25453 12.0628 8.28758C12.0372 8.32063 12.0166 8.3582 12.0019 8.40094C11.9871 8.44359 11.9803 8.48805 11.9803 8.53445V9.13406C11.6854 9.14633 11.4029 9.20016 11.1335 9.29523C10.8642 9.39031 10.6263 9.52789 10.4206 9.70836C10.2145 9.88891 10.0505 10.1118 9.92867 10.3777C9.8068 10.6433 9.74586 10.9516 9.74586 11.3027C9.74586 11.5905 9.79711 11.8482 9.89906 12.0763C10.0016 12.3043 10.149 12.5047 10.3415 12.6778C10.5345 12.8509 10.7691 12.9978 11.0459 13.1185C11.3226 13.2392 11.6341 13.3334 11.9803 13.4018V15.563C11.785 15.5534 11.6249 15.5255 11.4991 15.4791C11.3738 15.4327 11.2708 15.3738 11.1899 15.3017C11.1097 15.2297 11.0476 15.1494 11.0038 15.0602C10.9598 14.9714 10.9229 14.8812 10.8921 14.7898C10.8613 14.6984 10.8323 14.6092 10.8045 14.5227C10.7766 14.4362 10.7384 14.3593 10.6911 14.2924C10.6433 14.2252 10.5806 14.1711 10.5027 14.1295C10.4246 14.0883 10.3198 14.0675 10.1884 14.0675C10.0055 14.0675 9.86148 14.1236 9.7568 14.2358C9.65195 14.348 9.59961 14.5088 9.59961 14.7184C9.59961 14.855 9.62117 14.9951 9.66508 15.1388C9.70898 15.2829 9.775 15.4241 9.86266 15.563C9.95031 15.702 10.0608 15.8338 10.1934 15.958C10.3267 16.0823 10.481 16.1923 10.6564 16.287C10.8318 16.3822 11.0299 16.459 11.2503 16.5177C11.4712 16.576 11.7144 16.6091 11.9804 16.6162V17.2562C11.9804 17.3001 11.9872 17.3433 12.002 17.386C12.0167 17.4287 12.0373 17.4666 12.0629 17.4993C12.0885 17.5323 12.1193 17.5585 12.1552 17.5781C12.1905 17.5975 12.228 17.6072 12.2673 17.6072C12.3066 17.6072 12.3431 17.5975 12.3778 17.5781C12.412 17.5585 12.4421 17.5323 12.4677 17.4993C12.4934 17.4666 12.514 17.4288 12.5287 17.386ZM12.5509 13.5151C12.6768 13.547 12.8089 13.5854 12.9462 13.6304C13.0834 13.6754 13.2086 13.7371 13.322 13.8152C13.4347 13.8932 13.5276 13.9905 13.6004 14.1076C13.6733 14.2246 13.7097 14.3709 13.7097 14.5463C13.7097 14.7197 13.6761 14.8677 13.6077 14.9907C13.54 15.114 13.4512 15.2162 13.3419 15.2979C13.2326 15.3796 13.1084 15.4417 12.97 15.4844C12.8311 15.527 12.6916 15.5533 12.5509 15.563V13.5151ZM11.9805 12.0377C11.6269 11.9597 11.3632 11.8433 11.1901 11.6884C11.017 11.5338 10.9305 11.327 10.9305 11.0685C10.9305 10.9566 10.9549 10.8488 11.0039 10.7451C11.0523 10.6414 11.1229 10.5492 11.214 10.4689C11.3056 10.3884 11.4155 10.3231 11.5448 10.2734C11.674 10.2232 11.8193 10.1959 11.9804 10.1911V12.0377H11.9805Z" fill="#F38126"/>
<path fill-rule="evenodd" clip-rule="evenodd" d="M27.1158 17.3457C21.9423 17.3457 17.7334 21.5546 17.7334 26.7281C17.7334 31.9016 21.9423 36.1105 27.1158 36.1105C32.2893 36.1105 36.4982 31.9016 36.4982 26.728C36.4982 21.5545 32.2893 17.3457 27.1158 17.3457ZM33.6034 28.353C33.2959 29.5847 32.6488 30.6799 31.7664 31.5338L33.006 32.7734C32.0115 33.7425 30.7799 34.4695 29.4071 34.8569L28.9524 33.1595C28.3456 33.3325 27.7046 33.4234 27.0414 33.4159C26.4304 33.4091 25.84 33.3191 25.2792 33.1593L24.8243 34.8569C23.4516 34.4694 22.22 33.7424 21.2256 32.7732L22.4658 31.533C21.5824 30.6779 20.9339 29.583 20.6268 28.3534L18.9304 28.808C18.7612 28.1423 18.671 27.4456 18.671 26.728C18.671 26.0105 18.7612 25.3137 18.9304 24.6481L20.6282 25.103C20.9357 23.8714 21.5828 22.7762 22.465 21.9223L21.2256 20.6828C22.22 19.7136 23.4517 18.9867 24.8244 18.5992L25.2792 20.2966C25.886 20.1236 26.5271 20.0327 27.1901 20.0402C27.8012 20.047 28.3916 20.137 28.9524 20.2968L29.4072 18.5992C30.78 18.9866 32.0115 19.7136 33.006 20.6827L31.7657 21.923C32.6491 22.7782 33.2976 23.8732 33.6047 25.1027L35.3012 24.6481C35.4704 25.3138 35.5607 26.0105 35.5607 26.728C35.5607 27.4456 35.4704 28.1424 35.3012 28.808L33.6034 28.353Z" fill="#F38126"/>
<path fill-rule="evenodd" clip-rule="evenodd" d="M27.1177 23.1289C26.4759 24.2938 25.5474 25.1834 24.6092 26.133C24.2331 26.514 24.0332 26.8592 24.0332 27.3995C24.0332 28.2207 24.7327 28.8901 25.5897 28.8901C26.1745 28.8901 26.6848 28.5797 26.952 28.1224C26.9675 28.644 26.727 29.401 26.3087 30.3263H27.97C27.5605 29.4677 27.2454 28.6723 27.2754 28.1159C27.541 28.5773 28.0536 28.8901 28.6402 28.8901C29.498 28.8901 30.1982 28.2207 30.1982 27.3995C30.1982 26.8941 29.8773 26.4685 29.5541 26.133C28.4312 24.9672 27.6498 24.0484 27.1177 23.1289Z" fill="#F38126"/>
</svg>
