<svg width="40" height="40" viewBox="0 0 40 40" fill="none" xmlns="http://www.w3.org/2000/svg">
<path d="M3.33301 20.0007C3.33301 12.144 3.33301 8.21565 5.77301 5.77398C8.21634 3.33398 12.143 3.33398 19.9997 3.33398C27.8563 3.33398 31.7847 3.33398 34.2247 5.77398C36.6663 8.21732 36.6663 12.144 36.6663 20.0007C36.6663 27.8573 36.6663 31.7857 34.2247 34.2257C31.7863 36.6673 27.8563 36.6673 19.9997 36.6673C12.143 36.6673 8.21467 36.6673 5.77301 34.2257C3.33301 31.7873 3.33301 27.8573 3.33301 20.0007Z" stroke="white" stroke-width="2"/>
<path d="M11.667 23.3327L15.4887 19.511C15.8012 19.1986 16.2251 19.023 16.667 19.023C17.1089 19.023 17.5328 19.1986 17.8453 19.511L20.4887 22.1543C20.8012 22.4668 21.2251 22.6423 21.667 22.6423C22.1089 22.6423 22.5328 22.4668 22.8453 22.1543L28.3337 16.666M28.3337 16.666V20.8327M28.3337 16.666H24.167" stroke="white" stroke-width="1.75" stroke-linecap="round" stroke-linejoin="round"/>
</svg>
