<svg width="24" height="24" viewBox="0 0 24 24" fill="none" xmlns="http://www.w3.org/2000/svg">
<path d="M8.59239 7.76348C8.53964 7.7301 8.48795 7.69509 8.43739 7.65848C8.35464 7.59725 8.27674 7.52971 8.20439 7.45648L8.19839 7.44948L8.19539 7.44648C8.19439 7.44648 8.19339 7.44348 8.57239 7.11748L8.19339 7.44348C8.13643 7.37726 8.09782 7.29727 8.08139 7.21148L7.63139 4.87548C7.60512 4.72779 7.62199 4.57566 7.67999 4.43731C7.73799 4.29897 7.83465 4.18028 7.95839 4.09548C8.07335 4.01231 8.20771 3.96 8.34864 3.94355C8.48957 3.92709 8.63236 3.94704 8.76339 4.00148C9.09639 4.14748 9.52839 4.26248 9.96839 4.19048C10.3854 4.12048 10.8764 3.87248 11.3354 3.15848C11.408 3.04853 11.5068 2.9583 11.6228 2.89588C11.7389 2.83346 11.8686 2.80078 12.0004 2.80078C12.1322 2.80078 12.2619 2.83346 12.3779 2.89588C12.494 2.9583 12.5928 3.04853 12.6654 3.15848C13.1244 3.87248 13.6154 4.12148 14.0324 4.19048C14.4724 4.26248 14.9044 4.14748 15.2374 4.00148C15.3685 3.94671 15.5114 3.9265 15.6525 3.94279C15.7937 3.95907 15.9282 4.0113 16.0434 4.09448C16.1671 4.17949 16.2637 4.29839 16.3215 4.43692C16.3793 4.57546 16.396 4.72774 16.3694 4.87548L15.9194 7.21148C15.903 7.29727 15.8643 7.37726 15.8074 7.44348L15.8064 7.44548L15.8054 7.44648L15.8024 7.44948L15.7964 7.45648C15.7757 7.47913 15.754 7.50082 15.7314 7.52148C15.6779 7.57015 15.6218 7.61589 15.5634 7.65848C15.4694 7.72981 15.3444 7.80648 15.1884 7.88848C15.2064 7.94515 15.2237 8.00248 15.2404 8.06048C15.6706 7.72437 16.1943 7.52971 16.7396 7.50326C17.2848 7.47681 17.8249 7.61985 18.2856 7.91274C18.7463 8.20564 19.105 8.634 19.3124 9.13898C19.5199 9.64397 19.5658 10.2008 19.444 10.7329C19.3222 11.2651 19.0385 11.7465 18.6321 12.1109C18.2256 12.4754 17.7163 12.705 17.1741 12.7683C16.6318 12.8316 16.0833 12.7255 15.6038 12.4644C15.1244 12.2034 14.7375 11.8003 14.4964 11.3105C14.168 11.684 13.7637 11.9833 13.3106 12.1883C12.8574 12.3933 12.3658 12.4994 11.8684 12.4995C11.3708 12.4995 10.879 12.3935 10.4257 12.1885C9.97233 11.9835 9.56791 11.6841 9.23939 11.3105C8.99827 11.8003 8.61141 12.2034 8.13194 12.4644C7.65248 12.7255 7.10394 12.8316 6.56171 12.7683C6.01947 12.705 5.51013 12.4754 5.10368 12.1109C4.69723 11.7465 4.41361 11.2651 4.29179 10.7329C4.16997 10.2008 4.21592 9.64397 4.42334 9.13898C4.63075 8.634 4.98945 8.20564 5.45015 7.91274C5.91085 7.61985 6.45094 7.47681 6.99622 7.50326C7.5415 7.52971 8.06521 7.72437 8.49539 8.06048C8.52339 7.95915 8.55572 7.86015 8.59239 7.76348ZM10.1324 5.17648C9.64522 5.25094 9.14722 5.20423 8.68239 5.04048L9.03039 6.85348C9.08339 6.89148 9.16139 6.94348 9.27039 6.99948C9.33888 6.99957 9.40661 7.01374 9.4694 7.04109C9.53218 7.06844 9.58868 7.10839 9.63539 7.15848C10.1054 7.33048 10.8574 7.49948 12.0004 7.49948C12.8994 7.49948 13.5554 7.39548 14.0244 7.26648C14.0818 7.15593 14.1785 7.07094 14.2956 7.02834C14.4126 6.98575 14.5414 6.98865 14.6564 7.03648C14.7664 6.98514 14.8715 6.92389 14.9704 6.85348L15.3194 5.04048C14.8546 5.20423 14.3566 5.25094 13.8694 5.17648C13.2134 5.06848 12.5594 4.70448 12.0004 3.95348C11.4424 4.70448 10.7874 5.06848 10.1314 5.17648M9.50739 8.17148C9.37371 8.55309 9.3346 8.96143 9.39339 9.36148C9.43139 9.48682 9.46072 9.61548 9.48139 9.74748C9.64102 10.2556 9.95869 10.6995 10.3881 11.0145C10.8176 11.3295 11.3364 11.4992 11.869 11.4989C12.4016 11.4986 12.9202 11.3282 13.3492 11.0127C13.7783 10.6971 14.0954 10.2528 14.2544 9.74448C14.2744 9.61448 14.3031 9.48815 14.3404 9.36548C14.3964 8.98885 14.3656 8.60441 14.2504 8.24148C13.6904 8.39148 12.9544 8.49948 12.0004 8.49948C10.9004 8.49948 10.0914 8.35548 9.50739 8.17148ZM15.3154 9.60148C15.2947 9.72148 15.2681 9.83915 15.2354 9.95448C15.2287 10.0158 15.2254 10.0785 15.2254 10.1425C15.2263 10.5545 15.382 10.9511 15.6615 11.2537C15.9411 11.5563 16.3241 11.7428 16.7347 11.7764C17.1453 11.8099 17.5535 11.6879 17.8785 11.4347C18.2034 11.1814 18.4213 10.8153 18.489 10.4089C18.5568 10.0026 18.4693 9.58557 18.2441 9.24061C18.0189 8.89564 17.6723 8.64788 17.273 8.54642C16.8737 8.44496 16.4509 8.49721 16.0883 8.6928C15.7257 8.8884 15.4499 9.21208 15.3154 9.60148ZM8.50039 9.95948C8.46753 9.84081 8.44017 9.72068 8.41839 9.59948C8.27971 9.20303 7.99455 8.87468 7.62143 8.68183C7.24831 8.48898 6.81553 8.44625 6.41191 8.56241C6.00828 8.67858 5.66442 8.94482 5.45089 9.3065C5.23736 9.66819 5.17036 10.0979 5.26364 10.5074C5.35692 10.9169 5.60341 11.2752 5.95251 11.5087C6.30161 11.7423 6.72686 11.8333 7.14098 11.7632C7.5551 11.6931 7.92668 11.4672 8.17947 11.1318C8.43227 10.7963 8.54709 10.3769 8.50039 9.95948ZM5.72039 13.4825C5.59349 13.3864 5.44677 13.3199 5.2909 13.2877C5.13503 13.2555 4.97395 13.2585 4.81939 13.2965C4.66487 13.3381 4.51148 13.3837 4.35939 13.4335L3.67439 13.6585C3.25399 13.7948 2.87491 14.0353 2.57243 14.3575C2.26995 14.6798 2.0539 15.0733 1.94439 15.5015L1.93739 15.5285L1.64639 17.6345C1.53339 18.4505 1.97139 19.3085 2.86639 19.5215C3.11372 19.5821 3.40839 19.6405 3.75039 19.6965C3.81526 19.707 3.88157 19.7046 3.94552 19.6895C4.00948 19.6744 4.06983 19.6468 4.12313 19.6084C4.17643 19.5699 4.22164 19.5214 4.25617 19.4654C4.2907 19.4095 4.31388 19.3474 4.32439 19.2825C4.3349 19.2176 4.33252 19.1513 4.3174 19.0873C4.30228 19.0234 4.27471 18.963 4.23627 18.9097C4.19783 18.8564 4.14926 18.8112 4.09335 18.7767C4.03743 18.7422 3.97526 18.719 3.91039 18.7085C3.63748 18.6654 3.36628 18.612 3.09739 18.5485C2.79339 18.4765 2.58139 18.1745 2.63739 17.7715L2.92039 15.7225C3.06139 15.2025 3.46039 14.7825 3.98639 14.6085L4.67139 14.3835C4.80472 14.3401 4.93839 14.3001 5.07239 14.2635L5.07939 14.2655C5.09865 14.2717 5.11686 14.2808 5.13339 14.2925C5.26239 14.3855 5.43639 14.4975 5.65039 14.6005C5.76915 14.6539 5.90404 14.6588 6.02638 14.6143C6.14873 14.5697 6.24887 14.4792 6.30553 14.362C6.36219 14.2448 6.37089 14.1101 6.32978 13.9865C6.28867 13.863 6.20099 13.7604 6.08539 13.7005C5.95751 13.6388 5.83537 13.5658 5.72039 13.4825ZM18.1484 13.4825C18.3744 13.3185 18.7024 13.2045 19.0484 13.2965C19.2031 13.3378 19.3564 13.3835 19.5084 13.4335L20.1944 13.6585C21.0494 13.9395 21.7044 14.6335 21.9244 15.5015L21.9304 15.5285L22.2224 17.6345C22.3354 18.4505 21.8964 19.3085 21.0024 19.5215C20.7551 19.5821 20.4601 19.6405 20.1174 19.6965C20.0525 19.7069 19.9862 19.7045 19.9223 19.6893C19.8584 19.6741 19.798 19.6465 19.7448 19.608C19.6915 19.5695 19.6464 19.5209 19.6119 19.465C19.5774 19.409 19.5543 19.3469 19.5439 19.282C19.5334 19.2171 19.5359 19.1508 19.5511 19.0869C19.5662 19.023 19.5939 18.9626 19.6324 18.9094C19.6709 18.8561 19.7195 18.811 19.7754 18.7765C19.8313 18.742 19.8935 18.7189 19.9584 18.7085C20.2771 18.6565 20.5481 18.6031 20.7714 18.5485C21.0744 18.4765 21.2874 18.1745 21.2314 17.7715L20.9484 15.7225C20.8764 15.4632 20.7414 15.2258 20.5554 15.0315C20.3694 14.8371 20.1382 14.6918 19.8824 14.6085L19.1964 14.3835C19.0643 14.3395 18.9309 14.2995 18.7964 14.2635L18.7934 14.2645H18.7884C18.7694 14.2711 18.7515 14.2805 18.7354 14.2925C18.5725 14.4102 18.3995 14.5133 18.2184 14.6005C18.0996 14.6539 17.9647 14.6588 17.8424 14.6143C17.7201 14.5697 17.6199 14.4792 17.5632 14.362C17.5066 14.2448 17.4979 14.1101 17.539 13.9865C17.5801 13.863 17.6678 13.7604 17.7834 13.7005C17.9344 13.6275 18.0584 13.5475 18.1484 13.4825Z" fill="white"/>
<path d="M15.0345 13.6552C14.5185 13.5092 14.0165 13.6822 13.6585 13.9202C13.2755 14.1742 12.6445 14.4862 11.8665 14.4862C11.0885 14.4862 10.4585 14.1742 10.0765 13.9202C9.71652 13.6822 9.21652 13.5102 8.69952 13.6552C8.54285 13.6992 8.38719 13.7469 8.23252 13.7982L7.27252 14.1132C6.71607 14.2939 6.21434 14.6124 5.81397 15.039C5.41359 15.4656 5.12758 15.9865 4.98252 16.5532L4.97852 16.5702L4.64152 18.4442C4.44552 19.5342 5.01452 20.6772 6.18852 20.9512C7.34252 21.2212 9.18652 21.5002 11.8675 21.5002C14.5485 21.5002 16.3915 21.2202 17.5455 20.9512C18.7205 20.6772 19.2885 19.5342 19.0925 18.4442L18.7555 16.5702L18.7515 16.5532C18.6065 15.9865 18.3204 15.4656 17.9201 15.039C17.5197 14.6124 17.018 14.2939 16.4615 14.1132L15.5015 13.7982C15.3469 13.7469 15.1912 13.6992 15.0345 13.6552ZM14.2115 14.7532C14.4215 14.6132 14.6215 14.5772 14.7625 14.6172C14.9059 14.6572 15.0482 14.7006 15.1895 14.7472L16.1495 15.0632C16.5428 15.1914 16.8978 15.4159 17.1821 15.7163C17.4664 16.0168 17.6711 16.3835 17.7775 16.7832L18.1075 18.6212C18.2275 19.2862 17.8815 19.8462 17.3185 19.9772C16.2455 20.2272 14.4785 20.5002 11.8675 20.5002C9.25652 20.5002 7.48852 20.2282 6.41552 19.9772C5.85252 19.8462 5.50552 19.2862 5.62552 18.6212L5.95552 16.7822C6.06127 16.3819 6.26596 16.0146 6.55079 15.714C6.83562 15.4134 7.19143 15.1893 7.58552 15.0622L8.54552 14.7482C8.68552 14.7016 8.82752 14.6582 8.97152 14.6182C9.11252 14.5782 9.31152 14.6132 9.52252 14.7532C10.0005 15.0702 10.8225 15.4862 11.8675 15.4862C12.9105 15.4862 13.7335 15.0702 14.2115 14.7532Z" fill="white"/>
</svg>
