<svg width="24" height="24" viewBox="0 0 24 24" fill="none" xmlns="http://www.w3.org/2000/svg">
<path d="M14.187 16.8651L12.1431 14.8212C12.0335 14.7151 11.9465 14.5881 11.887 14.4477C11.8275 14.3074 11.7969 14.1565 11.7969 14.004C11.7969 13.8515 11.8275 13.7006 11.887 13.5603C11.9465 13.4199 12.0335 13.2929 12.1431 13.1868L15.1646 10.7963C15.3881 10.5931 15.6793 10.4805 15.9813 10.4805C16.2834 10.4805 16.5745 10.5931 16.798 10.7963L18.5754 12.5737C19.0835 13.0814 19.4663 13.7006 19.6934 14.3821L20.1635 15.796L22.0022 17.6339" stroke="white" stroke-width="1.33304" stroke-linecap="round" stroke-linejoin="round"/>
<path d="M12.8005 15.466L12.4148 15.8508C12.2486 16.0169 12.117 16.2143 12.0276 16.4315C11.9382 16.6488 11.8928 16.8817 11.8939 17.1166C11.8951 17.3516 11.9428 17.584 12.0344 17.8004C12.1259 18.0168 12.2595 18.2128 12.4273 18.3773L13.2058 19.1398L15.8265 20.1262L17.6643 21.9641M9.81363 7.13803L11.8576 9.18202C11.9671 9.28808 12.0542 9.41507 12.1137 9.55545C12.1732 9.69582 12.2038 9.84672 12.2038 9.99917C12.2038 10.1516 12.1732 10.3025 12.1137 10.4429C12.0542 10.5833 11.9671 10.7103 11.8576 10.8163L8.83607 13.2069C8.6126 13.4101 8.32141 13.5227 8.01936 13.5227C7.71732 13.5227 7.42613 13.4101 7.20266 13.2069L5.42528 11.4295C4.91896 10.9218 4.53774 10.3033 4.31175 9.62281L3.84163 8.20891L2.00293 6.37109" stroke="white" stroke-width="1.33304" stroke-linecap="round" stroke-linejoin="round"/>
<path d="M11.2048 8.53682L11.5905 8.15201C11.7567 7.98591 11.8883 7.78852 11.9777 7.57123C12.0671 7.35395 12.1125 7.1211 12.1114 6.88614C12.1102 6.65119 12.0625 6.41879 11.971 6.2024C11.8794 5.98601 11.7459 5.78992 11.5781 5.62547L10.7996 4.86297L8.17883 3.87297L6.34101 2.03516M17.7767 5.36775L19.1097 4.03471M15.1106 4.03471V2.25733M19.1097 8.03382H20.8871M5.77936 17.3651L4.44633 18.6981M8.44543 18.6981V20.4755M4.44633 14.699H2.66895" stroke="white" stroke-width="1.33304" stroke-linecap="round" stroke-linejoin="round"/>
</svg>
