<svg width="24" height="24" viewBox="0 0 24 24" fill="none" xmlns="http://www.w3.org/2000/svg">
<path d="M2.99902 17.0013C2.99902 17.6201 3.24486 18.2136 3.68244 18.6512C4.12003 19.0888 4.71352 19.3346 5.33236 19.3346C5.9512 19.3346 6.54469 19.0888 6.98227 18.6512C7.41986 18.2136 7.66569 17.6201 7.66569 17.0013C7.66569 16.3825 7.41986 15.789 6.98227 15.3514C6.54469 14.9138 5.9512 14.668 5.33236 14.668C4.71352 14.668 4.12003 14.9138 3.68244 15.3514C3.24486 15.789 2.99902 16.3825 2.99902 17.0013Z" stroke="white" stroke-width="1.33333" stroke-linecap="round" stroke-linejoin="round"/>
<path d="M8.66569 22.0013C8.34348 21.3972 7.86313 20.8919 7.27601 20.5397C6.68888 20.1874 6.01706 20.0013 5.33236 20.0013C4.64766 20.0013 3.97583 20.1874 3.38871 20.5397C2.80158 20.8919 2.32123 21.3972 1.99902 22.0013M16.3324 17.0013C16.3324 17.3077 16.3927 17.6111 16.51 17.8942C16.6272 18.1773 16.7991 18.4345 17.0158 18.6512C17.2324 18.8679 17.4897 19.0398 17.7728 19.157C18.0559 19.2743 18.3593 19.3346 18.6657 19.3346C18.9721 19.3346 19.2755 19.2743 19.5586 19.157C19.8417 19.0398 20.0989 18.8679 20.3156 18.6512C20.5323 18.4345 20.7041 18.1773 20.8214 17.8942C20.9387 17.6111 20.999 17.3077 20.999 17.0013C20.999 16.3825 20.7532 15.789 20.3156 15.3514C19.878 14.9138 19.2845 14.668 18.6657 14.668C18.0468 14.668 17.4534 14.9138 17.0158 15.3514C16.5782 15.789 16.3324 16.3825 16.3324 17.0013Z" stroke="white" stroke-width="1.33333" stroke-linecap="round" stroke-linejoin="round"/>
<path d="M21.9993 22C21.6771 21.3959 21.1967 20.8906 20.6096 20.5384C20.0225 20.1861 19.3506 20 18.6659 20C17.9812 20 17.3094 20.1861 16.7223 20.5384C16.1352 20.8906 15.6548 21.3959 15.3326 22M14.8873 8.66667C14.5309 8.24853 14.0881 7.91273 13.5893 7.68246C13.0906 7.45219 12.5477 7.33293 11.9984 7.33293C11.449 7.33293 10.9062 7.45219 10.4074 7.68246C9.90865 7.91273 9.4658 8.24853 9.10948 8.66667M9.37793 18.8507C11.0804 19.4995 12.963 19.4938 14.6615 18.8347M6.97615 6.66667C6.24653 7.35023 5.66496 8.17626 5.26743 9.09363C4.8699 10.011 4.66488 11.0002 4.66504 12C4.66504 12.2249 4.67837 12.4444 4.69882 12.6667M19.2988 12.6667C19.3184 12.4462 19.3326 12.2222 19.3326 12C19.3328 11.0002 19.1277 10.011 18.7302 9.09363C18.3327 8.17626 17.7511 7.35023 17.0215 6.66667M9.66593 4.33333C9.66593 4.63975 9.72628 4.94317 9.84354 5.22626C9.9608 5.50935 10.1327 5.76658 10.3493 5.98325C10.566 6.19992 10.8232 6.37179 11.1063 6.48905C11.3894 6.60631 11.6928 6.66667 11.9993 6.66667C12.3057 6.66667 12.6091 6.60631 12.8922 6.48905C13.1753 6.37179 13.4325 6.19992 13.6492 5.98325C13.8658 5.76658 14.0377 5.50935 14.155 5.22626C14.2722 4.94317 14.3326 4.63975 14.3326 4.33333C14.3326 3.71449 14.0868 3.121 13.6492 2.68342C13.2116 2.24583 12.6181 2 11.9993 2C11.3804 2 10.7869 2.24583 10.3493 2.68342C9.91176 3.121 9.66593 3.71449 9.66593 4.33333Z" stroke="white" stroke-width="1.33333" stroke-linecap="round" stroke-linejoin="round"/>
</svg>
