<svg width="32" height="32" viewBox="0 0 32 32" fill="none" xmlns="http://www.w3.org/2000/svg">
<circle cx="15.7241" cy="15.7241" r="15.7241" fill="#F38126"/>
<path fill-rule="evenodd" clip-rule="evenodd" d="M13.2521 16.521L17.6081 13.86C17.7778 13.7577 17.9811 13.7267 18.1736 13.7737C18.3661 13.8208 18.5321 13.9422 18.6354 14.1113C18.7387 14.2804 18.7709 14.4835 18.7249 14.6762C18.679 14.869 18.5586 15.0357 18.3901 15.14L14.5841 17.465L17.7681 20.65C17.9105 20.7921 18.0863 20.896 18.2793 20.9524C18.4724 21.0088 18.6765 21.0158 18.8729 20.9726C19.0694 20.9295 19.2518 20.8377 19.4035 20.7057C19.5552 20.5737 19.6713 20.4056 19.7411 20.217L22.4331 12.909C22.4917 12.751 22.5111 12.5812 22.4898 12.414C22.4685 12.2469 22.4071 12.0873 22.3109 11.949C22.2146 11.8107 22.0863 11.6977 21.937 11.6197C21.7876 11.5417 21.6216 11.501 21.4531 11.501H21.3481C21.2475 11.501 21.1481 11.5143 21.0501 11.541L10.0201 14.509C9.86662 14.5509 9.73174 14.6434 9.63731 14.7714C9.54287 14.8995 9.49439 15.0557 9.49971 15.2147C9.50503 15.3737 9.56384 15.5263 9.66662 15.6477C9.76941 15.7692 9.91016 15.8524 10.0661 15.884L13.2521 16.521ZM9.77212 17.355L12.9981 18L16.7081 21.71C17.0286 22.0298 17.4242 22.2638 17.8588 22.3906C18.2933 22.5175 18.7528 22.533 19.1949 22.4358C19.6371 22.3386 20.0477 22.1318 20.389 21.8345C20.7303 21.5371 20.9913 21.1587 21.1481 20.734L23.8411 13.426C23.9834 13.0412 24.0304 12.6276 23.9783 12.2207C23.9261 11.8137 23.7763 11.4254 23.5417 11.0889C23.307 10.7523 22.9944 10.4775 22.6305 10.2879C22.2667 10.0983 21.8624 9.99955 21.4521 10H21.3481C21.1161 10 20.8841 10.03 20.6601 10.091L9.63012 13.061C9.15008 13.191 8.72802 13.4793 8.43236 13.8792C8.1367 14.2791 7.98477 14.7672 8.00121 15.2642C8.01764 15.7613 8.20148 16.2382 8.52292 16.6177C8.84435 16.9972 9.28454 17.257 9.77212 17.355Z" fill="white"/>
</svg>
