<svg width="24" height="24" viewBox="0 0 24 24" fill="none" xmlns="http://www.w3.org/2000/svg">
<path d="M20.0438 6.62171H17.0354C16.9776 6.62172 16.921 6.60507 16.8725 6.57377C16.8239 6.54247 16.7854 6.49783 16.7615 6.4452C16.7376 6.39258 16.7294 6.33418 16.7379 6.27702C16.7463 6.21985 16.7711 6.16633 16.8091 6.12286L19.545 2.99573C19.5831 2.9521 19.6337 2.92115 19.6899 2.90702C19.7461 2.89289 19.8053 2.89627 19.8595 2.91668C19.9137 2.9371 19.9604 2.97359 19.9934 3.02128C20.0263 3.06896 20.0439 3.12557 20.0438 3.18352V6.62171ZM20.0438 6.62171H20.8711M20.0438 6.62171V7.86263M2.87109 7.86263C2.87109 5.57809 4.72338 3.72622 7.0075 3.72622H7.24328C7.49127 3.72626 7.73355 3.8006 7.93889 3.93965C8.14422 4.07871 8.30318 4.27609 8.39527 4.50635L9.41531 7.05644C9.53554 7.35711 9.5649 7.68645 9.49976 8.00365C9.43461 8.32084 9.27782 8.61195 9.04882 8.84089L7.77646 10.1137C7.57254 10.3176 7.4865 10.6142 7.57006 10.8905C7.96687 12.1899 8.67685 13.3719 9.63757 14.3327C10.5983 15.2934 11.7803 16.0034 13.0798 16.4002C13.3561 16.4841 13.6526 16.3981 13.857 16.1942L15.1293 14.9214C15.3583 14.6925 15.6495 14.5358 15.9667 14.4707C16.2838 14.4056 16.6132 14.4351 16.9138 14.5553L19.4643 15.5754C19.6945 15.6675 19.8918 15.8265 20.0308 16.0318C20.1697 16.2372 20.244 16.4794 20.244 16.7274V16.9627C20.244 19.2473 18.3921 21.0991 16.1076 21.0991H15.9008C8.82339 21.0991 3.06385 15.4563 2.87606 8.42435C2.87592 8.42232 2.87504 8.4204 2.87358 8.41898C2.87211 8.41755 2.87123 8.41564 2.87109 8.4136V7.86263Z" stroke="white" stroke-width="1.24092" stroke-linecap="round" stroke-linejoin="round"/>
<path d="M15.0796 7.86213H11.7705V7.15687C11.7705 6.91566 11.8408 6.67969 11.9729 6.47781C12.1049 6.27594 12.2929 6.11691 12.5138 6.02019L14.3554 5.21441C14.6097 5.10315 14.8179 4.90775 14.9451 4.66105C15.0723 4.41434 15.1108 4.13136 15.0539 3.85967C14.9971 3.58797 14.8485 3.34411 14.6331 3.16906C14.4177 2.99402 14.1486 2.89846 13.871 2.89844H13.0114C12.7547 2.8983 12.5043 2.9778 12.2946 3.12596C12.0849 3.27413 11.9264 3.48367 11.8408 3.72572" stroke="white" stroke-width="1.24092" stroke-linecap="round" stroke-linejoin="round"/>
</svg>
