<svg width="24" height="24" viewBox="0 0 24 24" fill="none" xmlns="http://www.w3.org/2000/svg">
<path d="M8 7.33247C8 7.80396 8.1873 8.25615 8.5207 8.58954C8.8541 8.92294 9.30628 9.11024 9.77778 9.11024C10.2493 9.11024 10.7015 8.92294 11.0349 8.58954C11.3683 8.25615 11.5556 7.80396 11.5556 7.33247M8 7.33247C8 6.86097 8.1873 6.40878 8.5207 6.07539C8.8541 5.74199 9.30628 5.55469 9.77778 5.55469C10.2493 5.55469 10.7015 5.74199 11.0349 6.07539C11.3683 6.40878 11.5556 6.86097 11.5556 7.33247M8 7.33247H6M11.5556 7.33247H18M12.4444 12.6658C12.4444 13.1373 12.6317 13.5895 12.9651 13.9229C13.2985 14.2563 13.7507 14.4436 14.2222 14.4436C14.6937 14.4436 15.1459 14.2563 15.4793 13.9229C15.8127 13.5895 16 13.1373 16 12.6658M12.4444 12.6658C12.4444 12.1943 12.6317 11.7421 12.9651 11.4087C13.2985 11.0753 13.7507 10.888 14.2222 10.888C14.6937 10.888 15.1459 11.0753 15.4793 11.4087C15.8127 11.7421 16 12.1943 16 12.6658M12.4444 12.6658H6M16 12.6658H18M13.3333 17.9991C13.4091 19.4283 13.8698 20.8104 14.6667 21.9991H9.33333C10.1302 20.8104 10.5909 19.4283 10.6667 17.9991M7.33333 21.9991H16.6667" stroke="white" stroke-width="1.13" stroke-linecap="round" stroke-linejoin="round"/>
<path d="M3.33333 2H20.6667C20.6667 2 22 2 22 3.33333V16.6667C22 16.6667 22 18 20.6667 18H3.33333C3.33333 18 2 18 2 16.6667V3.33333C2 3.33333 2 2 3.33333 2Z" stroke="white" stroke-width="1.13" stroke-linecap="round" stroke-linejoin="round"/>
</svg>
