<svg width="40" height="40" viewBox="0 0 40 40" fill="none" xmlns="http://www.w3.org/2000/svg">
<path d="M13.7178 36.6667L21.8844 28.5L27.7178 34.3333L37.0511 25" stroke="#F38126" stroke-width="2.5"/>
<path d="M27.8837 25.001H37.0503V34.1676M24.0787 22.091C25.7471 19.853 26.5815 17.1026 26.4379 14.3149C26.2942 11.5272 25.1814 8.87718 23.2917 6.82264C21.402 4.76809 18.8541 3.43803 16.0881 3.06221C13.3221 2.68638 10.5117 3.2884 8.14232 4.76425C5.77296 6.24011 3.99343 8.49714 3.11114 11.1455C2.22885 13.7938 2.29919 16.6671 3.31002 19.2691C4.32085 21.871 6.20868 24.0383 8.64743 25.3964C11.0862 26.7546 13.9227 27.2183 16.667 26.7076M14.4787 9.92929V6.59595M14.4787 23.2626V19.9293" stroke="#F38126" stroke-width="2.5"/>
<path d="M18.2275 12.4277V11.5944C18.2275 11.1524 18.0519 10.7285 17.7394 10.4159C17.4268 10.1033 17.0029 9.92773 16.5609 9.92773H12.3942C11.9522 9.92773 11.5283 10.1033 11.2157 10.4159C10.9031 10.7285 10.7275 11.1524 10.7275 11.5944V12.3394C10.7272 12.7188 10.8564 13.087 11.0937 13.3831C11.331 13.6792 11.6622 13.8854 12.0325 13.9677L16.9209 15.0544C17.2913 15.1363 17.6227 15.3422 17.8602 15.638C18.0978 15.9337 18.2274 16.3017 18.2275 16.6811V18.2594C18.2275 18.7014 18.0519 19.1254 17.7394 19.4379C17.4268 19.7505 17.0029 19.9261 16.5609 19.9261H12.3942C11.9522 19.9261 11.5283 19.7505 11.2157 19.4379C10.9031 19.1254 10.7275 18.7014 10.7275 18.2594V17.4261" stroke="#F38126" stroke-width="2.5"/>
</svg>
