<svg width="16" height="14" viewBox="0 0 16 14" fill="none" xmlns="http://www.w3.org/2000/svg">
<path d="M15.3369 5.60044C15.3534 5.54144 15.3729 5.48394 15.3869 5.42394L15.3939 5.38794C15.5369 4.81137 15.5365 4.20855 15.3926 3.63222C15.2486 3.05588 14.9657 2.52359 14.5684 2.08194C14.2024 1.58935 13.7254 1.19007 13.176 0.91657C12.6267 0.64307 12.0206 0.503064 11.4069 0.507935H11.3809C11.3309 0.507935 11.2749 0.511436 11.2219 0.512936H11.1614C10.1048 0.571942 9.05447 0.714724 8.02042 0.939936L5.78192 0.582435H5.76442C4.69824 0.398043 3.60101 0.573965 2.64592 1.08244C2.10813 1.40715 1.6461 1.84326 1.29092 2.36144L1.27042 2.38894L1.25792 2.40644C0.788548 3.10272 0.533315 3.92119 0.523718 4.76085C0.514122 5.60051 0.750584 6.42461 1.20392 7.13143C1.19442 7.14843 1.18892 7.16744 1.17992 7.18494C1.13663 7.27164 1.0997 7.36138 1.06942 7.45344C1.05342 7.50344 1.04142 7.55644 1.02992 7.60844C1.02059 7.65077 1.01259 7.6931 1.00592 7.73544C0.999421 7.78837 0.995749 7.84161 0.994921 7.89494C0.994921 7.93794 0.989921 7.97994 0.991921 8.02244C0.995254 8.07844 1.00159 8.1341 1.01092 8.18944C1.01692 8.22894 1.01992 8.26844 1.02892 8.30744C1.04425 8.3691 1.06359 8.42944 1.08692 8.48844C1.09842 8.51994 1.10592 8.55244 1.11992 8.58344C1.16092 8.6751 1.21092 8.76144 1.26992 8.84244C1.4962 9.16629 1.82997 9.39943 2.21192 9.50044C2.19774 9.71364 2.23327 9.92722 2.3157 10.1243C2.39813 10.3215 2.5252 10.4968 2.68692 10.6364C2.97347 10.8874 3.32486 11.0527 3.70092 11.1134C3.77842 11.3649 3.91442 11.5944 4.09742 11.7834C4.34714 12.0541 4.68454 12.2276 5.04992 12.2734C5.13692 12.5699 5.30192 12.8379 5.52792 13.0484C5.80642 13.3224 6.17942 13.4784 6.56992 13.4834C6.85703 13.4815 7.13896 13.4068 7.38942 13.2664C7.76142 13.4794 8.19742 13.5514 8.61842 13.4694C8.83943 13.4291 9.04884 13.3406 9.23178 13.2102C9.41472 13.0798 9.5667 12.9107 9.67692 12.7149C9.68742 12.6984 9.69342 12.6839 9.70292 12.6674C10.1279 12.7544 10.5704 12.6779 10.9419 12.4534C11.2686 12.269 11.5173 11.9723 11.6419 11.6184C12.0889 11.6244 12.5219 11.4634 12.8554 11.1659C13.038 11.0061 13.1798 10.805 13.269 10.5793C13.3582 10.3536 13.3923 10.1099 13.3684 9.86844C13.3684 9.85444 13.3649 9.84344 13.3639 9.82994C13.6249 9.75174 13.8596 9.60395 14.0429 9.40244C14.2799 9.15253 14.4325 8.83453 14.4791 8.49329C14.5258 8.15205 14.4641 7.80478 14.3029 7.50044C14.7526 6.98116 15.0927 6.3764 15.3029 5.72244C15.3149 5.68394 15.3249 5.64194 15.3369 5.60044ZM14.4809 4.75044C14.4558 5.00181 14.4006 5.24925 14.3164 5.48744L14.3004 5.53744C14.1341 5.98218 13.8945 6.3959 13.5914 6.76144C12.0229 5.39244 9.74142 3.39444 9.55392 3.21544C9.33732 3.00818 9.04969 2.89156 8.74992 2.88944C8.65693 2.88834 8.56433 2.90167 8.47542 2.92894C8.15842 3.02894 7.37942 3.27894 6.69942 3.53144C6.43942 3.62794 6.14242 3.38144 6.05192 3.17144C5.99192 3.04544 5.98192 2.90144 6.02292 2.76844C6.10442 2.62094 6.24142 2.51144 6.40342 2.46444C7.94153 1.9238 9.54852 1.60395 11.1764 1.51444H11.2369C11.2924 1.51444 11.3474 1.51044 11.3984 1.50944C11.7718 1.50357 12.1425 1.57384 12.4879 1.71594C13.0003 1.94877 13.45 2.3001 13.7999 2.74094C14.1133 3.09449 14.332 3.52157 14.4359 3.98244L14.4404 4.00544C14.4649 4.12845 14.4801 4.25314 14.4859 4.37844C14.4874 4.41894 14.4899 4.46994 14.4899 4.51494C14.4899 4.58744 14.4899 4.65944 14.4814 4.73094L14.4809 4.75044ZM2.00342 8.07994C2.00042 8.05794 1.99925 8.03544 1.99992 8.01244C1.99451 7.96425 1.99451 7.91562 1.99992 7.86743C2.00587 7.83914 2.01304 7.81111 2.02142 7.78344C2.03175 7.73877 2.04609 7.6956 2.06442 7.65393C2.08109 7.62393 2.09992 7.59527 2.12092 7.56794C2.15092 7.5186 2.18675 7.47444 2.22842 7.43544L2.23142 7.43294L3.17192 6.63544C3.23441 6.58732 3.30577 6.55199 3.38192 6.53147C3.45807 6.51095 3.53752 6.50565 3.61573 6.51587C3.69393 6.52609 3.76935 6.55162 3.83768 6.59101C3.906 6.6304 3.96589 6.68288 4.01392 6.74544C4.04914 6.79652 4.07199 6.8551 4.08067 6.91654C4.08935 6.97798 4.08361 7.04059 4.06392 7.09944L2.58892 8.53644C2.48712 8.53816 2.3866 8.51351 2.29714 8.46489C2.20768 8.41626 2.13234 8.34531 2.07842 8.25894C2.0407 8.20543 2.0151 8.14435 2.00342 8.07994ZM3.26142 9.27744L4.87992 7.70044L4.87242 7.69294C4.96363 7.64802 5.06636 7.63197 5.16692 7.64693C5.29542 7.68193 5.41142 7.75394 5.49992 7.85394C5.58792 7.92894 5.64692 8.03194 5.66692 8.14594C5.67436 8.26143 5.64905 8.37668 5.59392 8.47844L5.58092 8.52094L3.94542 10.1144C3.83066 10.1195 3.71615 10.0998 3.60968 10.0567C3.50321 10.0135 3.40729 9.94796 3.32842 9.86444C3.26365 9.78256 3.22305 9.68421 3.21121 9.58049C3.19937 9.47677 3.21676 9.3718 3.26142 9.27744ZM4.65392 10.8199L6.34392 9.17544C6.45142 9.19694 6.54992 9.25194 6.62492 9.33244C6.72857 9.42319 6.80071 9.54452 6.83092 9.67894C6.83856 9.73676 6.83602 9.79548 6.82342 9.85244L5.36192 11.2749C5.26442 11.2929 5.16393 11.2859 5.06991 11.2544C4.97589 11.2229 4.89142 11.168 4.82442 11.0949C4.74629 11.0183 4.6878 10.924 4.65392 10.8199ZM6.22242 12.3259C6.13177 12.2463 6.06032 12.1471 6.01342 12.0359L7.39392 10.6924C7.49242 10.7249 7.58242 10.7784 7.65792 10.8489C7.72842 10.9052 7.78162 10.9803 7.81142 11.0654C7.8284 11.1285 7.8284 11.1949 7.81142 11.2579C7.74923 11.4597 7.64512 11.6461 7.50592 11.8049L7.12792 12.2449H7.13092C7.11842 12.2529 7.10442 12.2564 7.09292 12.2654C6.95198 12.3941 6.77056 12.4696 6.57992 12.4789C6.44534 12.4766 6.31701 12.4217 6.22242 12.3259ZM8.45942 12.4794C8.38542 12.4911 8.31109 12.4944 8.23642 12.4894L8.27342 12.4464L8.28542 12.4319L8.28592 12.4324C8.43731 12.245 8.56556 12.04 8.66792 11.8219L8.88892 12.0559C8.87059 12.1033 8.84892 12.1488 8.82392 12.1924C8.78831 12.2644 8.73711 12.3274 8.67406 12.3771C8.61101 12.4267 8.53769 12.4617 8.45942 12.4794ZM11.6594 10.6169L10.7699 9.63144C10.6935 9.54207 10.5881 9.4825 10.4721 9.46323C10.3561 9.44395 10.2371 9.46619 10.1359 9.52604C10.0347 9.58589 9.95789 9.67952 9.91893 9.79043C9.87998 9.90135 9.88139 10.0225 9.92292 10.1324C9.94607 10.1948 9.98142 10.2519 10.0269 10.3004L10.7449 11.1004C10.7399 11.1518 10.7294 11.2018 10.7134 11.2504C10.6717 11.392 10.5767 11.512 10.4484 11.5849C10.2921 11.6875 10.1024 11.7261 9.91842 11.6929L9.31842 11.0559C9.25375 10.9877 9.17096 10.9392 9.07976 10.9163C8.98855 10.8933 8.8927 10.8969 8.80342 10.9264C8.79529 10.8779 8.78477 10.8299 8.77192 10.7824C8.68928 10.5212 8.53574 10.2881 8.32842 10.1089C8.18326 9.97617 8.01676 9.86884 7.83592 9.79144C7.83872 9.69843 7.83286 9.60536 7.81842 9.51344C7.75385 9.17299 7.58279 8.86185 7.32992 8.62494C7.14607 8.43872 6.91873 8.30125 6.66842 8.22494C6.67109 8.15827 6.66859 8.0916 6.66092 8.02494C6.61407 7.68821 6.45311 7.37776 6.20492 7.14544C5.97886 6.9087 5.6884 6.74339 5.36942 6.66994C5.26092 6.64898 5.15026 6.64142 5.03992 6.64744C5.00077 6.46168 4.92141 6.28674 4.80742 6.13493C4.67906 5.96824 4.51908 5.82849 4.33664 5.7237C4.1542 5.61891 3.95288 5.55113 3.74422 5.52424C3.53555 5.49735 3.32363 5.51188 3.12058 5.56699C2.91753 5.62211 2.72735 5.71673 2.56092 5.84544L2.54342 5.85944L1.92592 6.37944C1.63627 5.8522 1.49766 5.25528 1.52536 4.65435C1.55306 4.05343 1.74599 3.47179 2.08292 2.97344L2.09342 2.95844C2.36727 2.55031 2.72636 2.20641 3.14592 1.95044C3.91138 1.5517 4.78793 1.41956 5.63692 1.57494L5.86892 1.61194C5.52627 1.76654 5.25253 2.04189 5.09992 2.38544C5.02617 2.57397 4.99109 2.77542 4.99676 2.97779C5.00243 3.18016 5.04873 3.37932 5.13292 3.56344C5.28269 3.9257 5.56202 4.21919 5.91643 4.38669C6.27085 4.55419 6.67494 4.58369 7.04992 4.46944C7.70992 4.22494 8.46692 3.97944 8.74992 3.88994C8.77242 3.88919 8.79481 3.89353 8.81541 3.90262C8.83601 3.9117 8.8543 3.92531 8.86892 3.94244C9.11342 4.17244 12.0649 6.75594 13.2979 7.83044L13.3979 7.91594C13.4756 8.0417 13.5088 8.18988 13.4922 8.33675C13.4756 8.48362 13.4102 8.62066 13.3064 8.72594C13.2352 8.80272 13.1416 8.85519 13.0389 8.87594L12.1724 7.99744C12.0781 7.90766 11.9526 7.85805 11.8224 7.85905C11.6922 7.86006 11.5675 7.91162 11.4746 8.00283C11.3817 8.09405 11.3279 8.2178 11.3245 8.34796C11.3211 8.47812 11.3684 8.6045 11.4564 8.70044L12.2844 9.53944C12.2878 9.55444 12.2918 9.56927 12.2964 9.58394L12.3024 9.59944C12.3398 9.70621 12.3625 9.81756 12.3699 9.93044C12.3838 10.0162 12.3765 10.104 12.3485 10.1862C12.3205 10.2684 12.2728 10.3425 12.2094 10.4019C12.0599 10.5419 11.8624 10.6189 11.6579 10.6169H11.6594Z" fill="white"/>
</svg>
