<svg width="40" height="40" viewBox="0 0 40 40" fill="none" xmlns="http://www.w3.org/2000/svg">
<path d="M27.7175 22.567V17.4258H12.2825V22.567H2V38.002H38V22.567H27.7175ZM12.2825 36.2808H3.72125V24.2883H12.2825V36.2808ZM25.9962 36.2808H14.0038V19.147H25.9962V36.2808ZM36.29 36.2808H27.7175V24.2883H36.29V36.2808Z" fill="white"/>
<path d="M34.5691 25.9962H29.4279V27.7175H32.8591V29.4275H29.4279V31.1375H32.8591V32.8587H29.4279V34.5687H34.5691V25.9962ZM31.1491 8.85125H34.5691V10.5725H31.1491V8.85125ZM29.4279 2H31.1491V3.71H29.4279V2ZM27.7179 3.71H29.4279V5.43125H27.7179V3.71ZM22.5766 27.7175H20.8554V20.855H17.4354V22.565H19.1454V27.7175H17.4354V29.4275H22.5766V27.7175ZM19.1454 2H20.8554V5.43125H19.1454V2ZM12.2829 7.14125V13.9925H14.0041V15.7137H25.9966V13.9925H27.7179V7.14125H25.9966V8.85125H24.2866V10.5725H22.5766V8.85125H20.8554V7.14125H19.1454V8.85125H17.4354V10.5725H15.7141V8.85125H14.0041V7.14125H12.2829ZM22.5766 12.2825H24.2866V13.9925H22.5766V12.2825ZM19.1454 12.2825H20.8554V13.9925H19.1454V12.2825ZM15.7141 12.2825H17.4354V13.9925H15.7141V12.2825ZM10.5729 3.71H12.2829V5.43125H10.5729V3.71ZM8.86289 2H10.5729V3.71H8.86289V2ZM10.5729 32.8587H7.14164V31.1375H10.5729V25.9962H5.43164V27.7175H8.86289V29.4275H5.43164V34.5687H10.5729V32.8587ZM5.43164 8.85125H8.86289V10.5725H5.43164V8.85125Z" fill="white"/>
</svg>
