<svg width="32" height="32" viewBox="0 0 32 32" fill="none" xmlns="http://www.w3.org/2000/svg">
<circle cx="15.7241" cy="15.7241" r="15.7241" fill="#F38126"/>
<path d="M21.018 10.614C20.3432 9.93267 19.5397 9.39246 18.6541 9.02484C17.7685 8.65721 16.8186 8.46952 15.8598 8.4727C11.8421 8.4727 8.56766 11.7472 8.56766 15.7648C8.56766 17.0525 8.90614 18.3034 9.53896 19.4072L8.50879 23.1894L12.3719 22.1739C13.4389 22.7552 14.6383 23.0643 15.8598 23.0643C19.8774 23.0643 23.1519 19.7898 23.1519 15.7722C23.1519 13.8222 22.394 11.99 21.018 10.614ZM15.8598 21.8281C14.7707 21.8281 13.7038 21.5337 12.7693 20.9819L12.5485 20.8494L10.2527 21.4528L10.8635 19.2159L10.7163 18.9878C10.1111 18.0216 9.78982 16.9048 9.78914 15.7648C9.78914 12.4241 12.5117 9.70154 15.8524 9.70154C17.4712 9.70154 18.9944 10.3344 20.135 11.4823C20.6998 12.0443 21.1474 12.713 21.4518 13.4494C21.7562 14.1858 21.9114 14.9753 21.9083 15.7722C21.923 19.1128 19.2004 21.8281 15.8598 21.8281ZM19.1857 17.2953C19.0018 17.207 18.1041 16.7655 17.9422 16.6993C17.7729 16.6404 17.6552 16.611 17.5301 16.7876C17.405 16.9716 17.0592 17.3836 16.9562 17.5014C16.8531 17.6265 16.7428 17.6412 16.5588 17.5455C16.3748 17.4572 15.7862 17.2585 15.0945 16.6404C14.55 16.1548 14.1894 15.5588 14.079 15.3748C13.976 15.1909 14.0643 15.0952 14.16 14.9995C14.2409 14.9186 14.3439 14.7861 14.4322 14.6831C14.5205 14.5801 14.5573 14.4992 14.6162 14.3814C14.6751 14.2563 14.6456 14.1533 14.6015 14.065C14.5573 13.9767 14.1894 13.079 14.0423 12.7111C13.8951 12.3579 13.7406 12.402 13.6302 12.3947H13.277C13.1519 12.3947 12.9606 12.4388 12.7913 12.6228C12.6295 12.8068 12.1585 13.2483 12.1585 14.146C12.1585 15.0437 12.8134 15.912 12.9017 16.0297C12.99 16.1548 14.1894 17.9944 16.0143 18.7817C16.4484 18.973 16.7869 19.0834 17.0518 19.1644C17.486 19.3042 17.8833 19.2821 18.1997 19.2379C18.5529 19.1864 19.2814 18.7964 19.4286 18.3697C19.5831 17.9429 19.5831 17.5823 19.5316 17.5014C19.4801 17.4204 19.3697 17.3836 19.1857 17.2953Z" fill="white"/>
</svg>
