<svg width="501" height="360" viewBox="0 0 501 360" fill="none" xmlns="http://www.w3.org/2000/svg">
<path d="M489.591 266.279C489.39 266.279 489.182 266.257 488.971 266.215C487.815 266.022 486.916 265.28 486.454 264.123C485.889 262.714 486.092 260.936 486.944 259.799C487.605 258.466 489.309 257.067 491.14 256.254C490.767 255.776 490.312 255.405 489.774 255.19C488.538 254.695 486.299 254.598 484.586 255.392C483.694 255.806 483.117 256.388 482.874 257.121C482.796 257.352 482.549 257.477 482.316 257.399C482.086 257.322 481.962 257.073 482.038 256.842C482.358 255.884 483.111 255.105 484.217 254.593C485.915 253.805 488.448 253.709 490.101 254.372C490.872 254.68 491.501 255.226 491.99 255.922C492.306 255.818 492.622 255.731 492.932 255.67C494.802 255.044 496.417 255.081 497.678 255.795C499.035 256.562 499.98 258.114 500.49 260.406C500.543 260.644 500.393 260.878 500.155 260.931C499.917 260.983 499.683 260.835 499.63 260.597C499.176 258.558 498.374 257.2 497.244 256.56C496.206 255.972 494.832 255.959 493.157 256.518C492.923 256.565 492.687 256.626 492.448 256.7C493.365 258.552 493.512 261.061 492.906 263.102C492.302 265.133 491.088 266.278 489.591 266.279ZM491.618 257.008C489.911 257.741 488.303 259.034 487.689 260.258C486.98 261.216 486.821 262.674 487.269 263.795C487.513 264.403 488.033 265.167 489.127 265.349C491.005 265.718 491.8 263.727 492.061 262.852C492.62 260.974 492.461 258.645 491.618 257.008Z" fill="black"/>
<path d="M124.177 291.704C122.018 291.704 120.007 290.848 118.473 289.266C117.793 288.499 117.278 287.479 116.967 286.376C115.828 286.277 114.734 285.885 113.769 285.217C112.085 284.051 110.949 282.144 110.652 279.986C110.317 277.31 111.239 275.664 112.684 273.456C112.817 273.254 113.091 273.197 113.293 273.33C113.497 273.462 113.553 273.735 113.421 273.939C112.047 276.035 111.221 277.444 111.524 279.869C111.786 281.779 112.788 283.467 114.27 284.492C115.026 285.017 115.875 285.345 116.76 285.467C116.575 284.4 116.578 283.299 116.803 282.303C117.226 280.422 118.343 279.047 120.03 278.327C121.053 277.892 122.13 278.008 122.913 278.637C123.813 279.359 124.193 280.627 123.93 282.028C123.48 283.872 121.398 285.665 119.083 286.227C118.682 286.319 118.279 286.373 117.88 286.393C118.156 287.264 118.578 288.06 119.118 288.67C120.556 290.153 122.496 290.912 124.549 290.815C126.715 290.705 128.728 289.667 130.07 287.967C130.22 287.776 130.498 287.744 130.689 287.894C130.879 288.045 130.911 288.321 130.762 288.512C129.262 290.411 127.015 291.571 124.595 291.694C124.455 291.702 124.315 291.704 124.177 291.704ZM121.266 278.946C120.979 278.946 120.678 279.009 120.376 279.139C118.586 279.902 117.912 281.387 117.661 282.498C117.446 283.451 117.457 284.51 117.657 285.52C118.063 285.513 118.474 285.464 118.883 285.371C120.863 284.891 122.704 283.341 123.071 281.844C123.269 280.791 123.005 279.84 122.363 279.325C122.05 279.074 121.672 278.946 121.266 278.946Z" fill="black"/>
<path d="M127.753 39.4705C127.511 39.4705 127.314 39.2742 127.313 39.0322C127.296 35.2764 128.746 31.5153 131.097 29.2172C132.759 27.5932 134.829 26.728 137.102 26.7051C138.884 23.9096 142.603 22.1888 145.869 22.7301C147.784 23.0479 149.461 24.0953 151.082 25.1084C154.08 26.9815 156.671 28.5993 160.001 25.0855C160.168 24.9086 160.447 24.9007 160.623 25.0688C160.8 25.2352 160.807 25.5142 160.64 25.6911C156.816 29.7285 153.665 27.7604 150.616 25.8548C149.068 24.8875 147.467 23.8876 145.725 23.5989C143.004 23.1491 139.831 24.5222 138.143 26.7517C141.659 27.1003 143.454 29.3201 143.963 31.3745C144.439 33.288 143.873 35.1893 142.62 35.896C141.897 36.3045 140.347 36.6539 138.104 34.4032C136.101 32.3929 135.57 29.9336 136.616 27.6046C134.755 27.7314 133.109 28.484 131.714 29.8474C129.528 31.9854 128.18 35.5035 128.195 39.0295C128.195 39.2725 127.999 39.4705 127.756 39.4714C127.754 39.4705 127.753 39.4705 127.753 39.4705ZM137.6 27.5941C137.584 27.624 137.569 27.6539 137.553 27.6847C136.475 29.7752 136.892 31.9396 138.726 33.781C140.063 35.1232 141.325 35.6144 142.186 35.1285C143.087 34.6207 143.484 33.0979 143.108 31.5866C142.886 30.6897 141.836 27.786 137.6 27.5941Z" fill="black"/>
<path d="M489.552 162.846C486.469 162.846 484.072 160.944 483.445 158.001C482.878 155.339 483.748 153.558 484.576 152.534C485.768 151.061 487.688 150.182 489.711 150.182C492.535 150.182 494.905 151.8 496.053 154.511C496.565 155.763 496.485 157.264 495.831 158.742C495.083 160.432 493.675 161.825 492.157 162.377C491.302 162.688 490.425 162.846 489.552 162.846ZM489.711 151.061C487.951 151.061 486.287 151.818 485.26 153.086C484.244 154.342 483.914 155.979 484.306 157.817C484.842 160.337 486.901 161.965 489.552 161.965C490.322 161.965 491.097 161.825 491.856 161.549C493.156 161.076 494.371 159.864 495.026 158.385C495.583 157.127 495.659 155.872 495.24 154.848C494.237 152.479 492.169 151.061 489.711 151.061Z" fill="#F2AC30"/>
<path d="M49.0151 283.141C45.9327 283.141 43.535 281.238 42.9083 278.295C42.3406 275.633 43.2102 273.852 44.0402 272.827C45.232 271.354 47.1517 270.475 49.1744 270.475C51.9981 270.475 54.3684 272.093 55.5162 274.804C56.0284 276.058 55.9492 277.558 55.2944 279.038C54.5462 280.728 53.1388 282.12 51.6213 282.671C50.7649 282.982 49.8891 283.141 49.0151 283.141ZM49.1744 271.355C47.414 271.355 45.7505 272.112 44.7242 273.381C43.7075 274.637 43.3775 276.272 43.77 278.111C44.3061 280.631 46.3657 282.26 49.016 282.26C49.7861 282.26 50.5616 282.12 51.3203 281.844C52.6203 281.371 53.835 280.159 54.4899 278.681C55.047 277.423 55.1227 276.167 54.7038 275.142C53.7003 272.774 51.6328 271.355 49.1744 271.355Z" fill="#70BADB"/>
<path d="M479.894 222.335C478.247 222.335 476.716 221.527 475.798 220.176L466.976 207.188C466.238 206.101 465.968 204.787 466.217 203.488C466.465 202.189 467.2 201.067 468.287 200.329L481.276 191.505C482.093 190.951 483.048 190.658 484.039 190.658C485.685 190.658 487.217 191.465 488.136 192.818L496.959 205.805C498.486 208.059 497.898 211.136 495.647 212.666L482.661 221.486C481.841 222.041 480.885 222.335 479.894 222.335ZM484.037 191.538C483.223 191.538 482.439 191.779 481.77 192.234L468.78 201.058C467.888 201.663 467.285 202.585 467.08 203.653C466.877 204.721 467.098 205.8 467.704 206.693L476.526 219.681C477.28 220.792 478.538 221.454 479.893 221.454C480.707 221.454 481.491 221.214 482.163 220.757L495.149 211.937C497 210.679 497.483 208.15 496.227 206.299L487.405 193.313C486.652 192.202 485.391 191.538 484.037 191.538Z" fill="#70BADB"/>
<path d="M92.8479 336.664C91.0444 336.664 89.7206 335.229 89.3932 332.921L86.8406 314.889C86.6259 313.373 86.9066 312.119 87.6522 311.261C88.6468 310.114 90.3693 309.875 92.267 310.639L109.159 317.442C110.824 318.113 111.843 319.205 112.029 320.516C112.215 321.828 111.54 323.161 110.126 324.267L95.7869 335.496C94.8116 336.258 93.795 336.664 92.8479 336.664ZM90.1616 311.07C89.3897 311.07 88.7515 311.335 88.3158 311.837C87.7507 312.487 87.536 313.527 87.712 314.764L90.2646 332.796C90.5295 334.666 91.4951 335.783 92.847 335.783C93.5952 335.783 94.4244 335.443 95.2438 334.801L109.583 323.573C110.737 322.669 111.297 321.626 111.157 320.639C111.017 319.651 110.19 318.805 108.829 318.257L91.9369 311.454C91.3041 311.2 90.7073 311.07 90.1616 311.07Z" fill="#F2AC30"/>
<path d="M229.701 35.3968C228.907 35.3968 228.061 35.153 227.186 34.6715L211.227 25.896C209.654 25.0317 208.773 23.8258 208.745 22.5011C208.718 21.1765 209.548 19.9354 211.083 19.0059L226.663 9.57378C227.576 9.02102 228.465 8.74023 229.303 8.74023C231.316 8.74023 232.65 10.3704 232.702 12.8939L233.082 31.1006C233.112 32.5397 232.73 33.7077 231.977 34.4761C231.386 35.0782 230.6 35.3968 229.701 35.3968ZM229.303 9.62043C228.636 9.62043 227.881 9.86424 227.117 10.3263L211.537 19.7585C210.282 20.5181 209.603 21.4854 209.624 22.4827C209.645 23.4799 210.364 24.4182 211.65 25.125L227.609 33.9005C229.111 34.7252 230.514 34.7103 231.346 33.86C231.931 33.2632 232.226 32.3153 232.201 31.1182L231.821 12.9115C231.779 10.8817 230.814 9.62043 229.303 9.62043Z" fill="#F2C87E"/>
<path d="M292.347 359.527C292.34 359.527 292.339 359.527 292.332 359.527C255.924 359.526 224.329 356.791 203.369 351.827C179.514 346.177 163.626 336.382 156.145 322.714C149.823 311.163 149.532 296.976 155.281 280.547C155.497 279.93 155.719 279.286 155.951 278.616C160.44 265.606 168.795 241.391 208.547 193.145C237.449 158.065 274.543 138.746 312.996 138.746C327.183 138.746 341.287 141.359 354.914 146.513C388.887 159.361 417.296 180.015 437.071 206.241C453.712 228.313 464.085 254.12 466.278 278.909C468.647 305.693 461.029 327.757 446.394 336.491C419.727 352.403 349.81 359.527 292.347 359.527ZM312.996 139.625C274.811 139.625 237.958 158.831 209.225 193.704C169.575 241.829 161.253 265.945 156.782 278.902C156.549 279.575 156.327 280.219 156.111 280.837C150.447 297.022 150.718 310.969 156.916 322.292C164.273 335.733 179.969 345.381 203.572 350.972C224.467 355.92 255.99 358.647 292.332 358.648C292.335 358.648 292.343 358.648 292.347 358.648C349.691 358.648 419.418 351.563 445.943 335.734C460.285 327.175 467.741 305.431 465.4 278.986C461.61 236.151 430.32 175.97 354.603 147.336C341.075 142.218 327.077 139.625 312.996 139.625Z" fill="black"/>
<mask id="mask0_260_187" style="mask-type:luminance" maskUnits="userSpaceOnUse" x="0" y="54" width="228" height="204">
<path d="M5.25268 137.5C0.820041 156.863 -4.92585 210.706 14.8212 231.409C34.5683 252.112 49.5378 254.978 83.2984 255.615C117.059 256.251 133.94 258.159 158.783 256.568C183.626 254.977 222.481 254.1 226.623 197.966C234.102 96.5712 157.945 49.7873 96.7926 55.2022C35.6413 60.6163 13.6145 100.972 5.25268 137.5Z" fill="white"/>
</mask>
<g mask="url(#mask0_260_187)">
<path d="M119.449 103.369C121.2 106.235 122.631 111.332 123.43 116.905C123.989 120.806 125.023 121.206 128.844 122.956C132.667 124.708 133.544 128.052 131.472 129.963C128.523 132.685 128.526 131.198 128.129 134.263C127.862 136.307 128.416 137.94 125.666 137.06C124.586 136.714 122.353 135.385 122.035 135.629C121.083 136.365 121.375 139.15 125.006 141.241C126.33 142.003 127.426 141.901 126.256 147.959C125.237 153.236 118.851 154.05 112.521 152.856C106.191 151.662 107.505 156.439 104.996 163.247C102.488 170.055 102.13 173.877 105.593 176.744C109.058 179.611 111.805 193.345 111.445 196.69C111.087 200.034 99.143 206.961 88.9909 195.734C83.4976 188.09 77.2861 173.399 77.2861 173.399C77.2861 173.399 83.7353 164.441 83.6156 155.722C83.4968 147.004 79.7938 114.158 91.8568 104.842C103.922 95.5252 118.255 101.061 119.449 103.369Z" fill="white"/>
<path d="M101.453 202.325C98.2173 202.325 93.3719 201.233 88.6664 196.028C83.1757 188.394 76.9449 173.717 76.8824 173.57C76.8225 173.429 76.841 173.267 76.9308 173.142C76.9941 173.053 83.2937 164.197 83.1775 155.728C83.1616 154.524 83.0736 152.815 82.9733 150.838C82.3395 138.444 81.0219 112.656 91.5903 104.494C97.2729 100.105 103.209 99.1836 107.188 99.1836C113.653 99.1836 119 101.543 119.841 103.167C121.55 105.965 123.024 110.959 123.867 116.844C124.38 120.43 125.229 120.819 128.805 122.455L129.029 122.558C131.243 123.573 132.675 125.172 132.958 126.946C133.159 128.21 132.738 129.397 131.773 130.288C130.725 131.255 130.034 131.708 129.575 132.009C128.815 132.508 128.801 132.517 128.566 134.321C128.518 134.694 128.498 135.052 128.479 135.383C128.399 136.772 128.27 138.357 125.533 137.479C125.076 137.333 124.449 137.033 123.841 136.741C123.312 136.488 122.535 136.116 122.23 136.05C122.07 136.233 121.991 136.554 122.017 136.934C122.088 137.979 122.968 139.559 125.227 140.859C125.343 140.926 125.458 140.987 125.57 141.045C127.003 141.795 127.763 142.491 126.69 148.042C125.976 151.74 122.649 153.777 117.322 153.777C115.803 153.777 114.16 153.612 112.441 153.287C111.823 153.171 111.268 153.112 110.79 153.112C108.194 153.112 107.705 154.721 106.847 158.359C106.496 159.848 106.097 161.536 105.411 163.398C102.747 170.63 102.864 173.911 105.875 176.404C109.486 179.392 112.263 193.204 111.885 196.736C111.643 198.987 107.157 202.325 101.453 202.325ZM77.7881 173.451C78.5934 175.327 84.3147 188.472 89.3494 195.477C93.8084 200.404 98.3951 201.445 101.453 201.445C106.766 201.445 110.828 198.329 111.009 196.642C111.355 193.411 108.582 179.787 105.313 177.082C101.524 173.945 102.134 169.746 104.585 163.094C105.252 161.283 105.643 159.623 105.989 158.157C106.801 154.717 107.387 152.232 110.789 152.232C111.33 152.232 111.923 152.294 112.603 152.423C114.268 152.737 115.856 152.896 117.321 152.896C120.758 152.896 125.024 152.025 125.825 147.876C126.824 142.697 126.163 142.35 125.16 141.825C125.039 141.762 124.914 141.696 124.786 141.623C122.613 140.372 121.248 138.642 121.137 136.995C121.087 136.254 121.316 135.63 121.766 135.282C122.148 134.986 122.812 135.275 124.22 135.948C124.801 136.226 125.401 136.513 125.8 136.642C126.262 136.79 126.634 136.865 126.905 136.865C127.426 136.865 127.523 136.65 127.599 135.333C127.618 134.983 127.641 134.602 127.692 134.207C127.957 132.168 128.061 131.949 129.09 131.273C129.524 130.988 130.18 130.557 131.173 129.64C131.915 128.955 132.239 128.047 132.086 127.083C131.855 125.627 130.574 124.234 128.66 123.357L128.437 123.255C124.801 121.59 123.576 121.03 122.994 116.968C122.167 111.197 120.738 106.324 119.073 103.599C118.515 102.522 113.821 100.063 107.187 100.063C103.345 100.063 97.6144 100.953 92.1282 105.189C81.9241 113.069 83.2259 138.548 83.8517 150.792C83.9529 152.778 84.0409 154.495 84.0577 155.715C84.1686 163.856 78.7721 172.031 77.7881 173.451Z" fill="black"/>
<path d="M83.2988 255.615C85.5284 256.572 106.549 257.685 106.549 257.685C106.549 257.685 115.786 228.226 111.964 194.465C104.32 201.153 95.7201 199.559 87.1206 192.553C92.5347 209.114 89.9883 243.192 83.2988 255.615Z" fill="black"/>
<path d="M115.642 124.91C116.106 126.399 117.172 127.393 118.022 127.129C118.871 126.863 119.181 125.44 118.717 123.95C118.252 122.46 117.185 121.467 116.339 121.732C115.489 121.998 115.176 123.42 115.642 124.91Z" fill="black"/>
<path d="M117.07 122.449C117.029 122.449 116.987 122.444 116.946 122.432C116.713 122.363 116.579 122.118 116.648 121.885L117.445 119.177C117.514 118.945 117.757 118.81 117.991 118.88C118.225 118.949 118.358 119.193 118.289 119.427L117.492 122.134C117.436 122.325 117.261 122.449 117.07 122.449Z" fill="black"/>
<path d="M95.88 212.299C93.4216 194.167 85.315 182.171 78.1441 171.058C77.0439 169.352 76.0272 169.596 75.5581 169.689C72.1289 170.369 68.3036 171.978 69.2841 174.079C69.4918 174.523 69.8113 174.98 70.2092 175.489C68.7216 175.789 66.941 176.162 64.8259 176.628C56.862 178.378 51.9346 181.528 46.9976 186.465C42.0607 191.401 16.8159 222.011 9.80957 229.814C19.0472 247.65 34.8959 250.278 34.8959 250.278C34.8959 250.278 49.3794 235.708 58.456 224.56C58.1374 226.789 57.0239 247.493 53.8385 255.614C59.4647 258.878 75.1004 258.721 83.7967 258.349C85.2244 259.659 90.7845 258.48 90.7845 258.48C90.7845 258.48 98.4272 231.09 95.88 212.299Z" fill="#70BADB"/>
<path d="M69.0457 108.308C64.8657 109.861 60.2077 113.682 57.6992 130.045C56.4863 137.957 53.55 146.454 54.1027 154.524C54.6203 162.076 61.1619 164.136 67.8302 165.47C73.7046 166.645 96.5367 172.089 97.9767 162.258C99.6561 150.789 81.5788 145.03 84.1718 134.385C84.699 132.221 86.8722 129.532 89.1097 129.031C91.965 128.392 92.8144 130.833 95.0343 132.33C97.7391 134.153 99.3586 133.087 100.983 130.35C102.519 127.763 101.944 123.618 101.701 120.714C101.382 116.908 100.931 115.533 104.232 114.443C108.697 112.971 112.52 109.947 108.222 104.844C113.955 111.65 116.822 110.576 121.48 107.59C126.138 104.603 126.376 101.856 124.585 96.7214C122.793 91.5854 117.3 83.7024 107.625 84.8969C97.9503 86.0913 98.9053 88.7187 87.3202 91.1075C75.7343 93.4981 68.3292 96.9617 69.0457 108.308Z" fill="black"/>
<path d="M112.281 117.23C112.232 117.23 112.183 117.222 112.133 117.204C111.904 117.122 111.785 116.871 111.867 116.642C112.179 115.766 113.946 111.354 118.044 110.507C118.281 110.459 118.515 110.611 118.564 110.849C118.613 111.087 118.46 111.32 118.222 111.369C114.585 112.121 112.98 116.14 112.695 116.938C112.631 117.117 112.462 117.23 112.281 117.23Z" fill="black"/>
<path d="M83.4596 257.964C83.4508 257.964 83.4411 257.964 83.4323 257.963C83.1894 257.947 83.0054 257.739 83.0204 257.497C83.0441 257.114 83.1251 256.072 83.2431 254.554C83.9323 245.7 85.7639 222.182 85.0923 216.811C84.3891 211.187 85.9127 209.779 88.2197 207.646C88.5084 207.379 88.8111 207.1 89.1263 206.796C87.9908 206.072 85.0087 204.177 82.7519 202.799C80.3948 201.359 79.8754 199.404 78.49 194.177C78.0763 192.618 77.6072 190.849 76.9849 188.691C75.0934 182.122 72.3991 178.851 70.6158 176.685C70.1784 176.154 69.8008 175.695 69.4857 175.255C69.344 175.057 69.3897 174.782 69.5878 174.641C69.7867 174.499 70.0613 174.546 70.2021 174.743C70.4996 175.159 70.8684 175.607 71.2953 176.126C73.1244 178.347 75.8891 181.703 77.8308 188.447C78.4557 190.615 78.946 192.465 79.3403 193.952C80.6606 198.93 81.1552 200.793 83.2105 202.048C86.0482 203.783 90.0267 206.327 90.0663 206.353C90.1781 206.424 90.252 206.544 90.267 206.676C90.2811 206.808 90.2344 206.94 90.1411 207.034C89.6755 207.5 89.2319 207.91 88.8182 208.293C86.5623 210.378 85.3194 211.527 85.9664 216.702C86.6494 222.161 84.8133 245.745 84.1215 254.623C84.0035 256.134 83.9226 257.172 83.8997 257.552C83.8838 257.784 83.6911 257.964 83.4596 257.964Z" fill="white"/>
<path d="M144.928 200.353L141.584 210.226C141.584 210.226 133.621 195.736 128.525 189.366C123.762 183.412 116.915 179.686 111.49 177.663C107.83 171.605 102.659 170.73 102.659 170.73C102.659 170.73 102.249 172.165 103.007 173.979C103.763 175.793 111.962 190.002 110.052 212.616C108.142 235.229 101.612 257.684 101.612 257.684H106.549C106.549 257.684 106.587 257.559 106.658 257.328C110.372 257.806 117.935 258.567 118.174 256.888C118.492 254.658 122.793 236.822 125.34 231.248C132.985 245.421 140.077 248.312 150.338 244.002C157.673 240.921 163.719 216.279 164.515 206.565C164.674 206.405 144.928 200.353 144.928 200.353Z" fill="#70BADB"/>
<path d="M106.55 258.122C106.507 258.122 106.464 258.116 106.421 258.104C106.189 258.032 106.058 257.787 106.129 257.554C106.227 257.231 116.013 225.172 117.427 219.046C118.88 212.746 118.834 211.99 117.886 210.138C116.695 207.811 115.673 205.768 115.673 205.768C115.571 205.563 115.641 205.316 115.836 205.196C116.91 204.533 119.598 202.417 119.142 200.621C118.125 196.633 114.252 183.417 111.421 178.394L111.33 178.233C111.209 178.022 111.282 177.754 111.494 177.633C111.704 177.511 111.973 177.586 112.094 177.797L112.188 177.963C115.063 183.062 118.971 196.387 119.994 200.405C120.596 202.764 117.662 205.019 116.636 205.724C116.977 206.404 117.775 207.991 118.671 209.739C119.778 211.901 119.734 212.967 118.286 219.246C116.865 225.402 107.07 257.489 106.971 257.813C106.913 258 106.739 258.122 106.55 258.122Z" fill="white"/>
<path d="M125.34 231.687C125.28 231.687 125.217 231.674 125.157 231.647C124.936 231.546 124.84 231.285 124.94 231.064C132.099 215.394 129.431 209.753 127.836 206.383C127.559 205.797 127.319 205.29 127.153 204.791C127.076 204.56 127.201 204.311 127.431 204.234C127.664 204.156 127.912 204.283 127.988 204.512C128.138 204.961 128.367 205.446 128.632 206.006C130.292 209.514 133.069 215.386 125.74 231.429C125.667 231.591 125.508 231.687 125.34 231.687Z" fill="black"/>
<path d="M144.173 216.638C144.008 216.638 143.851 216.546 143.775 216.388C143.758 216.351 141.999 212.671 140.422 208.883C140.328 208.659 140.434 208.401 140.658 208.308C140.882 208.218 141.14 208.32 141.234 208.545C142.803 212.313 144.551 215.973 144.57 216.01C144.675 216.229 144.582 216.492 144.363 216.597C144.301 216.625 144.236 216.638 144.173 216.638Z" fill="black"/>
<path d="M146.201 196.569C147.992 190.956 150.621 175.788 151.217 170.174C151.814 164.561 148.47 156.678 152.411 151.662C156.352 146.646 158.861 144.137 159.936 141.63C161.011 139.121 163.519 138.763 164.833 141.271C166.147 143.78 164.116 148.199 161.131 151.304C168.416 146.646 169.013 148.317 171.282 144.735C173.552 141.152 177.972 131.955 180.838 132.194C183.227 128.969 185.973 130.76 186.451 135.18C187.885 135.061 189.199 138.406 188.243 143.421C191.707 145.452 191.348 152.856 186.451 158.47C181.555 164.084 172.239 167.428 170.208 171.967C168.178 176.505 164.834 203.14 164.834 203.14L146.201 196.569Z" fill="white"/>
<path d="M164.833 203.58C164.784 203.58 164.735 203.571 164.686 203.555L146.054 196.985C145.83 196.906 145.709 196.663 145.782 196.436C147.587 190.781 150.205 175.526 150.78 170.128C150.981 168.236 150.724 166.083 150.451 163.803C149.922 159.384 149.375 154.815 152.066 151.39C153.279 149.847 154.35 148.547 155.296 147.401C157.413 144.833 158.812 143.137 159.532 141.457C160.159 139.993 161.266 139.12 162.493 139.12C163.58 139.12 164.575 139.829 165.223 141.067C166.398 143.309 165.2 146.703 163.149 149.563C165.029 148.485 166.338 147.908 167.291 147.489C169.034 146.721 169.686 146.434 170.911 144.499C171.395 143.735 171.995 142.682 172.631 141.568C175.648 136.277 178.335 131.884 180.622 131.752C181.688 130.399 182.699 130.107 183.371 130.107C185.107 130.107 186.449 131.926 186.845 134.774C187.13 134.844 187.472 135.022 187.808 135.428C188.688 136.492 189.442 139.158 188.73 143.207C189.844 143.977 190.575 145.276 190.854 146.986C191.447 150.622 189.848 155.243 186.784 158.758C184.473 161.407 181.282 163.502 178.196 165.528C174.828 167.74 171.647 169.829 170.611 172.145C168.631 176.573 165.304 202.928 165.271 203.193C165.254 203.324 165.179 203.442 165.066 203.513C164.994 203.558 164.914 203.58 164.833 203.58ZM146.747 196.296L164.465 202.544C164.965 198.63 167.911 176.027 169.806 171.788C170.948 169.236 174.234 167.079 177.712 164.795C180.748 162.801 183.888 160.74 186.119 158.182C189.019 154.857 190.538 150.519 189.985 147.13C189.728 145.556 189.049 144.404 188.02 143.801C187.859 143.707 187.776 143.522 187.811 143.339C188.508 139.675 187.972 137.009 187.129 135.992C186.989 135.822 186.769 135.618 186.526 135.618C186.301 135.618 186.038 135.452 186.014 135.228C185.741 132.693 184.677 130.99 183.371 130.99C182.657 130.99 181.904 131.497 181.193 132.458C181.102 132.58 180.957 132.65 180.803 132.634H180.801C178.74 132.634 175.524 138.274 173.396 142.006C172.755 143.13 172.15 144.191 171.655 144.972C170.285 147.134 169.458 147.498 167.646 148.297C166.302 148.888 164.46 149.7 161.369 151.676C161.181 151.794 160.932 151.755 160.792 151.584C160.65 151.412 160.66 151.161 160.814 151.001C163.519 148.187 165.711 143.894 164.444 141.477C163.946 140.525 163.253 140.002 162.494 140.002C161.63 140.002 160.826 140.676 160.342 141.804C159.572 143.601 158.141 145.336 155.975 147.963C155.032 149.105 153.965 150.401 152.758 151.936C150.293 155.075 150.817 159.459 151.324 163.7C151.603 166.031 151.866 168.233 151.655 170.223C151.091 175.524 148.56 190.302 146.747 196.296Z" fill="black"/>
<path d="M165.432 159.509C165.233 159.509 165.053 159.373 165.004 159.171C164.401 156.636 162.131 152.5 160.889 151.671C160.686 151.537 160.632 151.263 160.766 151.061C160.901 150.859 161.174 150.804 161.376 150.939C162.922 151.97 165.25 156.408 165.86 158.967C165.916 159.204 165.77 159.441 165.533 159.497C165.501 159.505 165.466 159.509 165.432 159.509Z" fill="black"/>
<path d="M180.003 157.121C179.841 157.121 179.686 157.032 179.609 156.878C179.164 155.988 173.876 149.649 171.86 148.977C171.63 148.9 171.506 148.651 171.582 148.42C171.659 148.19 171.907 148.065 172.138 148.142C174.45 148.913 179.912 155.519 180.396 156.485C180.505 156.702 180.416 156.966 180.198 157.075C180.136 157.106 180.069 157.121 180.003 157.121Z" fill="black"/>
<path d="M178.927 157.718C178.761 157.718 178.602 157.624 178.527 157.463C178.425 157.242 178.522 156.981 178.743 156.879C180.125 156.24 183.167 152.34 183.989 147.882C184.409 145.597 185.112 144.177 186.136 143.543C187.085 142.955 188.134 143.156 188.841 143.358C189.075 143.425 189.21 143.669 189.144 143.902C189.076 144.135 188.833 144.267 188.6 144.205C187.72 143.952 187.103 143.98 186.601 144.291C185.81 144.781 185.223 146.043 184.855 148.042C184.009 152.632 180.837 156.881 179.112 157.678C179.052 157.705 178.989 157.718 178.927 157.718Z" fill="black"/>
<path d="M177.375 153.774C177.252 153.774 177.131 153.723 177.043 153.623C176.884 153.439 176.904 153.162 177.087 153.002C179.69 150.738 180.757 147.437 181.721 142.501C182.607 137.957 184.335 135.429 186.854 134.986C187.092 134.942 187.321 135.103 187.364 135.342C187.406 135.582 187.247 135.81 187.007 135.852C184.882 136.226 183.395 138.52 182.585 142.669C181.585 147.793 180.459 151.236 177.665 153.666C177.58 153.739 177.478 153.774 177.375 153.774Z" fill="black"/>
<path d="M174.626 150.67C174.538 150.67 174.45 150.645 174.373 150.59C174.174 150.45 174.127 150.175 174.267 149.977C175.563 148.135 177.189 142.871 178.496 138.641C179.474 135.478 180.318 132.746 180.928 131.626C181.045 131.412 181.312 131.334 181.525 131.45C181.739 131.566 181.817 131.834 181.701 132.047C181.132 133.089 180.261 135.912 179.337 138.9C177.942 143.413 176.362 148.528 174.986 150.483C174.901 150.605 174.765 150.67 174.626 150.67Z" fill="black"/>
<path d="M57.5008 225.955C57.4004 225.955 57.2983 225.92 57.2165 225.85C57.0316 225.693 57.0087 225.415 57.1663 225.23C59.85 222.073 65.2491 216.353 65.3037 216.296C65.47 216.12 65.7482 216.111 65.9251 216.278C66.102 216.445 66.1099 216.723 65.9427 216.9C65.889 216.957 60.5057 222.66 57.8361 225.8C57.7499 225.903 57.6258 225.955 57.5008 225.955Z" fill="black"/>
<path d="M145.424 195.151C143.663 198.452 142.645 203.805 143.003 204.283C143.361 204.761 156.426 205.823 165.338 212.205C167.368 213.16 168.017 203.751 167.7 202.663C166.864 199.796 146.499 193.957 145.424 195.151Z" fill="black"/>
<path d="M95.7213 211.942C95.6183 211.942 95.5162 211.906 95.4326 211.833C95.3921 211.799 91.3793 208.315 89.5124 207.072C89.3108 206.937 89.2554 206.663 89.39 206.462C89.5247 206.26 89.7967 206.205 90 206.339C91.9127 207.614 95.8427 211.025 96.0091 211.17C96.1922 211.329 96.2115 211.606 96.0522 211.79C95.9659 211.891 95.8436 211.942 95.7213 211.942Z" fill="white"/>
<path d="M110.225 210.152C110.113 210.152 110 210.109 109.914 210.024C109.742 209.852 109.742 209.573 109.914 209.401C111.596 207.72 113.744 206.43 115.167 205.576C115.52 205.365 115.823 205.184 116.053 205.034C116.257 204.902 116.53 204.959 116.662 205.162C116.794 205.366 116.736 205.639 116.533 205.771C116.295 205.926 115.984 206.112 115.62 206.33C114.235 207.161 112.142 208.418 110.537 210.023C110.451 210.109 110.338 210.152 110.225 210.152Z" fill="white"/>
<path d="M97.4342 147.599C96.9694 143.257 93.5464 138.807 89.4825 141.402C85.9485 143.659 84.8729 149.735 88.1068 152.616C89.4834 153.842 91.712 154.415 93.5745 154.05C96.7036 153.436 97.7493 150.542 97.4342 147.599Z" fill="#F2AC30"/>
</g>
<path d="M139.156 257.626H139.155C130.567 257.626 122.156 257.31 112.42 256.942C104.056 256.626 94.5755 256.267 83.2888 256.055C50.316 255.434 34.8616 253.059 14.5019 231.713C-4.55072 211.738 -0.246591 159.548 4.82243 137.402C16.3732 86.9458 47.3022 59.1424 96.7522 54.7643C99.9192 54.4844 103.166 54.3418 106.401 54.3418C139.106 54.3418 171.954 68.6836 194.27 92.7058C211.41 111.158 231.014 144.404 227.059 197.999C223.001 253.007 185.593 255.337 160.84 256.88L158.808 257.008C152.213 257.429 145.968 257.626 139.156 257.626ZM106.401 55.2211C103.192 55.2211 99.9711 55.3619 96.8288 55.6401C47.8022 59.9812 17.1345 87.5558 5.67886 137.597C0.644162 159.592 -3.66965 211.388 15.1374 231.104C35.2674 252.209 50.5915 254.558 83.3038 255.174C94.5993 255.387 104.083 255.745 112.452 256.061C122.181 256.428 130.582 256.745 139.154 256.745H139.155C145.949 256.745 152.175 256.549 158.752 256.128L160.784 256.001C185.233 254.478 222.179 252.176 226.181 197.933C229.291 155.761 218.034 119.581 193.623 93.3035C171.472 69.4573 138.865 55.2211 106.401 55.2211Z" fill="black"/>
<path d="M151.389 76.379C157.353 74.8228 176.418 71.1911 186.403 69.1165C196.39 67.041 207.284 65.6143 208.71 66.2638C210.136 66.9117 194.315 86.8841 186.922 94.7944C184.458 96.4799 181.086 93.3685 181.086 93.3685C174.083 100.631 166.172 103.354 164.876 103.614C163.578 103.873 162.93 95.833 162.8 91.0333C162.671 86.2354 163.522 85.3006 159.558 83.3827C147.238 77.415 151.389 76.379 151.389 76.379Z" fill="#70BADB"/>
<path d="M164.876 104.054C164.682 104.054 164.505 103.926 164.451 103.73C164.387 103.495 164.525 103.253 164.759 103.19C165.41 102.953 167.777 99.12 169.505 96.321C171.362 93.3134 173.116 90.4712 174.161 89.4264C176.13 87.4574 194.271 75.074 201.97 69.8624L164.26 84.8292C164.034 84.9181 163.778 84.8081 163.687 84.5827C163.598 84.3565 163.709 84.1013 163.934 84.0115L205.433 67.5414C205.651 67.4533 205.901 67.5554 205.997 67.7711C206.093 67.9858 206.003 68.2393 205.792 68.3441C204.511 69.0236 176.841 87.99 174.781 90.0487C173.809 91.0213 172 93.9506 170.251 96.7831C167.247 101.649 165.841 103.806 164.989 104.038C164.953 104.049 164.914 104.054 164.876 104.054Z" fill="black"/>
<path d="M181.863 94.3271C181.773 94.3271 181.682 94.2998 181.604 94.2425L181.414 94.1035C178.755 92.1591 175.445 89.7333 174.669 90.1294C174.451 90.2377 174.188 90.1497 174.078 89.9323C173.969 89.7148 174.058 89.4508 174.275 89.3417C175.473 88.744 177.845 90.4032 181.934 93.3923L182.123 93.5305C182.319 93.674 182.362 93.9494 182.219 94.1457C182.133 94.2646 181.999 94.3271 181.863 94.3271Z" fill="black"/>
<path d="M215.711 165.298C210.723 165.755 207.891 168.853 208.391 177.669C208.889 186.488 206.893 195.588 210.387 198.999C213.882 202.413 222.697 202.415 230.851 202.556C239.003 202.696 249.561 202.458 252.687 202.413C260.048 202.307 262.668 201.028 263.667 195.267C264.255 191.876 262.844 172.749 262.794 170.738C262.668 165.725 259.425 165.085 252.313 164.765C245.493 164.457 220.37 164.871 215.711 165.298Z" fill="#F2AC30"/>
<path d="M235.736 188.642C235.703 188.642 235.67 188.641 235.638 188.641C232.128 188.588 229.276 185.636 227.182 183.069C223.313 178.324 214.609 168.594 212.493 166.786C212.308 166.629 212.286 166.351 212.445 166.166C212.602 165.98 212.88 165.96 213.065 166.118C215.209 167.949 223.976 177.745 227.865 182.512C229.837 184.931 232.505 187.713 235.651 187.761C237.902 187.776 240.254 186.41 242.648 183.647C249.238 176.044 259.017 166.467 259.115 166.371C259.29 166.201 259.569 166.205 259.737 166.378C259.907 166.551 259.905 166.83 259.73 167C259.633 167.096 249.879 176.648 243.313 184.223C240.738 187.195 238.258 188.642 235.736 188.642Z" fill="black"/>
<path d="M210.388 199.439C210.226 199.439 210.07 199.349 209.994 199.195C209.885 198.978 209.973 198.714 210.192 198.606C211.336 198.036 217.172 192.528 221.432 188.506C224.961 185.175 226.981 183.275 227.46 182.983C227.668 182.855 227.938 182.921 228.066 183.129C228.192 183.336 228.127 183.607 227.92 183.735C227.497 183.994 224.844 186.497 222.036 189.147C216.262 194.596 211.753 198.812 210.584 199.393C210.521 199.425 210.454 199.439 210.388 199.439Z" fill="black"/>
<path d="M260.133 200.861C259.983 200.861 259.836 200.784 259.753 200.644C259.473 200.167 256.194 196.615 253.024 193.181C248.839 188.648 244.512 183.96 243.857 182.92C243.727 182.715 243.789 182.442 243.994 182.314C244.202 182.184 244.472 182.248 244.601 182.451C245.212 183.423 249.706 188.29 253.67 192.585C257.708 196.959 260.199 199.667 260.512 200.199C260.635 200.409 260.565 200.678 260.354 200.802C260.286 200.842 260.21 200.861 260.133 200.861Z" fill="black"/>
<mask id="mask1_260_187" style="mask-type:luminance" maskUnits="userSpaceOnUse" x="258" y="0" width="226" height="197">
<path d="M334.962 6.29649C304.213 12.7782 256.081 26.1606 258.295 84.8219C260.51 143.483 283.064 173.718 320.721 185.45C358.379 197.182 450.78 209.232 470.399 170.23C490.018 131.229 483.55 75.5482 473.425 52.4C463.299 29.2519 438.755 -15.5815 334.962 6.29649Z" fill="white"/>
</mask>
<g mask="url(#mask1_260_187)">
<path d="M418.141 54.1426C415.72 43.8743 393.422 30.6714 383.886 34.3392C374.351 38.006 386.527 42.26 386.527 42.26C371.858 39.6194 364.816 41.3789 363.349 45.0476C361.882 48.7153 368.043 50.1817 368.043 50.1817C358.068 50.4757 346.919 58.2504 348.533 63.6786C350.146 69.1058 356.747 67.1254 356.747 67.1254C347.358 74.681 348.89 82.3633 358.687 81.4558C348.386 89.2041 346.92 103.433 350.88 108.568C354.84 113.703 358.685 105.931 358.685 105.931C354.547 117.37 360.707 124.852 366.576 115.317C365.256 128.373 376.845 130.133 380.513 123.679C384.033 136.148 392.395 134.24 393.863 128.08C398.41 133.801 407.359 131.893 409.119 125.732C414.107 131.6 418.508 126.245 418.068 121.698C423.202 127.712 431.271 128.446 432.884 117.517C440.219 122.945 443.886 122.798 441.906 109.816C454.156 114.29 460.61 100.647 446.527 88.911C455.916 91.4046 454.889 81.7225 441.466 75.9282C450.928 75.7082 452.101 69.2528 447.407 64.4857C442.713 59.7177 434.791 50.4748 418.141 54.1426Z" fill="black"/>
<path d="M371.516 79.2014C370.083 87.8008 372.632 90.3499 375.179 96.4012C377.728 102.453 374.165 108.83 380.953 116.386C387.282 123.433 396.838 122.995 396.838 122.995L399.544 133.984L422.955 127.931L417.859 105.876C417.859 105.876 422.637 103.249 421.203 93.8522C419.77 84.4561 419.611 61.2067 396.838 64.7099C374.065 68.2122 373.588 72.3526 371.516 79.2014Z" fill="white"/>
<path d="M399.544 134.424C399.465 134.424 399.387 134.403 399.319 134.362C399.217 134.302 399.145 134.203 399.117 134.089L396.494 123.44C394.831 123.439 386.393 123.101 380.626 116.68C376.265 111.824 376.068 107.333 375.896 103.37C375.792 100.997 375.694 98.7554 374.774 96.5707C374.282 95.3983 373.793 94.3694 373.32 93.3739C371.414 89.3567 369.908 86.1845 371.084 79.128L371.301 78.3904C373.291 71.7247 374.492 67.7005 396.772 64.2739C398.332 64.0345 399.836 63.9121 401.244 63.9121C418.01 63.9121 420.017 80.5715 421.216 90.5247C421.36 91.727 421.492 92.8281 421.639 93.7849C422.913 102.14 419.417 105.32 418.357 106.075L423.384 127.831C423.437 128.063 423.296 128.296 423.065 128.356L399.655 134.408C399.618 134.42 399.581 134.424 399.544 134.424ZM396.837 122.556C397.039 122.556 397.217 122.693 397.264 122.89L399.864 133.446L422.429 127.612L417.429 105.975C417.385 105.783 417.474 105.585 417.646 105.49C417.69 105.465 422.131 102.857 420.767 93.9178C420.62 92.9531 420.486 91.8432 420.34 90.6312C419.177 80.9676 417.228 64.7932 401.242 64.7932C399.878 64.7932 398.419 64.9111 396.904 65.1444C375.174 68.4865 374.034 72.3091 372.143 78.6421L371.938 79.3278C370.821 86.0568 372.202 88.9685 374.114 92.9972C374.591 94.0015 375.084 95.0392 375.585 96.2301C376.566 98.5591 376.667 100.877 376.775 103.332C376.949 107.333 377.13 111.471 381.281 116.092C386.811 122.249 394.934 122.56 396.506 122.56C396.928 122.56 396.824 122.556 396.837 122.556Z" fill="black"/>
<path d="M426.609 85.8255C425.814 81.0267 424.839 76.4875 422.358 72.2115C420.828 69.5745 419.447 66.8617 416.861 65.104C409.597 60.167 399.815 60.4627 391.548 62.1782C384.983 63.5408 377.674 65.8662 372.587 70.3922C370.896 71.8955 364.049 78.7214 368.483 80.6939C371.08 81.8487 373.941 79.3983 375.9 77.7435C375.989 77.9926 376.128 78.2602 376.331 78.5665C377.651 80.547 380.952 80.767 383.153 80.3269C388.874 79.4467 394.375 75.7059 398.556 71.525C397.676 72.8453 396.576 74.6057 397.016 76.366C397.896 78.3465 399.876 78.5665 401.637 78.5665C405.377 78.3465 408.898 75.2658 411.539 72.8453C409.338 77.0262 406.918 81.2071 406.698 86.0481C406.478 88.2486 406.698 90.6692 407.578 92.6496C408.678 95.2902 411.099 95.2902 413.299 93.7498C412.199 97.2706 411.539 100.571 413.079 104.091C413.997 106.19 416.893 109.739 420.928 109.006C424.15 108.421 424.747 100.862 425.915 98.2238C428.095 93.3009 427.496 91.1858 426.609 85.8255Z" fill="black"/>
<path d="M367.105 82.275C365.135 82.275 363.229 81.5744 362.698 79.5772C362.388 78.4162 362.572 77.0088 362.847 76.0785C363.381 74.267 365.027 71.703 366.516 70.3634C366.695 70.2005 366.973 70.2146 367.137 70.3959C367.3 70.5764 367.285 70.8545 367.104 71.0174C365.741 72.2435 364.179 74.6754 363.691 76.3275C363.45 77.1426 363.286 78.3643 363.549 79.3501C364.21 81.8331 367.716 81.4001 368.414 81.2874C370.501 80.9521 372.048 80.4732 373.283 79.7832C373.494 79.6661 373.763 79.7409 373.882 79.9522C374.001 80.1643 373.925 80.4328 373.713 80.5516C372.385 81.2936 370.746 81.8041 368.554 82.157C368.079 82.2327 367.59 82.275 367.105 82.275Z" fill="white"/>
<path d="M390.333 108.126C390.325 108.126 390.316 108.126 390.309 108.125C387.413 107.965 385.604 107.296 384.776 106.079C383.748 104.567 384.405 102.593 385.041 100.685C385.165 100.313 385.289 99.9412 385.398 99.5777C386.373 96.3245 384.139 92.398 381.651 90.1262C379.687 88.3332 377.183 87.997 375.574 88.4565C374.66 88.7179 374.033 89.2328 373.853 89.8709C373.787 90.1051 373.548 90.2406 373.31 90.1755C373.076 90.1095 372.94 89.8665 373.006 89.6324C373.271 88.6941 374.118 87.9574 375.333 87.6106C377.179 87.0825 380.031 87.4557 382.244 89.4766C385.019 92.0098 387.331 96.1942 386.24 99.8312C386.129 100.203 386.002 100.583 385.876 100.964C385.308 102.67 384.721 104.433 385.504 105.585C386.157 106.547 387.791 107.106 390.358 107.249C390.601 107.262 390.786 107.469 390.773 107.712C390.76 107.945 390.565 108.126 390.333 108.126Z" fill="black"/>
<path d="M388.987 88.6704C388.891 88.6704 388.794 88.6396 388.713 88.5753C388.522 88.424 388.49 88.1476 388.642 87.9566C390.178 86.0157 394.629 82.0003 402.738 86.616C402.949 86.7366 403.023 87.0051 402.903 87.2163C402.783 87.4276 402.514 87.5006 402.303 87.3809C395.058 83.2581 391.067 86.3141 389.332 88.5032C389.244 88.6141 389.117 88.6704 388.987 88.6704Z" fill="black"/>
<path d="M399.324 95.4737C400.061 96.8494 400.025 98.3061 399.241 98.726C398.458 99.1476 397.223 98.373 396.484 96.9964C395.745 95.6224 395.785 94.1657 396.566 93.7476C397.351 93.3269 398.585 94.0988 399.324 95.4737Z" fill="black"/>
<path d="M397.107 94.4036C397.036 94.4036 396.966 94.3869 396.9 94.3517L394.408 93.0243C394.194 92.9099 394.112 92.6432 394.227 92.4293C394.342 92.2146 394.609 92.1362 394.822 92.248L397.314 93.5753C397.528 93.6898 397.61 93.9565 397.496 94.1704C397.416 94.3191 397.264 94.4036 397.107 94.4036Z" fill="black"/>
<path d="M382.723 96.9082C383.459 98.2839 383.423 99.7398 382.639 100.16C381.857 100.581 380.621 99.8067 379.883 98.43C379.144 97.0561 379.183 95.5993 379.965 95.1813C380.749 94.7605 381.983 95.5316 382.723 96.9082Z" fill="black"/>
<path d="M380.505 95.8365C380.435 95.8365 380.364 95.8198 380.298 95.7846L377.806 94.4572C377.592 94.3428 377.511 94.0761 377.625 93.8622C377.739 93.6466 378.008 93.5674 378.221 93.68L380.713 95.0073C380.927 95.1218 381.008 95.3885 380.894 95.6024C380.815 95.752 380.663 95.8365 380.505 95.8365Z" fill="black"/>
<path d="M393.29 115.614C391.19 115.614 389.128 113.664 387.482 110.123C387.415 109.98 387.43 109.812 387.522 109.683C387.613 109.555 387.764 109.485 387.924 109.5C388.375 109.545 388.841 109.592 389.298 109.592C390.997 109.592 393.009 108.924 398.27 105.509C398.412 105.416 398.592 105.414 398.738 105.501C398.882 105.588 398.964 105.75 398.948 105.918C398.398 111.899 396.23 115.614 393.29 115.614ZM388.619 110.446C390.026 113.182 391.707 114.734 393.29 114.734C395.56 114.734 397.358 111.63 397.973 106.745C392.456 110.256 390.609 110.586 388.619 110.446Z" fill="black"/>
<path d="M392.06 115.273C392.022 115.273 391.982 115.268 391.944 115.257C391.709 115.193 391.571 114.951 391.635 114.717C392.41 111.873 395.57 109.748 397.648 109.87C397.89 109.885 398.075 110.094 398.06 110.337C398.045 110.579 397.858 110.764 397.593 110.749C395.823 110.636 393.137 112.556 392.484 114.948C392.431 115.144 392.253 115.273 392.06 115.273Z" fill="black"/>
<path d="M339.149 190.076C343.329 186.017 363.275 159.621 371.039 150.185C378.801 140.749 387.76 140.511 399.942 140.391C396.943 128.371 397.739 128.105 398.337 128.224C398.934 128.344 410.315 130.826 421.662 122.943C424.669 122.137 424.546 134.18 427.413 135.733C430.279 137.287 449.389 133.344 458.825 142.781C468.261 152.216 474.83 174.55 474.83 174.55C469.694 182.792 434.818 208.709 390.986 196.766C390.149 193.063 384.177 187.329 382.385 180.045C374.98 189.719 369.725 196.884 369.725 196.884C369.725 196.884 346.196 195.332 339.149 190.076Z" fill="#F2AC30"/>
<path d="M409.081 144.011C404.283 144.011 400.939 142.07 399.624 140.695C399.457 140.519 399.462 140.241 399.638 140.073C399.813 139.905 400.092 139.912 400.26 140.087C402.728 142.668 412.853 147.303 426.523 135.166C426.705 135.004 426.984 135.021 427.145 135.203C427.307 135.385 427.289 135.662 427.108 135.824C420.04 142.099 413.843 144.011 409.081 144.011Z" fill="black"/>
<path d="M406.551 143.901C406.362 143.901 406.187 143.778 406.129 143.589C405.97 143.065 402.218 130.734 401.822 128.987C401.768 128.75 401.917 128.514 402.153 128.46C402.392 128.406 402.625 128.555 402.68 128.792C403.069 130.508 406.932 143.204 406.972 143.333C407.042 143.565 406.912 143.812 406.678 143.882C406.636 143.894 406.593 143.901 406.551 143.901Z" fill="black"/>
<path d="M411.727 143.818C411.54 143.818 411.366 143.698 411.306 143.509L406.689 128.779C406.617 128.548 406.745 128.301 406.978 128.228C407.209 128.158 407.457 128.285 407.53 128.517L412.147 143.247C412.219 143.479 412.091 143.726 411.858 143.798C411.815 143.811 411.771 143.818 411.727 143.818Z" fill="black"/>
<path d="M417.14 142.226C416.955 142.226 416.783 142.108 416.721 141.923L412.103 127.829C412.027 127.598 412.154 127.35 412.385 127.274C412.611 127.198 412.863 127.324 412.94 127.555L417.558 141.648C417.634 141.88 417.507 142.128 417.277 142.204C417.232 142.219 417.186 142.226 417.14 142.226Z" fill="black"/>
<path d="M422.08 139.68C421.89 139.68 421.714 139.556 421.658 139.365L417.755 126.147C417.687 125.914 417.82 125.669 418.053 125.601C418.285 125.53 418.531 125.665 418.599 125.898L422.502 139.116C422.571 139.349 422.438 139.594 422.205 139.663C422.162 139.674 422.121 139.68 422.08 139.68Z" fill="black"/>
<path d="M396.964 123.516C396.917 123.516 396.871 123.516 396.825 123.515C396.583 123.509 396.39 123.307 396.397 123.064C396.403 122.821 396.58 122.634 396.848 122.635C399.967 122.744 408.348 120.005 413.695 113.401C413.848 113.212 414.125 113.184 414.314 113.336C414.503 113.489 414.532 113.767 414.379 113.955C408.918 120.699 400.32 123.516 396.964 123.516Z" fill="black"/>
<path d="M384.056 184.904C383.887 184.904 383.726 184.806 383.653 184.641C380.738 178.014 380.512 171.402 380.512 169.534C380.512 169.291 380.709 169.094 380.952 169.094C381.195 169.094 381.392 169.291 381.392 169.534C381.392 170.833 381.54 177.649 384.459 184.287C384.557 184.509 384.456 184.769 384.233 184.867C384.176 184.891 384.116 184.904 384.056 184.904Z" fill="black"/>
<path d="M448.194 193.264C448.003 193.264 447.828 193.139 447.772 192.948C447.733 192.814 443.813 179.399 442.162 174.33C442.087 174.098 442.214 173.851 442.444 173.775C442.68 173.701 442.923 173.827 442.999 174.058C444.655 179.14 448.578 192.566 448.617 192.701C448.685 192.935 448.551 193.179 448.318 193.247C448.277 193.258 448.235 193.264 448.194 193.264Z" fill="black"/>
<path d="M419.338 109.78C417.973 109.78 416.398 109.328 414.71 108.443C414.495 108.33 414.411 108.065 414.524 107.849C414.637 107.632 414.906 107.552 415.119 107.663C417.127 108.716 418.93 109.109 420.319 108.798C423.593 108.054 424.953 102.318 424.953 99.4115C424.953 99.2231 425.074 99.0559 425.252 98.9943C425.429 98.9344 425.627 98.9934 425.743 99.1431C427.24 101.09 429.001 101.998 431.286 101.998C433.516 101.848 435.67 99.3807 435.947 97.439C435.982 97.1987 436.21 97.028 436.445 97.0658C436.685 97.1001 436.853 97.3237 436.819 97.564C436.49 99.8736 434.014 102.698 431.316 102.878H431.313C429.11 102.878 427.299 102.111 425.786 100.542C425.483 104.143 423.787 108.913 420.514 109.657C420.143 109.739 419.75 109.78 419.338 109.78Z" fill="white"/>
</g>
<path d="M399.447 197.32C399.443 197.32 399.442 197.32 399.437 197.32C368.373 197.32 337.549 191.149 320.593 185.866C280.473 173.367 259.952 140.319 257.858 84.8355C256.885 59.0485 265.683 39.1307 284.009 25.6347C299.178 14.4633 318.235 9.37052 334.873 5.86296C353.329 1.97339 370.31 0 385.346 0C412.459 0 434.165 6.39987 449.861 19.0201C462.776 29.4037 469.455 42.2166 473.829 52.22C479.402 64.959 483.11 85.3196 483.508 105.358C483.855 122.823 481.93 148.288 470.794 170.424C459.612 192.652 425.825 197.32 399.447 197.32ZM385.345 0.880191C370.37 0.880191 353.45 2.84654 335.054 6.72378C296.167 14.9219 256.691 30.6087 258.737 84.802C260.815 139.868 281.134 172.651 320.853 185.026C339.086 190.707 370.455 196.439 399.437 196.44C399.44 196.44 399.444 196.44 399.446 196.44C425.577 196.44 459.026 191.858 470.007 170.029C481.062 148.053 482.972 122.74 482.627 105.376C482.232 85.4454 478.551 65.2125 473.022 52.5729C466.838 38.4353 450.41 0.880191 385.345 0.880191Z" fill="black"/>
<path d="M297.218 45.5879H262.715C256.716 45.5879 252.134 50.7467 252.501 56.9837L253.431 72.836C253.769 78.6135 258.61 83.1439 264.222 83.0585L289.187 82.6827C290.489 86.5564 291.443 90.3254 293.94 90.1423C295.727 89.9663 296.493 86.1876 297.002 82.541C302.238 82.2162 306.55 77.7536 306.746 72.2524L307.308 56.7346C307.528 50.6314 303.023 45.5879 297.218 45.5879Z" fill="white"/>
<path d="M293.766 90.5892C291.321 90.5892 290.314 87.5226 289.149 83.9719C289.057 83.6929 288.965 83.4112 288.87 83.1287L264.064 83.501C258.204 83.501 253.34 78.8281 252.991 72.8621L252.061 57.0099C251.872 53.8042 252.975 50.6813 255.088 48.4421C257.09 46.3182 259.799 45.1484 262.715 45.1484H297.218C300.011 45.1484 302.632 46.2716 304.6 48.3118C306.714 50.5035 307.861 53.5798 307.747 56.7502L307.185 72.268C306.986 77.8106 302.714 82.4333 297.386 82.9518C296.826 86.8396 296.008 90.3806 293.983 90.5804C293.903 90.5865 293.834 90.5892 293.766 90.5892ZM289.185 82.2432C289.375 82.2432 289.542 82.3638 289.603 82.5434C289.733 82.9298 289.86 83.3162 289.986 83.6973C291.072 87.0059 292.027 89.8498 293.908 89.7037C295.58 89.5391 296.296 84.4111 296.566 82.4809C296.595 82.274 296.766 82.1156 296.974 82.1024C302.02 81.7899 306.12 77.4567 306.307 72.2372L306.869 56.7194C306.975 53.7866 305.918 50.9445 303.968 48.9236C302.168 47.0576 299.772 46.0295 297.22 46.0295H262.716C260.046 46.0295 257.565 47.1007 255.729 49.0468C253.783 51.1109 252.768 53.9944 252.941 56.9597L253.871 72.812C254.187 78.2216 258.761 82.6217 264.066 82.6217L264.215 82.6199L289.18 82.2441C289.18 82.2441 289.183 82.2432 289.185 82.2432Z" fill="black"/>
<path d="M269.363 64.8101C269.363 66.7228 267.848 68.2737 265.98 68.2737C264.111 68.2737 262.597 66.7228 262.597 64.8101C262.597 62.8966 264.111 61.3457 265.98 61.3457C267.848 61.3466 269.363 62.8966 269.363 64.8101Z" fill="#70BADB"/>
<path d="M282.735 64.8101C282.735 66.7228 281.22 68.2737 279.351 68.2737C277.483 68.2737 275.968 66.7228 275.968 64.8101C275.968 62.8966 277.483 61.3457 279.351 61.3457C281.22 61.3466 282.735 62.8966 282.735 64.8101Z" fill="#70BADB"/>
<path d="M296.106 64.8101C296.106 66.7228 294.591 68.2737 292.723 68.2737C290.854 68.2737 289.339 66.7228 289.339 64.8101C289.339 62.8966 290.854 61.3457 292.723 61.3457C294.592 61.3466 296.106 62.8966 296.106 64.8101Z" fill="#70BADB"/>
<path d="M408.192 343.679H373.934C373.691 343.679 373.494 343.482 373.494 343.239C373.494 342.996 373.691 342.799 373.934 342.799H408.193C408.436 342.799 408.633 342.996 408.633 343.239C408.632 343.483 408.436 343.679 408.192 343.679Z" fill="black"/>
<path d="M306.944 218.981C296.792 214.084 294.881 203.096 309.691 198.916C299.3 186.136 309.81 178.731 316.858 177.297C323.904 175.864 337.878 179.447 351.374 191.032C364.871 202.617 370.724 203.215 374.785 212.292C378.845 221.369 376.934 228.416 372.873 237.613C368.813 246.809 368.335 249.676 376.218 257.081C384.101 264.486 390.55 271.891 385.057 285.865C379.562 299.839 313.872 294.703 310.767 285.148C307.661 275.593 315.066 240.598 315.066 240.598L306.944 218.981Z" fill="black"/>
<path d="M299.42 276.191C297.867 269.383 299.67 253.752 313.274 245.973C323.197 240.299 328.443 248.243 328.443 248.243L329.995 274.399C329.995 274.399 302.764 276.31 299.42 276.191Z" fill="black"/>
<path d="M222.978 236.896C221.785 235.225 219.995 232.936 218.324 234.131C216.652 235.324 219.314 245.023 226.801 243.823C224.889 240.957 222.978 236.896 222.978 236.896Z" fill="white"/>
<path d="M225.546 244.366C221.35 244.366 218.762 240.937 217.822 238.002C217.334 236.481 217.106 234.46 218.068 233.773C218.452 233.499 218.868 233.359 219.303 233.359C220.789 233.359 222.12 234.937 223.336 236.64C223.395 236.749 225.296 240.774 227.167 243.579C227.25 243.704 227.264 243.862 227.204 243.999C227.144 244.136 227.018 244.234 226.87 244.258C226.423 244.33 225.978 244.366 225.546 244.366ZM219.303 234.24C219.051 234.24 218.816 234.321 218.58 234.49C218.252 234.723 218.099 235.98 218.661 237.734C219.551 240.514 221.828 243.486 225.546 243.486C225.546 243.486 225.546 243.486 225.547 243.486C225.711 243.486 225.878 243.48 226.045 243.468C224.274 240.67 222.598 237.121 222.58 237.083C221.997 236.281 220.54 234.24 219.303 234.24Z" fill="black"/>
<path d="M244.119 237.973C240.059 236.659 237.431 233.435 238.746 230.805C240.059 228.179 244.359 231.642 247.345 234.03C250.332 236.419 253.198 236.897 253.198 236.897C253.198 236.897 248.777 239.166 244.119 237.973Z" fill="white"/>
<path d="M246.961 238.76C245.938 238.76 244.945 238.639 244.01 238.399C241.288 237.519 239.113 235.783 238.306 233.862C237.835 232.737 237.851 231.612 238.351 230.61C238.739 229.835 239.395 229.426 240.249 229.426C242.291 229.426 245.213 231.764 247.562 233.642C250.471 235.969 253.242 236.459 253.27 236.464C253.456 236.495 253.602 236.643 253.632 236.831C253.66 237.018 253.566 237.203 253.397 237.289C253.281 237.349 250.492 238.76 246.961 238.76ZM240.25 230.305C239.73 230.305 239.377 230.527 239.139 231.002C238.751 231.779 238.743 232.627 239.118 233.52C239.827 235.212 241.796 236.758 244.255 237.553C245.092 237.766 246.011 237.879 246.961 237.879C248.959 237.879 250.735 237.384 251.834 236.988C250.683 236.606 248.903 235.84 247.07 234.373C244.889 232.631 241.983 230.305 240.25 230.305Z" fill="black"/>
<path d="M248.38 274.642C248.062 267.634 247.266 253.62 246.151 249.162C245.036 244.703 238.028 245.975 237.551 245.817C237.074 245.657 228.355 248.961 224.055 240.243C219.755 231.524 223.219 228.299 225.608 229.135C226.444 226.268 228.833 227.105 230.146 228.537C231.34 226.029 234.804 228.658 235.64 231.882C236.476 235.107 237.312 237.974 244 237.138C250.69 236.302 258.93 234.391 262.155 244.065C265.38 253.739 268.007 268.789 268.007 268.789C268.007 268.789 266.734 278.345 248.38 274.642Z" fill="white"/>
<path d="M256.035 275.934C253.731 275.934 251.127 275.644 248.293 275.072C248.095 275.032 247.949 274.863 247.94 274.66C247.726 269.922 246.93 254.09 245.724 249.267C245.215 247.233 243.202 246.202 239.742 246.202C239.18 246.202 238.682 246.227 238.304 246.248C237.868 246.27 237.626 246.279 237.479 246.251C237.383 246.258 237.215 246.296 236.986 246.342C236.239 246.491 234.989 246.74 233.479 246.74C229.089 246.74 225.694 244.56 223.66 240.437C220.667 234.369 221.537 231.346 222.322 230.084C223.013 228.971 224.177 228.408 225.32 228.606C225.927 227.029 227.007 226.781 227.627 226.781C228.423 226.781 229.304 227.169 230.063 227.838C230.446 227.357 230.964 227.097 231.566 227.097C233.318 227.097 235.422 229.282 236.067 231.77C236.773 234.493 237.383 236.844 241.846 236.844C242.478 236.844 243.185 236.795 243.946 236.7C244.436 236.639 244.936 236.572 245.44 236.504C247.404 236.239 249.436 235.966 251.43 235.966C255.074 235.966 260.195 236.792 262.574 243.925C265.772 253.519 268.416 268.56 268.442 268.712C268.45 268.756 268.451 268.802 268.445 268.846C268.434 268.917 267.366 275.934 256.035 275.934ZM248.804 274.277C251.45 274.793 253.881 275.054 256.035 275.054C266.05 275.054 267.436 269.434 267.561 268.789C267.356 267.63 264.799 253.389 261.737 244.204C259.563 237.683 255.086 236.847 251.429 236.847C249.495 236.847 247.492 237.116 245.557 237.377C245.05 237.446 244.548 237.513 244.055 237.575C243.258 237.674 242.515 237.726 241.846 237.726C236.701 237.726 235.912 234.68 235.215 231.994C234.628 229.733 232.772 227.979 231.566 227.979C231.118 227.979 230.784 228.224 230.544 228.727C230.481 228.859 230.356 228.952 230.212 228.973C230.064 228.996 229.92 228.944 229.822 228.836C229.159 228.113 228.318 227.663 227.627 227.663C226.876 227.663 226.339 228.2 226.03 229.259C225.996 229.375 225.916 229.472 225.809 229.527C225.702 229.584 225.575 229.59 225.463 229.551C224.6 229.251 223.632 229.645 223.071 230.55C222.517 231.442 221.542 234.151 224.451 240.05C226.353 243.907 229.391 245.862 233.481 245.862C234.904 245.862 236.1 245.623 236.815 245.48C237.154 245.412 237.359 245.371 237.503 245.371C237.551 245.371 237.647 245.385 237.692 245.399C237.854 245.391 238.036 245.381 238.26 245.37C238.649 245.351 239.163 245.323 239.744 245.323C243.66 245.323 245.961 246.579 246.58 249.055C247.776 253.844 248.567 269.14 248.804 274.277Z" fill="black"/>
<path d="M227.456 244.912C227.363 244.912 227.268 244.882 227.188 244.82C224.484 242.731 222.689 239.608 221.855 235.539C221.806 235.301 221.96 235.068 222.197 235.019C222.438 234.97 222.668 235.123 222.717 235.362C223.508 239.219 225.193 242.168 227.726 244.124C227.919 244.273 227.954 244.549 227.805 244.741C227.719 244.854 227.588 244.912 227.456 244.912Z" fill="black"/>
<path d="M238.746 243.307C238.74 243.307 238.733 243.307 238.726 243.307C236.266 243.2 234.229 242.148 232.671 240.179C229.69 236.414 229.351 230.347 229.713 228.452C229.758 228.213 229.986 228.055 230.228 228.102C230.467 228.148 230.623 228.378 230.578 228.617C230.249 230.337 230.596 236.141 233.361 239.634C234.752 241.393 236.571 242.333 238.764 242.428C239.007 242.44 239.195 242.645 239.185 242.887C239.174 243.123 238.98 243.307 238.746 243.307Z" fill="black"/>
<path d="M234.089 246.534C234.076 246.534 234.064 246.533 234.052 246.532C231.753 246.34 229.834 245.268 228.349 243.347C224.835 238.798 224.856 230.89 225.174 229.059C225.216 228.819 225.443 228.655 225.684 228.701C225.923 228.743 226.083 228.971 226.042 229.21C225.738 230.957 225.713 238.493 229.046 242.809C230.374 244.527 232.083 245.486 234.126 245.656C234.368 245.675 234.547 245.889 234.527 246.131C234.508 246.361 234.315 246.534 234.089 246.534Z" fill="black"/>
<path d="M316.856 282.521C320.798 284.313 332.263 288.374 353.046 283.119C352.328 297.451 350.896 327.669 350.896 327.669C350.896 327.669 333.577 337.463 321.991 333.403C318.767 327.908 316.856 282.521 316.856 282.521Z" fill="black"/>
<path d="M320.404 271.181C323.868 270.703 327.606 269.385 327.247 263.651C326.888 257.918 325.933 250.393 325.933 250.393C316.976 250.274 308.137 245.615 304.077 236.419C300.015 227.223 305.39 222.445 308.376 212.891C311.362 203.336 316.977 195.453 329.516 196.289C342.057 197.125 348.745 203.097 348.745 203.097C346.596 214.324 344.446 230.209 349.104 231.165C353.762 232.12 354.957 223.88 354.957 223.88C362.004 220.416 369.385 224.632 366.542 230.806C363.078 238.331 354.837 234.509 354.837 234.509C353.166 238.809 346.119 243.587 346.119 243.587C347.194 252.425 348.264 267.045 354.952 267.882C352.204 281.856 350.777 286.943 350.777 286.943C350.777 286.943 326.77 292.795 318.05 284.196C318.409 281.209 320.404 271.181 320.404 271.181Z" fill="white"/>
<path d="M334.37 289.327C326.577 289.327 320.982 287.706 317.74 284.509C317.644 284.413 317.596 284.278 317.612 284.143C317.968 281.174 319.889 271.506 319.971 271.096C320.007 270.912 320.157 270.772 320.343 270.747C323.729 270.279 327.144 269.075 326.807 263.68C326.499 258.752 325.739 252.423 325.543 250.827C315.799 250.561 307.442 245.137 303.673 236.599C300.684 229.834 302.643 225.453 305.122 219.905C306.101 217.714 307.114 215.448 307.954 212.76C311.74 200.646 318.783 195.133 329.543 195.851C342.091 196.687 348.759 202.522 349.037 202.769C349.152 202.872 349.205 203.029 349.176 203.18C345.95 220.028 345.955 230.071 349.191 230.735C349.411 230.781 349.628 230.803 349.837 230.803C353.464 230.803 354.51 223.888 354.519 223.818C354.541 223.674 354.63 223.55 354.761 223.486C356.481 222.641 358.331 222.193 360.109 222.193C363.029 222.193 365.522 223.362 366.777 225.322C367.817 226.946 367.875 228.96 366.94 230.991C365.065 235.065 361.83 235.921 359.448 235.921C357.504 235.921 355.824 235.373 355.07 235.084C353.293 238.953 347.783 242.959 346.585 243.798C346.666 244.472 346.747 245.177 346.831 245.906C347.842 254.692 349.227 266.723 355.003 267.446C355.124 267.462 355.234 267.526 355.306 267.625C355.377 267.723 355.404 267.847 355.38 267.968C352.661 281.8 351.213 287.012 351.198 287.063C351.155 287.216 351.032 287.335 350.878 287.372C350.8 287.39 342.754 289.327 334.37 289.327ZM318.514 284.033C321.61 286.963 326.942 288.448 334.37 288.448C341.817 288.448 349.001 286.899 350.42 286.575C350.729 285.408 352.102 280.052 354.432 268.239C348.363 266.906 346.977 254.861 345.958 246.006C345.864 245.184 345.772 244.391 345.682 243.64C345.662 243.476 345.735 243.315 345.872 243.222C345.94 243.175 352.823 238.472 354.427 234.35C354.471 234.237 354.56 234.147 354.673 234.102C354.785 234.056 354.912 234.06 355.021 234.11C355.041 234.12 357.062 235.041 359.449 235.041C362.541 235.041 364.792 233.554 366.142 230.623C366.959 228.848 366.923 227.179 366.037 225.796C364.945 224.092 362.729 223.074 360.11 223.074C358.536 223.074 356.896 223.455 355.355 224.178C355.126 225.495 353.839 231.684 349.839 231.684C349.57 231.684 349.294 231.655 349.016 231.597C345.092 230.792 344.839 221.261 348.265 203.269C347.101 202.33 340.58 197.468 329.487 196.729C319.067 196.036 312.494 201.188 308.796 213.023C307.94 215.759 306.87 218.152 305.928 220.264C303.537 225.612 301.65 229.836 304.479 236.242C308.158 244.573 316.38 249.828 325.94 249.954C326.159 249.956 326.343 250.12 326.37 250.339C326.38 250.414 327.331 257.943 327.686 263.625C328.063 269.648 324.016 271.077 320.775 271.573C320.447 273.231 318.888 281.179 318.514 284.033Z" fill="black"/>
<path d="M317.573 231.127C317.499 231.127 317.424 231.109 317.355 231.07C314.835 229.634 313.514 228.227 313.316 226.769C313.071 224.957 314.539 223.485 315.959 222.061C316.236 221.783 316.514 221.505 316.774 221.229C319.099 218.753 318.852 214.242 317.639 211.098C317.119 209.75 316.242 208.951 315.031 208.726C313.433 208.432 311.709 209.223 310.892 210.122C310.728 210.302 310.451 210.315 310.271 210.151C310.09 209.988 310.077 209.71 310.241 209.53C311.242 208.428 313.263 207.506 315.193 207.86C316.245 208.057 317.668 208.723 318.462 210.782C319.814 214.287 320.015 219.063 317.415 221.832C317.149 222.114 316.867 222.398 316.582 222.684C315.314 223.956 314.002 225.271 314.188 226.652C314.345 227.804 315.556 229.032 317.79 230.305C318.001 230.426 318.075 230.694 317.955 230.906C317.874 231.047 317.726 231.127 317.573 231.127Z" fill="black"/>
<path d="M339.152 216.236C339.01 216.236 338.872 216.167 338.786 216.041C334.143 209.115 329.207 210.069 326.678 211.257C326.46 211.36 326.197 211.266 326.092 211.045C325.989 210.825 326.084 210.562 326.304 210.459C328.547 209.41 334.322 207.8 339.517 215.55C339.653 215.752 339.599 216.026 339.396 216.16C339.322 216.212 339.236 216.236 339.152 216.236Z" fill="black"/>
<path d="M332.062 222.499C331.596 223.988 330.53 224.982 329.681 224.718C328.832 224.452 328.522 223.029 328.986 221.539C329.45 220.05 330.517 219.056 331.365 219.323C332.214 219.588 332.526 221.008 332.062 222.499Z" fill="black"/>
<path d="M331.587 220.298C331.397 220.298 331.221 220.174 331.165 219.983L330.369 217.275C330.3 217.041 330.433 216.797 330.666 216.729C330.903 216.661 331.145 216.792 331.213 217.026L332.009 219.734C332.078 219.968 331.945 220.212 331.712 220.28C331.67 220.293 331.628 220.298 331.587 220.298Z" fill="black"/>
<path d="M314.664 219.235C314.199 220.724 313.133 221.717 312.284 221.454C311.434 221.189 311.125 219.765 311.588 218.276C312.053 216.786 313.12 215.793 313.968 216.059C314.815 216.324 315.129 217.744 314.664 219.235Z" fill="black"/>
<path d="M314.188 217.032C313.998 217.032 313.822 216.908 313.767 216.717L312.97 214.008C312.902 213.774 313.034 213.53 313.269 213.462C313.5 213.392 313.747 213.525 313.814 213.759L314.611 216.469C314.68 216.702 314.547 216.946 314.313 217.014C314.271 217.027 314.23 217.032 314.188 217.032Z" fill="black"/>
<path d="M317.398 239.962C316.47 239.962 315.693 239.643 315.088 239.011C314.019 237.893 313.542 235.823 313.671 232.858C313.679 232.687 313.785 232.536 313.943 232.471C314.101 232.406 314.282 232.437 314.408 232.553C315.039 233.129 316.889 233.803 320.03 233.803C321.989 233.803 324.146 233.527 326.268 233.008C326.459 232.962 326.651 233.043 326.75 233.208C326.849 233.372 326.831 233.582 326.704 233.726C323.219 237.689 319.828 239.962 317.398 239.962ZM314.531 233.69C314.521 235.951 314.93 237.572 315.724 238.402C317.399 240.149 321.127 238.363 325.112 234.162C320.85 234.997 316.564 234.753 314.531 233.69Z" fill="black"/>
<path d="M315.543 239.17C315.468 239.17 315.392 239.152 315.324 239.112C315.113 238.991 315.04 238.722 315.161 238.511C316.196 236.71 320.4 235.587 322.91 236.438C323.14 236.517 323.264 236.767 323.185 236.996C323.108 237.227 322.856 237.348 322.627 237.272C320.356 236.501 316.691 237.615 315.924 238.949C315.843 239.091 315.695 239.17 315.543 239.17Z" fill="black"/>
<path d="M325.746 250.873C325.488 250.871 325.254 250.692 325.255 250.432C325.256 250.189 325.453 249.993 325.695 249.993C325.714 249.991 325.73 249.993 325.748 249.993C330.207 249.993 337.395 247.421 342.209 244.87C342.424 244.755 342.691 244.838 342.804 245.053C342.919 245.267 342.837 245.534 342.622 245.648C337.71 248.25 330.35 250.873 325.746 250.873Z" fill="black"/>
<path d="M248.062 272.61C250.092 273.326 260.005 273.326 268.008 268.787C269.321 276.072 274.218 297.811 274.218 297.811C281.026 290.405 290.461 281.687 294.762 277.984C299.062 274.282 305.63 270.699 312.08 270.937C318.53 271.176 321.873 270.818 321.873 270.818C321.873 270.818 316.738 279.895 319.366 305.096C321.992 330.298 322.829 333.641 322.829 333.641L313.991 332.806C313.991 332.806 315.783 327.192 310.408 320.743C305.034 314.293 303.481 310.233 302.764 305.455C297.031 311.307 281.743 327.55 268.963 327.67C256.184 327.79 251.645 316.324 249.854 301.991C248.062 287.658 248.062 272.61 248.062 272.61Z" fill="#70BADB"/>
<path d="M346.478 327.512C342.895 328.586 327.484 333.163 320.438 332.685C313.391 332.207 306.105 328.742 300.372 330.176C294.639 331.609 284.805 338.835 285.502 341.701C286.039 343.911 288.667 342.717 288.667 342.717C289.623 344.748 291.534 343.672 291.534 343.672C292.49 345.703 296.909 344.508 299.537 342.239C302.164 339.97 305.388 338.776 309.45 340.208C313.511 341.641 319.841 343.672 327.246 344.03C334.651 344.389 352.09 343.574 352.09 343.574C352.09 343.574 354.718 333.244 346.478 327.512Z" fill="white"/>
<path d="M293.647 345.153C292.395 345.153 291.72 344.706 291.358 344.227C291.116 344.312 290.779 344.396 290.408 344.396C289.823 344.396 289.037 344.19 288.464 343.263C288.152 343.363 287.689 343.479 287.202 343.479C286.093 343.479 285.338 342.884 285.075 341.805C284.243 338.381 294.762 331.125 300.266 329.749C301.231 329.509 302.26 329.391 303.413 329.391C306.183 329.391 309.125 330.07 312.24 330.79C314.943 331.415 317.738 332.061 320.468 332.245C326.668 332.673 339.517 329.14 346.352 327.091C346.481 327.052 346.62 327.074 346.73 327.151C355.124 332.99 352.543 343.578 352.516 343.683C352.468 343.872 352.304 344.006 352.11 344.014C351.992 344.021 340.292 344.562 332.074 344.562H332.073C330.112 344.562 328.481 344.531 327.224 344.47C320.011 344.121 313.858 342.232 309.304 340.625C305.847 339.406 302.762 340.034 299.824 342.574C298.066 344.092 295.525 345.153 293.647 345.153ZM291.535 343.233C291.58 343.233 291.626 343.24 291.669 343.254C291.785 343.291 291.88 343.375 291.932 343.485C292.239 344.135 293.034 344.272 293.646 344.272C295.333 344.272 297.636 343.3 299.249 341.905C302.429 339.159 305.838 338.467 309.596 339.794C314.095 341.382 320.169 343.248 327.267 343.591C328.51 343.651 330.127 343.682 332.073 343.682C339.486 343.682 349.746 343.24 351.73 343.151C352.069 341.414 353.301 332.948 346.399 327.995C339.451 330.071 326.687 333.552 320.408 333.124C317.608 332.934 314.778 332.28 312.042 331.648C308.976 330.939 306.082 330.271 303.412 330.271C302.331 330.271 301.372 330.38 300.478 330.604C294.712 332.045 285.33 339.134 285.93 341.597C286.096 342.28 286.5 342.6 287.201 342.6C287.848 342.6 288.479 342.32 288.486 342.317C288.706 342.221 288.964 342.314 289.065 342.53C289.377 343.194 289.817 343.517 290.406 343.517C290.897 343.517 291.315 343.29 291.319 343.288C291.387 343.251 291.46 343.233 291.535 343.233Z" fill="black"/>
<path d="M400.583 319.068C395.327 304.975 390.789 289.688 386.489 282.76C382.189 275.832 377.053 269.383 367.499 268.427C360.572 267.949 354.36 267.711 354.36 267.711C352.091 273.683 344.806 302.587 348.628 326.833C346.955 326.833 345.761 327.788 345.761 327.788C349.583 330.894 351.732 336.507 350.777 344.031C367.378 345.345 384.936 342.718 390.668 341.284C396.403 339.851 405.837 333.163 400.583 319.068ZM366.901 323.488L367.737 313.456L370.484 322.772L366.901 323.488Z" fill="#70BADB"/>
<path d="M241.648 237.652C241.417 237.652 241.224 237.473 241.209 237.24C241.194 236.997 241.378 236.788 241.621 236.773C242.441 236.721 243.429 236.629 244.504 236.527C248.114 236.186 252.606 235.764 255.291 236.456C255.527 236.517 255.668 236.757 255.607 236.992C255.546 237.227 255.307 237.369 255.071 237.308C252.531 236.652 248.126 237.069 244.587 237.402C243.501 237.504 242.504 237.6 241.675 237.651C241.667 237.652 241.657 237.652 241.648 237.652Z" fill="black"/>
<path d="M303.121 307.923C302.916 307.923 302.732 307.779 302.69 307.569C301.892 303.573 302.784 298.45 304.025 295.146C304.11 294.918 304.365 294.8 304.591 294.889C304.819 294.974 304.935 295.228 304.848 295.456C303.957 297.834 302.68 303.026 303.554 307.397C303.601 307.636 303.447 307.867 303.208 307.915C303.179 307.92 303.15 307.923 303.121 307.923Z" fill="black"/>
<path d="M346.028 327.908C345.832 327.908 345.654 327.778 345.602 327.581C345.541 327.346 345.681 327.104 345.915 327.043C349.778 326.02 373.978 321.272 382.511 320.541C382.749 320.52 382.966 320.699 382.987 320.941C383.007 321.183 382.827 321.397 382.586 321.417C374.09 322.146 349.988 326.875 346.14 327.893C346.102 327.904 346.065 327.908 346.028 327.908Z" fill="black"/>
<path d="M368.334 315.449C368.148 315.449 367.975 315.329 367.914 315.142C367.05 312.441 364.925 303.919 363.904 299.823L363.607 298.633C363.549 298.398 363.691 298.159 363.927 298.099C364.159 298.04 364.402 298.184 364.46 298.42L364.758 299.61C365.776 303.697 367.897 312.201 368.752 314.875C368.826 315.106 368.699 315.354 368.467 315.428C368.424 315.442 368.379 315.449 368.334 315.449Z" fill="black"/>
<path d="M291.537 344.112C291.523 344.112 291.51 344.112 291.496 344.111C291.254 344.089 291.075 343.874 291.098 343.633C291.243 342.033 297.674 336.667 303.478 335.009C303.714 334.938 303.955 335.077 304.022 335.31C304.088 335.545 303.954 335.788 303.72 335.854C297.88 337.523 292.068 342.677 291.973 343.712C291.954 343.941 291.761 344.112 291.537 344.112Z" fill="black"/>
<path d="M288.668 343.158C288.425 343.158 288.228 342.961 288.228 342.718C288.228 340.422 293.047 335.58 300.6 333.22C300.835 333.146 301.078 333.277 301.151 333.508C301.224 333.741 301.095 333.987 300.863 334.06C293.108 336.483 289.109 341.227 289.109 342.718C289.108 342.961 288.911 343.158 288.668 343.158Z" fill="black"/>
<path d="M319.837 342.376H282.12L266.942 298.046C265.618 294.18 261.191 291.018 257.105 291.018H192.695C188.61 291.018 186.35 294.181 187.673 298.046L203.309 343.712C205.019 348.146 205.22 351.795 209.665 351.795H319.838C322.438 351.795 324.547 349.687 324.547 347.084C324.546 344.483 322.438 342.376 319.837 342.376Z" fill="#F2AC30"/>
<path d="M278.797 343.634H203.885C203.642 343.634 203.445 343.437 203.445 343.194C203.445 342.951 203.642 342.754 203.885 342.754H278.797C279.04 342.754 279.237 342.951 279.237 343.194C279.237 343.437 279.04 343.634 278.797 343.634Z" fill="black"/>
<path d="M233.838 327.822C230.583 327.822 227.003 324.592 225.857 320.622C225.2 318.349 225.438 316.229 226.51 314.803C227.297 313.756 228.487 313.18 229.863 313.18C233.12 313.18 236.699 316.41 237.842 320.38C238.5 322.651 238.262 324.772 237.189 326.199C236.402 327.245 235.213 327.822 233.838 327.822ZM229.863 314.06C228.755 314.06 227.839 314.499 227.214 315.331C226.31 316.533 226.124 318.373 226.703 320.377C227.748 323.996 230.949 326.941 233.839 326.941C234.945 326.941 235.861 326.501 236.486 325.67C237.391 324.466 237.577 322.627 236.997 320.623C235.954 317.004 232.754 314.06 229.863 314.06Z" fill="black"/>
</svg>
