<svg width="32" height="32" viewBox="0 0 32 32" fill="none" xmlns="http://www.w3.org/2000/svg">
<g clip-path="url(#clip0_231_2)">
<rect width="32" height="32" rx="16" fill="#F38126"/>
<path d="M36.2598 7.7998C36.2776 7.80586 36.2928 7.81353 36.3047 7.82031C36.3307 7.83526 36.3558 7.85444 36.3779 7.87402C36.4224 7.91346 36.4672 7.96417 36.5049 8.01465C36.5421 8.06462 36.5776 8.12062 36.5996 8.17188C36.6102 8.19669 36.6208 8.22814 36.624 8.26074C36.6268 8.29012 36.626 8.35233 36.5742 8.39844L36.5693 8.40234C36.5694 8.40239 36.5552 8.41518 36.5215 8.44531C36.4889 8.47446 36.4414 8.51709 36.3799 8.57227C36.2564 8.68305 36.0762 8.84461 35.8457 9.05176C35.3846 9.46616 34.722 10.0626 33.9062 10.7959L27.5693 16.4893C22.6555 20.9064 18.5808 24.564 18.5234 24.6143L18.5215 24.6152C18.4517 24.6743 18.3659 24.6674 18.2949 24.6475C18.2229 24.6272 18.1293 24.5836 18.0049 24.5166C17.8789 24.4487 17.712 24.3517 17.4912 24.2178L16.6514 23.6982C13.6067 21.7999 11.486 20.4807 10.1162 19.6318C9.43161 19.2076 8.93473 18.9005 8.60352 18.6973C8.43788 18.5956 8.31366 18.5201 8.22852 18.4688C8.1859 18.443 8.15297 18.4237 8.12988 18.4102C8.12817 18.4091 8.12656 18.4081 8.125 18.4072C8.10453 18.4139 8.07506 18.4245 8.03613 18.4414C7.95064 18.4786 7.82995 18.5382 7.67578 18.6191C7.36766 18.781 6.9335 19.0255 6.39746 19.3398H6.39648L0.379883 22.832C-0.802743 23.5178 -1.89566 24.1525 -2.70312 24.6221C-3.1069 24.8569 -3.43954 25.0503 -3.67578 25.1885C-3.79392 25.2576 -3.88818 25.313 -3.95508 25.3525C-3.9884 25.3722 -4.01495 25.3879 -4.03418 25.3994C-4.04355 25.405 -4.05099 25.4096 -4.05664 25.4131C-4.05947 25.4148 -4.06182 25.4169 -4.06348 25.418C-4.06513 25.419 -4.06641 25.4189 -4.06641 25.4189L-4.06738 25.4199C-4.10077 25.4416 -4.13539 25.4624 -4.16895 25.4766C-4.20375 25.4912 -4.25075 25.5036 -4.30273 25.4922C-4.35404 25.4808 -4.3907 25.451 -4.41602 25.4238C-4.44074 25.3973 -4.46365 25.3635 -4.48535 25.3301L-4.4873 25.3271C-4.51509 25.282 -4.54335 25.2328 -4.56641 25.1885C-4.58799 25.1469 -4.60972 25.1008 -4.62012 25.0645C-4.63358 25.0173 -4.61519 24.9803 -4.61035 24.9707C-4.60338 24.957 -4.59612 24.9465 -4.5918 24.9414C-4.58258 24.9306 -4.57201 24.9215 -4.56445 24.915C-4.54825 24.9012 -4.52671 24.8847 -4.50195 24.8672C-4.45152 24.8314 -4.37747 24.7833 -4.28418 24.7236C-4.09689 24.6038 -3.82447 24.4357 -3.48633 24.2314C-2.80965 23.8226 -1.86615 23.2658 -0.805664 22.6494L1.87891 21.084C2.22581 20.8803 2.5086 20.7131 2.70605 20.5957C2.80473 20.537 2.88234 20.4913 2.93555 20.459C2.9512 20.4495 2.96439 20.4405 2.97559 20.4336L2.95996 20.3779C2.95245 20.3572 2.9431 20.334 2.93066 20.3105L2.92871 20.3086C2.88243 20.216 2.85517 20.0614 2.83789 19.8896C2.81998 19.7115 2.81152 19.4939 2.81152 19.2607C2.81153 18.7945 2.84702 18.2553 2.91797 17.8262L2.95996 17.6064C3.07277 17.0688 3.28509 16.3613 3.51562 15.7119C3.64764 15.34 3.78612 14.9845 3.91699 14.6885C4.04649 14.3956 4.17248 14.1519 4.2793 14.0088V14.0078L4.36133 13.9199C4.46007 13.8292 4.61503 13.7285 4.86914 13.5879C5.21353 13.3973 5.75956 13.1227 6.63672 12.6924L8.1709 11.9521C8.37052 11.8573 8.53441 11.78 8.65039 11.7266C8.70825 11.6999 8.75494 11.6785 8.78809 11.6641C8.80451 11.6569 8.8191 11.6508 8.83008 11.6465C8.83525 11.6444 8.8411 11.6425 8.84668 11.6406C8.8494 11.6397 8.85363 11.638 8.8584 11.6367C8.86019 11.6363 8.87429 11.6329 8.8916 11.6328L8.94043 11.6416C8.94885 11.6451 8.95525 11.6491 8.95898 11.6514C8.9665 11.656 8.97259 11.6606 8.97559 11.6631C8.98197 11.6683 8.98777 11.6744 8.99219 11.6787C9.00165 11.6879 9.01357 11.7 9.02637 11.7139C9.05248 11.7421 9.08862 11.7825 9.13281 11.833C9.22177 11.9347 9.34667 12.0799 9.49512 12.2549C9.79221 12.6051 10.187 13.0765 10.5889 13.5596C11.1897 14.2818 11.8109 15.0361 12.1455 15.4541L12.373 15.7461L12.375 15.748L12.2715 15.8193L12.374 15.749C12.4002 15.7871 12.4217 15.83 12.4316 15.8857C12.4411 15.9388 12.4389 15.9969 12.4297 16.0625C12.4206 16.1267 12.404 16.2064 12.3779 16.3076L12.2725 16.6826C12.1738 17.0246 11.9901 17.7398 11.8311 18.3857C11.7516 18.7083 11.6782 19.0131 11.625 19.2441C11.5984 19.3596 11.5773 19.4563 11.5625 19.5273C11.5562 19.5578 11.5505 19.5829 11.5469 19.6025C11.5595 19.6144 11.5759 19.63 11.5977 19.6475C11.6557 19.6941 11.736 19.7506 11.8184 19.8047C11.8958 19.8555 11.9727 19.9023 12.0332 19.9346C12.0368 19.9227 12.0419 19.9101 12.0459 19.8965C12.075 19.7985 12.1152 19.6585 12.1631 19.4863C12.259 19.1417 12.3858 18.6697 12.5215 18.1533L12.8711 16.8281C12.9175 16.6569 12.9564 16.5161 12.9844 16.418C12.9983 16.3693 13.0101 16.3304 13.0186 16.3027C13.0227 16.2891 13.0261 16.2769 13.0293 16.2676C13.0308 16.2631 13.033 16.2573 13.0352 16.252C13.0362 16.2494 13.0387 16.2458 13.041 16.2412C13.0414 16.2405 13.049 16.2235 13.0645 16.208L13.0703 16.2021L13.0781 16.1963C13.0955 16.1834 13.1124 16.1776 13.1152 16.1768C13.1206 16.1751 13.1256 16.1743 13.1279 16.1738C13.1326 16.1728 13.137 16.1723 13.1396 16.1719C13.1453 16.171 13.1519 16.1696 13.1582 16.1689C13.1713 16.1676 13.1899 16.1659 13.2119 16.1641C13.2562 16.1604 13.3197 16.156 13.3994 16.1504C13.5597 16.139 13.7875 16.124 14.0605 16.1064C14.6067 16.0713 15.3356 16.0267 16.0732 15.9824C17.5447 15.894 19.062 15.8066 19.2227 15.8066C19.2747 15.8066 19.3318 15.8079 19.3857 15.8232C19.4462 15.8405 19.4962 15.8736 19.54 15.9229C19.5804 15.9683 19.6165 16.0283 19.6543 16.1006L19.793 16.3896L19.7939 16.3906L20.0547 16.9932C20.2353 17.4251 20.4324 17.9262 20.6689 18.5527L21.0557 19.5928L21.0566 19.5938L21.415 20.5684C21.463 20.6961 21.5031 20.8017 21.5322 20.876V20.877C21.5843 20.8405 21.6504 20.7922 21.7168 20.7373C21.7937 20.6737 21.8702 20.6055 21.9297 20.5469C21.9596 20.5174 21.9846 20.4913 22.002 20.4707C22.0029 20.4696 22.003 20.4678 22.0039 20.4668C21.9974 20.4457 21.9894 20.4174 21.9775 20.3828C21.9476 20.2953 21.9021 20.1703 21.8447 20.0176L21.3857 18.8477C21.2069 18.3973 21.0066 17.8865 20.8291 17.4287L20.4102 16.3252L20.0928 15.4443L20.0713 15.3867L20.1045 15.335L21.4697 13.2012L22.46 11.6523C22.7246 11.2416 22.9032 10.9679 22.9316 10.9287L22.9336 10.9258L22.9619 10.8936C22.974 10.8817 22.9888 10.8698 23.0068 10.8594C23.0432 10.8383 23.0827 10.829 23.124 10.8271C23.1995 10.8238 23.3018 10.8439 23.4463 10.8838C23.7418 10.9654 24.2817 11.1496 25.2998 11.5L26.8633 12.0488C27.0733 12.1242 27.2498 12.1888 27.3799 12.2373C27.5057 12.2842 27.5971 12.3196 27.6279 12.335H27.6289L27.751 12.4072C28.0285 12.5952 28.2606 12.9288 28.6406 13.5967L28.9873 14.1973L32.4717 11.0615L35.0273 8.77246C35.3575 8.47879 35.6269 8.24005 35.8154 8.0752C35.9094 7.99298 35.9843 7.9287 36.0361 7.88477C36.0618 7.86304 36.0823 7.84524 36.0977 7.83301C36.1051 7.82709 36.1125 7.82113 36.1191 7.81641C36.1222 7.81421 36.128 7.81102 36.1338 7.80762C36.1366 7.80596 36.1419 7.80269 36.1484 7.7998C36.1518 7.79828 36.1721 7.78911 36.1992 7.78906L36.2598 7.7998ZM19.0371 16.4131L19.0361 16.4121C19.0135 16.4163 18.9798 16.4216 18.9453 16.4248C18.8989 16.4291 18.8358 16.4337 18.7588 16.4395C18.6046 16.451 18.3912 16.4653 18.1348 16.4814C17.6216 16.5138 16.9334 16.554 16.1943 16.5938C15.4561 16.6335 14.7809 16.6751 14.2871 16.709C14.0401 16.7259 13.839 16.7409 13.6982 16.7529C13.6354 16.7583 13.5853 16.7627 13.5488 16.7666C13.5409 16.7912 13.5308 16.8228 13.5195 16.8604C13.4893 16.9611 13.4486 17.1028 13.4014 17.2725C13.3068 17.612 13.1861 18.061 13.0674 18.5107C12.9486 18.9605 12.8325 19.4109 12.7471 19.7529C12.7044 19.9239 12.669 20.0673 12.6455 20.1699C12.6371 20.2066 12.6302 20.2379 12.625 20.2627L12.627 20.2637C12.6684 20.2913 12.7294 20.3303 12.8076 20.3799C12.9641 20.479 13.1873 20.6181 13.4551 20.7832C13.9905 21.1132 14.703 21.5484 15.418 21.9814C16.133 22.4146 16.8506 22.8455 17.3936 23.1689C17.6649 23.3306 17.8926 23.4653 18.0547 23.5596C18.1358 23.6067 18.2003 23.6431 18.2451 23.668C18.2473 23.6692 18.2499 23.6697 18.252 23.6709C18.2684 23.6579 18.2891 23.6423 18.3125 23.623C18.3873 23.5613 18.4927 23.4713 18.6211 23.3594C18.8779 23.1356 19.2252 22.8263 19.6025 22.4854H19.6035L20.1357 22.002C20.3001 21.8507 20.4488 21.712 20.5742 21.5928C20.6995 21.4736 20.8014 21.3744 20.8721 21.3027C20.9054 21.269 20.9305 21.2413 20.9482 21.2217C20.9478 21.2197 20.9478 21.2171 20.9473 21.2148C20.9399 21.182 20.9275 21.136 20.9102 21.0771C20.8754 20.9594 20.822 20.7979 20.7559 20.6045C20.6238 20.2182 20.4404 19.7099 20.2432 19.1826C19.8474 18.1248 19.4021 17.0016 19.2168 16.6309V16.6299C19.1494 16.4987 19.1119 16.4445 19.0859 16.4209C19.0778 16.4135 19.0746 16.4114 19.0732 16.4111C19.0702 16.4104 19.0605 16.4094 19.0371 16.4131ZM8.69434 12.4004C8.65566 12.4159 8.60459 12.4375 8.54297 12.4648C8.41985 12.5195 8.25643 12.5953 8.06641 12.6855C7.68664 12.8659 7.20234 13.1033 6.72168 13.3428C6.24086 13.5824 5.76373 13.8242 5.40039 14.0137C5.21876 14.1084 5.06574 14.1896 4.95508 14.251C4.89968 14.2817 4.85557 14.3071 4.82422 14.3262C4.80865 14.3356 4.79681 14.3424 4.78906 14.3477C4.777 14.3618 4.75528 14.3937 4.72461 14.4482C4.69386 14.5029 4.65735 14.5736 4.61719 14.6572C4.53689 14.8246 4.44228 15.0402 4.34473 15.2773C4.19828 15.6333 4.04656 16.035 3.92578 16.3916L3.81641 16.7305C3.57761 17.5222 3.43743 18.398 3.40723 19.0732C3.39209 19.412 3.40518 19.6933 3.44434 19.8857C3.46405 19.9826 3.48785 20.0475 3.51172 20.085C3.51811 20.0949 3.52499 20.101 3.5293 20.1055C3.53198 20.1041 3.53507 20.1031 3.53809 20.1016C3.5703 20.085 3.61699 20.0601 3.67676 20.0273C3.79604 19.9619 3.96505 19.8665 4.17188 19.749C4.58547 19.5141 5.14818 19.1896 5.76074 18.832H5.76172L6.63477 18.333C6.90568 18.18 7.15225 18.0423 7.3623 17.9277C7.57227 17.8132 7.74691 17.7209 7.87207 17.6582C7.93436 17.627 7.98658 17.6025 8.02539 17.5859C8.04423 17.5779 8.06272 17.5705 8.0791 17.5654C8.08707 17.563 8.09826 17.5595 8.11035 17.5576C8.1146 17.557 8.13966 17.5539 8.16992 17.5625L8.1709 17.5615C8.17358 17.5623 8.1761 17.5635 8.17871 17.5645C8.1809 17.5652 8.18333 17.5655 8.18555 17.5664H8.18457C8.19522 17.5706 8.2047 17.575 8.20898 17.5771C8.21863 17.582 8.23055 17.5877 8.24316 17.5947C8.26879 17.6089 8.30285 17.6293 8.34375 17.6533C8.4259 17.7016 8.53891 17.7696 8.67383 17.8516C8.94419 18.0158 9.30592 18.2381 9.69336 18.4766H9.69434L10.6865 19.0859C10.8053 19.1563 10.9041 19.212 10.9756 19.252C10.9875 19.208 11.003 19.1547 11.0186 19.0938C11.0655 18.9102 11.1258 18.6594 11.1885 18.3887L11.1895 18.3877L11.4189 17.4746C11.4994 17.1662 11.5771 16.8773 11.6338 16.6807L11.8154 16.0264L10.3125 14.1885C9.68937 13.4261 9.29843 12.9585 9.05078 12.6846C8.92652 12.5471 8.84259 12.4626 8.78516 12.415C8.76448 12.3979 8.7489 12.3887 8.73926 12.3828C8.72758 12.3869 8.71274 12.393 8.69434 12.4004ZM23.2393 11.6494C23.1348 11.7955 22.9815 12.0213 22.7734 12.3369C22.5654 12.6525 22.3031 13.0573 21.9795 13.5605L20.8193 15.376C20.8049 15.3989 20.7993 15.4127 20.7969 15.4268C20.7942 15.4424 20.794 15.4677 20.8027 15.5146C20.8212 15.6137 20.8735 15.7706 20.9775 16.0625L21.3809 17.1367C21.5471 17.5662 21.7345 18.0414 21.9121 18.4844C22.0896 18.9272 22.2572 19.337 22.3828 19.6357C22.4427 19.7782 22.4922 19.895 22.5293 19.9775C22.5664 19.9458 22.6128 19.9077 22.666 19.8613C22.826 19.7219 23.0552 19.5202 23.3359 19.2705C23.8972 18.7713 24.6654 18.0818 25.5068 17.3232L28.4951 14.6377L28.1904 14.0557C27.9137 13.5288 27.7503 13.2558 27.5449 13.0693C27.342 12.8851 27.089 12.7776 26.6035 12.6113L26.6025 12.6104C26.1562 12.4528 25.2368 12.1393 24.5693 11.9014V11.9023C24.2351 11.7865 23.9221 11.6803 23.6885 11.6035C23.5717 11.5651 23.4747 11.534 23.4053 11.5127C23.3855 11.5066 23.3683 11.5014 23.3535 11.4971C23.3269 11.5294 23.2893 11.5794 23.2393 11.6494Z" fill="white" stroke="white" stroke-width="0.25"/>
<path d="M16.3975 6.46484C16.7391 6.46487 17.2815 6.50671 17.7715 6.56152C18.0169 6.58898 18.2509 6.62055 18.4424 6.65137C18.536 6.66644 18.6228 6.68161 18.6963 6.69727L18.873 6.74414L18.874 6.74512L18.9531 6.79199C18.9786 6.81079 19.0092 6.83567 19.043 6.86426C19.1107 6.92152 19.1977 6.99956 19.2988 7.09375C19.5019 7.28289 19.7663 7.54054 20.0566 7.83008C20.6374 8.40916 21.3249 9.12131 21.8369 9.68652L22.0908 9.97559C22.1645 10.0626 22.2273 10.1397 22.2773 10.2061C22.3269 10.2717 22.3672 10.3301 22.3936 10.3779C22.4064 10.4014 22.4191 10.4274 22.4268 10.4531C22.4324 10.4721 22.4458 10.5234 22.4199 10.5752L22.4141 10.5859C22.3741 10.6492 21.6838 11.73 21.0039 12.7949C20.6639 13.3274 20.3264 13.8568 20.0732 14.2529C19.9468 14.4508 19.8415 14.6159 19.7676 14.7314C19.7306 14.7891 19.7007 14.8341 19.6807 14.8652C19.6708 14.8807 19.6636 14.8931 19.6582 14.9014C19.6556 14.9054 19.653 14.9087 19.6514 14.9111C19.6506 14.9122 19.6501 14.9139 19.6494 14.915L19.6455 14.9209C19.6441 14.9227 19.6376 14.9295 19.6328 14.9346C19.6147 14.9526 19.5959 14.9606 19.5928 14.9619C19.5863 14.9646 19.5809 14.966 19.5781 14.9668C19.5725 14.9684 19.5673 14.9694 19.5654 14.9697C19.5614 14.9705 19.5578 14.9714 19.5557 14.9717C19.5508 14.9723 19.5448 14.9721 19.5391 14.9727C19.5272 14.9737 19.51 14.975 19.4893 14.9766C19.4475 14.9796 19.3868 14.9843 19.3096 14.9893C19.1546 14.9992 18.9315 15.0127 18.6572 15.0293C18.1082 15.0624 17.3523 15.1066 16.5244 15.1562H16.5234C14.8627 15.2492 13.3857 15.3422 13.2393 15.3613H13.2354C13.108 15.3741 12.9963 15.3843 12.8828 15.3213C12.8297 15.2918 12.7816 15.2502 12.7324 15.1992L12.5576 15C12.0533 14.3994 11.2955 13.4725 10.6641 12.6895C10.3483 12.2979 10.0641 11.9413 9.8584 11.6797C9.75589 11.5493 9.67222 11.4421 9.61426 11.3652C9.58549 11.3271 9.56226 11.2949 9.5459 11.2715C9.53794 11.2601 9.53027 11.2489 9.52441 11.2393C9.5216 11.2346 9.51715 11.2279 9.51367 11.2207C9.51196 11.2171 9.50923 11.211 9.50684 11.2041L9.5 11.1621L9.50684 11.1191C9.50923 11.1122 9.51195 11.1062 9.51367 11.1025C9.51709 11.0953 9.52117 11.0886 9.52441 11.083C9.53125 11.0713 9.54044 11.0566 9.55078 11.041C9.57182 11.0092 9.60258 10.9657 9.64062 10.9121C9.71702 10.8046 9.82727 10.6536 9.96289 10.4707C10.2343 10.1047 10.6089 9.60853 11.0234 9.07129L12.5146 7.12988L12.541 7.0957L12.583 7.08496L13.4248 6.87305L13.8184 6.78027C14.7355 6.57771 15.6444 6.46484 16.3975 6.46484ZM16.4238 7.1123C15.5173 7.1123 14.7172 7.20231 13.8818 7.40039L13.5205 7.49219L12.8916 7.66016L11.5527 9.40137L11.5537 9.40234C11.1795 9.89252 10.8381 10.343 10.5908 10.6738C10.4672 10.8393 10.3667 10.9741 10.2979 11.0693C10.2738 11.1026 10.254 11.1308 10.2383 11.1533C10.256 11.1773 10.2788 11.2078 10.3066 11.2441C10.3823 11.3429 10.4919 11.4831 10.6279 11.6543C10.8999 11.9966 11.2757 12.4617 11.6895 12.9648L13.1533 14.7568L13.5479 14.7285L14.625 14.6562C15.1678 14.6239 15.8507 14.5852 16.542 14.5488L18.3594 14.4404C18.5998 14.4251 18.7994 14.4122 18.9434 14.4014C19.0154 14.396 19.0735 14.3907 19.1152 14.3867C19.1423 14.3842 19.159 14.382 19.168 14.3809C19.1698 14.3794 19.1724 14.3782 19.1748 14.376C19.1909 14.3614 19.2145 14.3367 19.2461 14.2988C19.3091 14.2233 19.3956 14.107 19.5088 13.9443C19.735 13.6194 20.0621 13.1188 20.5127 12.4131L21.7334 10.498L21.585 10.3311L21.584 10.3291C21.3747 10.0871 20.6932 9.37116 20.043 8.7002C19.7186 8.36544 19.4026 8.04356 19.1592 7.79883C19.0374 7.67639 18.9347 7.57299 18.8574 7.49805C18.8188 7.46056 18.7866 7.43114 18.7627 7.40918C18.7507 7.39817 18.7416 7.38898 18.7344 7.38281C18.7297 7.37877 18.7267 7.37688 18.7256 7.37598H18.7246C18.6865 7.35201 18.5954 7.31847 18.4453 7.28516C18.2982 7.25253 18.1103 7.22304 17.8955 7.19727C17.4658 7.14571 16.9359 7.11231 16.4238 7.1123Z" fill="white" stroke="white" stroke-width="0.25"/>
<path d="M10.8535 7.67773C10.8655 7.67795 10.8951 7.67895 10.9258 7.69434L10.957 7.71582L10.9639 7.72168L10.874 7.80762L10.9639 7.72266C11.0007 7.76154 11.01 7.80928 11.0117 7.8418C11.0134 7.87537 11.0083 7.9095 11.001 7.94043C10.9862 8.00301 10.9571 8.07708 10.9199 8.15625C10.8448 8.31614 10.7262 8.51941 10.584 8.7373C10.2993 9.17355 9.9099 9.68398 9.55859 10.0488H9.55762C8.46512 11.1748 7.18236 11.996 5.84766 12.4072H5.84668C5.62093 12.4759 5.4733 12.5185 5.38184 12.5342C5.34069 12.5412 5.28661 12.5487 5.23828 12.5332C5.20902 12.5238 5.17686 12.5043 5.1543 12.4697C5.13307 12.4371 5.12892 12.4037 5.12891 12.3809C5.12891 12.3269 5.15368 12.2713 5.1748 12.2305C5.19928 12.1832 5.23416 12.1284 5.27539 12.0684C5.35815 11.9479 5.47543 11.7973 5.61621 11.6289C5.89816 11.2917 6.28034 10.8765 6.68359 10.4766L7.03418 10.1338C7.8251 9.37802 8.43437 8.91264 9.2832 8.3916L9.50586 8.25977C9.74138 8.12704 10.007 7.99397 10.2383 7.88965C10.3922 7.82022 10.5338 7.7628 10.6426 7.72559C10.6962 7.70724 10.7462 7.6924 10.7871 7.68457C10.8072 7.68074 10.8308 7.67733 10.8535 7.67773ZM10.0518 8.57715C9.95075 8.63308 9.8306 8.70321 9.69922 8.7832C9.32893 9.00867 8.87598 9.3071 8.52148 9.56641C8.18368 9.81667 7.57246 10.3649 7.04297 10.8721C6.77892 11.125 6.53745 11.3659 6.3623 11.5518C6.32421 11.5922 6.29065 11.6308 6.25977 11.665C6.3893 11.6094 6.57193 11.526 6.82129 11.4014L7.11816 11.2441C7.70619 10.9182 8.25133 10.5244 8.7627 10.0547L9.01562 9.81348C9.27592 9.55312 9.59559 9.18195 9.84082 8.86621C9.92237 8.76121 9.99283 8.66168 10.0518 8.57715Z" fill="white" stroke="white" stroke-width="0.25"/>
<path d="M20.9238 6.93945C20.9677 6.94331 21.0217 6.95341 21.0811 6.9668C21.201 6.99386 21.358 7.0387 21.5303 7.09473C21.8753 7.20694 22.2938 7.36625 22.6211 7.52148L23.127 7.77441C24.2955 8.38745 25.3704 9.15575 26.1865 9.97754H26.1875C26.4648 10.2548 26.6808 10.5028 26.8076 10.6826C26.8685 10.7689 26.9176 10.8524 26.9365 10.9209C26.9448 10.9509 26.9576 11.0127 26.9229 11.0703C26.8832 11.1357 26.8163 11.1459 26.7744 11.1445V11.1455L26.7725 11.1445C26.7698 11.1444 26.767 11.1457 26.7646 11.1455V11.1436C26.7516 11.1426 26.7396 11.1417 26.7344 11.1406C26.7247 11.1386 26.7135 11.1358 26.7021 11.1328C26.679 11.1267 26.6492 11.118 26.6143 11.1074C26.5435 11.086 26.4474 11.0554 26.334 11.0176C26.1067 10.9418 25.8053 10.837 25.4863 10.7207V10.7197C24.2929 10.2947 23.7328 10.0405 23.083 9.58594L22.7969 9.37793C22.381 9.06349 21.8364 8.53887 21.4131 8.07812C21.2013 7.84756 21.017 7.62927 20.8926 7.45898C20.8309 7.37462 20.7801 7.29723 20.749 7.2334C20.7339 7.20224 20.7198 7.1669 20.7139 7.13184C20.7086 7.10097 20.7049 7.03699 20.7539 6.98535L20.7598 6.97852L20.8154 6.94727C20.8325 6.94171 20.8472 6.93934 20.8555 6.93848C20.8781 6.93614 20.9022 6.93756 20.9238 6.93945ZM21.874 7.7959C21.9787 7.90354 22.1056 8.03023 22.2432 8.16113C22.6184 8.51812 23.0553 8.9027 23.2822 9.0625L23.7188 9.35547C23.9907 9.52499 24.2426 9.6531 24.583 9.79395L25.1748 10.0215V10.0225L25.6602 10.2012H25.6621C25.5477 10.0991 25.4 9.97401 25.2354 9.84082C24.856 9.53404 24.395 9.18729 24.0684 8.97168V8.9707C23.7273 8.74775 23.222 8.44539 22.9521 8.29395V8.29492C22.6744 8.14791 22.3119 7.9789 22.0137 7.85156C21.9654 7.83097 21.9179 7.8139 21.874 7.7959Z" fill="white" stroke="white" stroke-width="0.25"/>
</g>
<defs>
<clipPath id="clip0_231_2">
<rect width="32" height="32" rx="16" fill="white"/>
</clipPath>
</defs>
</svg>
