<svg width="125" height="53" viewBox="0 0 125 53" fill="none" xmlns="http://www.w3.org/2000/svg">
<path d="M42.1194 18.6721C42.0663 18.586 42.0133 18.4866 42.0001 18.4402C41.9868 18.3938 43.6368 17.3999 45.7572 16.1673C47.8379 14.9613 49.5608 13.9475 49.5873 13.921C49.6204 13.8879 49.6006 13.7752 49.5409 13.6626C49.4018 13.3843 49.4018 12.0987 49.5409 11.2572C49.7265 10.1705 50.4885 8.01688 50.8795 7.49339C51.0186 7.30786 51.4361 7.07593 53.1921 6.2145C54.3716 5.638 55.3655 5.16753 55.392 5.16753C55.4384 5.16753 58.4866 8.83193 58.7715 9.22951C58.8444 9.33553 58.8311 9.44818 58.6522 10.0578C58.4534 10.747 57.9167 12.927 57.9167 13.0463C57.9167 13.1192 58.5727 13.5499 58.6125 13.5035C58.6323 13.4837 58.8709 12.6289 59.1426 11.5951C59.4076 10.568 59.6396 9.71986 59.6528 9.70661C59.6793 9.68673 65.4111 9.34216 65.7226 9.34216C65.9346 9.34216 65.9545 9.36866 66.1798 9.85239C66.5178 10.6012 66.8756 11.5156 67.4388 13.0463C67.7105 13.7951 67.9491 14.4312 67.9689 14.4577C67.9954 14.5107 68.5918 14.0204 68.6382 13.9011C68.6515 13.8746 68.3665 13.1126 68.0021 12.2114C67.6442 11.3102 67.2003 10.1705 67.028 9.69336L66.7099 8.81205L68.075 6.67835C68.8237 5.49885 69.4798 4.48501 69.5328 4.41212C69.6189 4.29947 69.7183 4.32598 71.7592 5.02837C72.9321 5.43259 73.9791 5.81029 74.0718 5.85667C74.37 6.00908 74.5953 6.30064 75.0327 7.06931L75.4568 7.80484L79.0549 4.56453C81.0362 2.78203 82.6729 1.32422 82.6994 1.32422C82.7988 1.32422 83.0506 1.66217 82.991 1.71518C82.9578 1.74168 78.9091 5.3862 73.9857 9.80601C69.0689 14.2258 64.9937 17.8836 64.9407 17.93C64.8545 18.0029 64.5961 17.8637 63.2178 17.0023C57.1281 13.2053 54.736 11.7277 54.6499 11.6879C54.577 11.6614 53.9077 12.0126 52.8342 12.6421C51.8933 13.1855 49.1897 14.7559 46.8175 16.1342C44.4518 17.5059 42.444 18.6721 42.3645 18.7251C42.232 18.8113 42.2055 18.8047 42.1194 18.6721ZM66.1864 15.9884C66.9418 15.3125 67.5647 14.7162 67.578 14.6698C67.6177 14.5041 66.2063 10.7403 65.8286 9.98492C65.6961 9.72649 65.6431 9.68011 65.5172 9.69999C65.4376 9.71986 64.1654 9.79938 62.6877 9.8789C61.21 9.95841 59.9841 10.0446 59.9576 10.0644C59.9046 10.1174 58.9703 13.6559 58.9902 13.7288C59.01 13.7885 64.6822 17.2209 64.7618 17.2276C64.7949 17.2276 65.431 16.671 66.1864 15.9884ZM52.324 12.3505C53.5499 11.6415 54.5902 11.0716 54.6366 11.0915C54.683 11.1048 55.3523 11.5156 56.1276 11.9927C56.8962 12.4764 57.539 12.8541 57.5522 12.8409C57.5655 12.8343 57.6848 12.3704 57.8107 11.8271C57.9432 11.2771 58.142 10.515 58.2546 10.1241L58.4534 9.40842L56.9095 7.5199C55.6637 5.99583 55.339 5.638 55.233 5.66451C54.9812 5.71752 51.3168 7.54641 51.1975 7.67231C51.0252 7.86447 50.4554 9.24939 50.1969 10.1042C49.7132 11.7078 49.6271 13.6493 50.0379 13.6493C50.071 13.6493 51.0981 13.0662 52.324 12.3505ZM72.0906 10.8265L75.152 8.07652L74.8008 7.40725C74.2508 6.36028 74.1116 6.23438 73.1441 5.90306C72.6936 5.74403 71.7791 5.43259 71.1098 5.19403C70.4406 4.96211 69.8575 4.76995 69.8177 4.76995C69.7514 4.76995 69.0225 5.87655 67.2135 8.71928C67.134 8.84518 67.1539 8.93795 67.3593 9.51445C67.7304 10.5614 68.943 13.5831 68.9894 13.5831C69.0159 13.5831 70.4074 12.3439 72.0906 10.8265Z" fill="white"/>
<path d="M59.1533 8.32938C58.1461 7.13 56.125 4.62523 56.125 4.57221C56.125 4.53908 56.7943 3.63127 57.6226 2.55779L59.1135 0.616255L59.9551 0.40421C60.9954 0.145781 62.049 0 62.8972 0C63.5664 0 65.0441 0.16566 65.3291 0.271682C65.5014 0.337946 67.2242 2.05418 68.2447 3.18067C68.6224 3.59813 68.8344 3.87644 68.8079 3.92945C68.7284 4.05536 66.0513 8.24987 66.0447 8.25649C66.0381 8.26312 64.6731 8.34264 63.0165 8.44203C61.3599 8.5348 59.8755 8.62757 59.7231 8.64745C59.4581 8.67395 59.4316 8.6607 59.1533 8.32938ZM63.0496 8.08421C64.4345 8.00469 65.6273 7.9318 65.7068 7.91192C65.8062 7.89867 66.217 7.30229 67.1182 5.89087L68.3905 3.89632L68.1784 3.65777C67.7543 3.16742 65.4417 0.781915 65.2959 0.682519C65.064 0.530112 63.9574 0.397584 62.9237 0.397584C61.8767 0.397584 60.9689 0.516859 59.9882 0.781915L59.3189 0.960828L57.9539 2.7367C57.2051 3.71741 56.5888 4.53908 56.5888 4.56559C56.5888 4.59209 57.2647 5.4469 58.093 6.45411L59.5972 8.29625L60.0611 8.26312C60.3195 8.23661 61.6647 8.1571 63.0496 8.08421Z" fill="white"/>
<path d="M51.7539 5.79092C51.7539 5.62526 52.4696 4.77046 53.2714 3.97529C54.2388 3.01446 54.8882 2.4976 55.849 1.90785C56.3924 1.56991 57.3068 1.15907 57.3731 1.21871C57.5056 1.35786 56.6574 2.65664 55.9683 3.37229C54.8882 4.48552 53.6226 5.29394 52.3105 5.69815C51.8533 5.83731 51.7539 5.85719 51.7539 5.79092ZM53.3774 4.92286C54.1924 4.51203 54.928 3.98191 55.6038 3.31265C56.134 2.78254 56.896 1.80846 56.8231 1.73557C56.7701 1.67593 55.6635 2.35182 54.9478 2.87531C54.2587 3.38554 52.4828 5.08852 52.4828 5.2343C52.4828 5.34033 52.675 5.27406 53.3774 4.92286Z" fill="white"/>
<path d="M72.0291 4.01322C70.6707 3.52949 70.1472 3.27106 69.3719 2.68794C68.5569 2.07168 67.2183 0.613876 67.3442 0.481348C67.4171 0.415084 68.4243 0.739778 69.0671 1.04459C70.4189 1.68735 71.6779 2.54878 72.599 3.47648C73.1489 4.02647 73.4405 4.44393 73.2748 4.43068C73.2285 4.43068 72.6652 4.24514 72.0291 4.01322ZM72.4929 3.78129C72.4929 3.67527 71.3002 2.71444 70.6375 2.2771C70.293 2.0518 69.7827 1.74699 69.5111 1.59458C68.9478 1.2964 68.0466 0.912064 68.0069 0.951822C67.9406 1.01146 69.2394 2.24397 69.7098 2.57529C70.3592 3.03251 70.7104 3.21142 71.6315 3.54937C72.4664 3.86081 72.4929 3.86744 72.4929 3.78129Z" fill="white"/>
<path d="M7.29695 31.1468C7.24392 30.5138 6.98539 30.0017 6.52138 29.6106C6.06068 29.2195 5.46409 29.024 4.73161 29.024C4.23776 29.024 3.7986 29.1151 3.41413 29.2974C3.02966 29.4797 2.72805 29.7283 2.5093 30.0431C2.29055 30.358 2.18118 30.7193 2.18118 31.127C2.18118 31.3888 2.2309 31.6258 2.33033 31.8379C2.43307 32.0467 2.57725 32.234 2.76286 32.3997C2.94846 32.5621 3.16887 32.7046 3.42408 32.8272C3.67929 32.9499 3.96101 33.0576 4.26925 33.1504L5.38288 33.4785C5.76404 33.5945 6.11537 33.7288 6.43686 33.8812C6.76167 34.0337 7.0434 34.216 7.28203 34.4281C7.52398 34.6369 7.71125 34.8822 7.84382 35.1639C7.97971 35.4456 8.04766 35.7704 8.04766 36.1383C8.04766 36.6752 7.90845 37.1558 7.63004 37.5801C7.35495 38.0043 6.96219 38.3391 6.45178 38.5843C5.94467 38.8263 5.34643 38.9473 4.65703 38.9473C4.00078 38.9473 3.42905 38.8362 2.94183 38.6142C2.45793 38.3921 2.07512 38.0839 1.7934 37.6895C1.51167 37.2917 1.35258 36.8343 1.31612 36.3173H1.95249C1.98563 36.7382 2.11986 37.1028 2.35519 37.411C2.59382 37.716 2.91035 37.9513 3.30476 38.117C3.69917 38.2827 4.14993 38.3656 4.65703 38.3656C5.20391 38.3656 5.68615 38.2728 6.10377 38.0872C6.52138 37.8983 6.84785 37.6364 7.08317 37.3017C7.31849 36.9669 7.43615 36.5775 7.43615 36.1333C7.43615 35.7754 7.35163 35.4688 7.1826 35.2136C7.01357 34.9584 6.76333 34.738 6.43189 34.5524C6.10377 34.3668 5.69609 34.2011 5.20888 34.0552L4.02067 33.6973C3.22521 33.4553 2.61702 33.1255 2.19609 32.7079C1.77848 32.2903 1.56967 31.7699 1.56967 31.1468C1.56967 30.6232 1.70888 30.1592 1.98729 29.7548C2.2657 29.3471 2.64354 29.0273 3.12081 28.7953C3.6014 28.5633 4.1433 28.4473 4.74652 28.4473C5.35305 28.4473 5.88833 28.5649 6.35234 28.8002C6.81636 29.0323 7.18426 29.3521 7.45604 29.7598C7.72782 30.1641 7.87862 30.6265 7.90845 31.1468H7.29695ZM19.4992 28.6014H20.1207V35.3429C20.1207 36.0356 19.9599 36.6537 19.6384 37.1973C19.3169 37.7375 18.8728 38.1651 18.306 38.4799C17.7426 38.7915 17.0946 38.9473 16.3621 38.9473C15.633 38.9473 14.985 38.7915 14.4183 38.4799C13.8515 38.1651 13.4057 37.7359 13.0809 37.1923C12.7594 36.6487 12.6003 36.0323 12.6036 35.3429V28.6014H13.2251V35.3081C13.2251 35.8947 13.3576 36.4167 13.6228 36.8741C13.8913 37.3315 14.2608 37.6928 14.7315 37.9579C15.2021 38.2198 15.7457 38.3507 16.3621 38.3507C16.9786 38.3507 17.5222 38.2198 17.9928 37.9579C18.4635 37.6928 18.8314 37.3315 19.0965 36.8741C19.365 36.4167 19.4992 35.8947 19.4992 35.3081V28.6014ZM25.1626 38.7832V28.6014H28.2997C28.946 28.6014 29.4995 28.734 29.9602 28.9991C30.4242 29.2643 30.7805 29.6272 31.0291 30.0879C31.2777 30.5486 31.402 31.0739 31.402 31.6639C31.402 32.2472 31.2777 32.7692 31.0291 33.2299C30.7805 33.6906 30.4242 34.0552 29.9602 34.3237C29.4995 34.5888 28.9476 34.7214 28.3047 34.7214H25.6001V34.1447H28.2897C28.8134 34.1447 29.2609 34.0386 29.6321 33.8265C30.0033 33.6111 30.2883 33.3178 30.4872 32.9466C30.686 32.572 30.7855 32.1445 30.7855 31.6639C30.7855 31.18 30.686 30.7508 30.4872 30.3762C30.2883 30.0017 30.0016 29.7084 29.6271 29.4963C29.2559 29.2841 28.8084 29.1781 28.2848 29.1781H25.7841V38.7832H25.1626ZM35.8896 38.7832V28.6014H41.5572V29.1781H36.511V33.399H41.2539V33.9757H36.511V38.2065H41.6765V38.7832H35.8896ZM46.2337 38.7832V28.6014H49.3708C50.0138 28.6014 50.5673 28.7273 51.0313 28.9792C51.4953 29.2311 51.8516 29.5808 52.1002 30.0282C52.3488 30.4724 52.473 30.9894 52.473 31.5794C52.473 32.1627 52.3488 32.6764 52.1002 33.1206C51.8516 33.5614 51.4953 33.9061 51.0313 34.1547C50.5706 34.4032 50.0187 34.5275 49.3757 34.5275H46.5668V33.9458H49.3608C49.8845 33.9458 50.332 33.8481 50.7032 33.6525C51.0744 33.457 51.3594 33.1835 51.5583 32.8322C51.7571 32.4776 51.8566 32.06 51.8566 31.5794C51.8566 31.0955 51.7571 30.6745 51.5583 30.3166C51.3594 29.9553 51.0727 29.6752 50.6982 29.4764C50.327 29.2775 49.8795 29.1781 49.3559 29.1781H46.8552V38.7832H46.2337ZM50.4148 34.1696L52.9205 38.7832H52.2046L49.7138 34.1696H50.4148Z" fill="#F38126"/>
<path d="M56.3802 29.1781V28.6014H63.5145V29.1781H60.2581V38.7832H59.6366V29.1781H56.3802ZM67.879 38.7832V28.6014H71.0161C71.6591 28.6014 72.2126 28.7273 72.6766 28.9792C73.1406 29.2311 73.4969 29.5808 73.7455 30.0282C73.9941 30.4724 74.1184 30.9894 74.1184 31.5794C74.1184 32.1627 73.9941 32.6764 73.7455 33.1206C73.4969 33.5614 73.1406 33.9061 72.6766 34.1547C72.2159 34.4032 71.6641 34.5275 71.0211 34.5275H68.2121V33.9458H71.0061C71.5298 33.9458 71.9773 33.8481 72.3485 33.6525C72.7197 33.457 73.0047 33.1835 73.2036 32.8322C73.4025 32.4776 73.5019 32.06 73.5019 31.5794C73.5019 31.0955 73.4025 30.6745 73.2036 30.3166C73.0047 29.9553 72.718 29.6752 72.3435 29.4764C71.9723 29.2775 71.5248 29.1781 71.0012 29.1781H68.5005V38.7832H67.879ZM72.0601 34.1696L74.5658 38.7832H73.8499L71.3591 34.1696H72.0601ZM78.3089 38.7832H77.6527L81.3267 28.6014H82.0426L85.7166 38.7832H85.0603L81.7095 29.4018H81.6598L78.3089 38.7832ZM79.2386 34.9501H84.1306V35.5268H79.2386V34.9501ZM89.7157 38.7832V28.6014H95.3983V29.1781H90.3372V33.399H94.926V33.9757H90.3372V38.7832H89.7157ZM100.019 38.7832V28.6014H105.701V29.1781H100.64V33.399H105.229V33.9757H100.64V38.7832H100.019ZM110.943 28.6014V38.7832H110.322V28.6014H110.943ZM123.746 31.7832H123.11C123.043 31.4385 122.919 31.1054 122.737 30.7839C122.555 30.4591 122.319 30.1674 122.031 29.9089C121.746 29.6471 121.414 29.4399 121.037 29.2875C120.659 29.135 120.241 29.0588 119.784 29.0588C119.114 29.0588 118.498 29.2377 117.934 29.5957C117.374 29.9503 116.925 30.4724 116.587 31.1618C116.252 31.8511 116.085 32.6947 116.085 33.6923C116.085 34.6966 116.252 35.5434 116.587 36.2328C116.925 36.9222 117.374 37.4442 117.934 37.7988C118.498 38.1502 119.114 38.3258 119.784 38.3258C120.241 38.3258 120.659 38.2512 121.037 38.1021C121.414 37.9496 121.746 37.7441 122.031 37.4856C122.319 37.2238 122.555 36.9305 122.737 36.6056C122.919 36.2808 123.043 35.9461 123.11 35.6014H123.746C123.673 36.0124 123.532 36.4151 123.323 36.8095C123.118 37.2039 122.846 37.5618 122.508 37.8833C122.173 38.2015 121.777 38.4551 121.32 38.644C120.866 38.8296 120.354 38.9224 119.784 38.9224C118.935 38.9224 118.188 38.707 117.541 38.2761C116.895 37.8419 116.388 37.2321 116.02 36.4466C115.656 35.661 115.473 34.743 115.473 33.6923C115.473 32.6416 115.656 31.7235 116.02 30.938C116.388 30.1525 116.895 29.5443 117.541 29.1135C118.188 28.6793 118.935 28.4622 119.784 28.4622C120.354 28.4622 120.866 28.5566 121.32 28.7456C121.777 28.9312 122.173 29.1831 122.508 29.5012C122.846 29.8161 123.118 30.1708 123.323 30.5652C123.532 30.9596 123.673 31.3656 123.746 31.7832ZM33.3721 45.965C33.3456 45.6485 33.2164 45.3925 32.9844 45.1969C32.754 45.0014 32.4557 44.9036 32.0895 44.9036C31.8426 44.9036 31.623 44.9492 31.4307 45.0403C31.2385 45.1315 31.0877 45.2557 30.9783 45.4132C30.869 45.5706 30.8143 45.7512 30.8143 45.9551C30.8143 46.086 30.8391 46.2045 30.8888 46.3105C30.9402 46.415 31.0123 46.5086 31.1051 46.5914C31.1979 46.6726 31.3081 46.7439 31.4357 46.8052C31.5633 46.8665 31.7042 46.9204 31.8583 46.9668L32.4151 47.1309C32.6057 47.1889 32.7814 47.256 32.9421 47.3322C33.1045 47.4084 33.2454 47.4996 33.3647 47.6056C33.4857 47.71 33.5793 47.8327 33.6456 47.9735C33.7135 48.1144 33.7475 48.2768 33.7475 48.4608C33.7475 48.7292 33.6779 48.9695 33.5387 49.1816C33.4011 49.3938 33.2048 49.5611 32.9496 49.6838C32.696 49.8047 32.3969 49.8652 32.0522 49.8652C31.7241 49.8652 31.4382 49.8097 31.1946 49.6987C30.9526 49.5877 30.7612 49.4335 30.6204 49.2363C30.4795 49.0375 30.4 48.8088 30.3817 48.5502H30.6999C30.7165 48.7607 30.7836 48.943 30.9013 49.0971C31.0206 49.2496 31.1788 49.3672 31.3761 49.4501C31.5733 49.533 31.7986 49.5744 32.0522 49.5744C32.3256 49.5744 32.5667 49.528 32.7756 49.4352C32.9844 49.3407 33.1476 49.2098 33.2653 49.0424C33.3829 48.8751 33.4417 48.6803 33.4417 48.4583C33.4417 48.2793 33.3995 48.126 33.315 47.9984C33.2305 47.8708 33.1053 47.7606 32.9396 47.6678C32.7756 47.575 32.5717 47.4921 32.3281 47.4192L31.734 47.2402C31.3363 47.1193 31.0322 46.9544 30.8217 46.7456C30.6129 46.5368 30.5085 46.2766 30.5085 45.965C30.5085 45.7032 30.5781 45.4712 30.7173 45.269C30.8565 45.0652 31.0454 44.9052 31.2841 44.7892C31.5244 44.6732 31.7953 44.6152 32.0969 44.6152C32.4002 44.6152 32.6678 44.6741 32.8998 44.7917C33.1319 44.9077 33.3158 45.0676 33.4517 45.2715C33.5876 45.4737 33.663 45.7048 33.6779 45.965H33.3721ZM37.8184 44.6923H38.1863L39.7897 47.1483H39.8245L41.4278 44.6923H41.7957L39.9637 47.4739V49.7832H39.6505V47.4739L37.8184 44.6923ZM50.0018 44.6923V49.7832H49.6985L46.4521 45.2566H46.4222V49.7832H46.1115V44.6923H46.4173L49.6637 49.2239H49.6935V44.6923H50.0018ZM56.2428 49.7832H54.8309V44.6923H56.3522C56.8295 44.6923 57.238 44.7934 57.5777 44.9956C57.9174 45.1977 58.1776 45.4877 58.3582 45.8656C58.5405 46.2418 58.6308 46.6934 58.6292 47.2203C58.6275 47.7589 58.5331 48.2196 58.3458 48.6025C58.1585 48.9836 57.8876 49.2761 57.5329 49.4799C57.1783 49.6821 56.7482 49.7832 56.2428 49.7832ZM55.1416 49.4949H56.2304C56.6844 49.4949 57.0673 49.4045 57.3788 49.2239C57.6904 49.0416 57.9257 48.7806 58.0848 48.4409C58.2455 48.1011 58.3251 47.6943 58.3234 47.2203C58.3234 46.753 58.2464 46.3528 58.0922 46.0197C57.9381 45.685 57.7136 45.4281 57.4186 45.2491C57.1253 45.0701 56.7657 44.9806 56.3398 44.9806H55.1416V49.4949ZM63.5123 44.6923V49.7832H63.2016V44.6923H63.5123ZM72.2236 46.2832H71.9055C71.8723 46.1109 71.8102 45.9443 71.719 45.7836C71.6279 45.6212 71.5102 45.4753 71.366 45.3461C71.2235 45.2151 71.0578 45.1116 70.8689 45.0353C70.68 44.9591 70.4712 44.921 70.2425 44.921C69.9077 44.921 69.5995 45.0105 69.3177 45.1895C69.0377 45.3668 68.8131 45.6278 68.6441 45.9725C68.4767 46.3172 68.393 46.7389 68.393 47.2377C68.393 47.7399 68.4767 48.1633 68.6441 48.508C68.8131 48.8527 69.0377 49.1137 69.3177 49.291C69.5995 49.4667 69.9077 49.5545 70.2425 49.5545C70.4712 49.5545 70.68 49.5172 70.8689 49.4426C71.0578 49.3664 71.2235 49.2637 71.366 49.1344C71.5102 49.0035 71.6279 48.8568 71.719 48.6944C71.8102 48.532 71.8723 48.3646 71.9055 48.1923H72.2236C72.1872 48.3978 72.1167 48.5991 72.0123 48.7963C71.9096 48.9935 71.7737 49.1725 71.6047 49.3333C71.4373 49.4924 71.2393 49.6191 71.0106 49.7136C70.7835 49.8064 70.5275 49.8528 70.2425 49.8528C69.8182 49.8528 69.4445 49.7451 69.1214 49.5297C68.7982 49.3126 68.5447 49.0076 68.3607 48.6149C68.1784 48.2221 68.0873 47.7631 68.0873 47.2377C68.0873 46.7124 68.1784 46.2534 68.3607 45.8606C68.5447 45.4679 68.7982 45.1638 69.1214 44.9483C69.4445 44.7312 69.8182 44.6227 70.2425 44.6227C70.5275 44.6227 70.7835 44.6699 71.0106 44.7644C71.2393 44.8572 71.4373 44.9831 71.6047 45.1422C71.7737 45.2997 71.9096 45.477 72.0123 45.6742C72.1167 45.8714 72.1872 46.0744 72.2236 46.2832ZM76.5817 49.7832H76.2536L78.0906 44.6923H78.4485L80.2855 49.7832H79.9574L78.282 45.0925H78.2571L76.5817 49.7832ZM77.0465 47.8667H79.4926V48.155H77.0465V47.8667ZM83.6623 44.9806V44.6923H87.2294V44.9806H85.6012V49.7832H85.2905V44.9806H83.6623ZM91.7217 49.7832V44.6923H94.5555V44.9806H92.0324V47.0911H94.4039V47.3794H92.0324V49.4949H94.6152V49.7832H91.7217Z" fill="white"/>
</svg>
